<svg id="dhiLogo" xmlns="http://www.w3.org/2000/svg" width="245" height="51" viewBox="0 0 245 51" preserveAspectRatio="xMinYMid" aria-hidden="true" role="presentation"><g fill-rule="evenodd"><path d="M169.954 30.997c1.304 0 2.543.254 3.683.756l.058.027-.24 1.875-.1-.042c-.712-.293-2.14-.784-3.72-.784-2.834 0-4.974 2.324-4.974 5.405 0 3.208 2.032 5.364 5.055 5.364 1.396 0 2.876-.472 3.958-1.26l.143-.104-.112 2.004-.034.024c-.657.452-2.093 1.21-4.332 1.21-3.37 0-6.77-2.17-6.77-7.016 0-4.391 3.037-7.46 7.385-7.46zm44.703 3.687c2.316 0 3.872 1.663 3.872 4.138 0 .437-.061 1.096-.1 1.408l-.008.075h-6.518c.028 1.567.828 3.354 3.012 3.354 1.06 0 2.051-.242 3.218-.784l.128-.058-.113 1.732-.043.022c-1.154.567-2.254.82-3.568.82-2.708 0-4.528-2.086-4.528-5.191 0-3.196 1.953-5.516 4.648-5.516zm-35.198 0c2.317 0 3.872 1.664 3.872 4.138 0 .43-.06 1.078-.1 1.409l-.008.075h-6.517c.028 1.566.827 3.353 3.01 3.353 1.06 0 2.052-.242 3.219-.783l.128-.06-.113 1.733-.043.022c-1.155.567-2.254.82-3.568.82-2.708 0-4.528-2.087-4.528-5.192 0-3.195 1.954-5.515 4.648-5.515zm19.21-1.702v1.945h3.134v1.63h-3.134c-.002.516-.016 3.253-.019 4.959v.608c0 1.006.484 1.494 1.483 1.494.588 0 1.138-.078 1.682-.24l.108-.031v1.507l-.05.023c-.522.234-1.366.513-2.434.513-1.63 0-2.684-1.035-2.684-2.639 0-.229.002-.763.006-1.441.006-1.18.013-2.799.013-4.008v-.745h-.872v-.848l.022-.024 2.405-2.703h.34zM98.31 34.684c2.669 0 4.607 2.2 4.607 5.231 0 3.224-2.058 5.475-5.004 5.475-2.67 0-4.607-2.2-4.607-5.232 0-3.222 2.058-5.474 5.004-5.474zm20.317 0c1.678 0 2.762 1.06 2.762 2.698 0 .302-.01 1.392-.019 2.496l-.003.44-.017 2.09v.12c0 .757.334 1.135 1.052 1.19l.085.008-.11 1.422-.057.016c-.274.08-.7.165-1.075.165-.833 0-1.388-.417-1.57-1.176-.563.575-1.536 1.237-3.032 1.237-1.647 0-2.841-1.118-2.841-2.659 0-1.057.553-3.533 5.673-3.808v-1.176c0-.872-.517-1.392-1.385-1.392-.955 0-2.2.441-3.326 1.181l-.11.073-.205-1.543.043-.03c1.24-.898 2.63-1.352 4.135-1.352zm22.182 0c2.67 0 4.608 2.2 4.608 5.231 0 3.224-2.059 5.475-5.005 5.475-2.67 0-4.608-2.2-4.608-5.232 0-3.222 2.059-5.474 5.005-5.474zm-14.32-1.702v1.945h3.134v1.63h-3.134c-.003.583-.02 4.005-.02 5.567 0 1.006.485 1.494 1.483 1.494.588 0 1.14-.078 1.683-.24l.107-.031v1.507l-.05.023c-.52.234-1.366.513-2.434.513-1.63 0-2.683-1.035-2.683-2.639l.005-1.441c.007-1.18.014-2.799.014-4.008v-.745h-.872v-.848l.021-.024 2.406-2.703h.34zm-20.62 1.945l.019.057 2.144 6.036c.169.534.349 1.325.452 1.805.093-.477.26-1.26.441-1.803l2.063-6.095h2.027l-.044.116-3.849 10.245h-1.564l-.021-.055-3.873-10.306h2.205zm-29.166-.243c1.9 0 3.278 1.39 3.278 3.308v7.195h-1.934V38.66c0-1.426-.808-2.244-2.217-2.244-.802 0-1.619.234-2.197.628v8.143h-1.934v-10.17l1.858-.201-.04 1.147c.477-.429 1.62-1.279 3.186-1.279zm131.109 0c.476 0 .91.11 1.329.334l.053.028-.01.06-.316 2.044-.103-.055c-.521-.277-1.13-.436-1.668-.436-.578 0-1.164.264-1.502.674v7.854h-1.934v-10.17l1.858-.201-.054 1.324c.557-.916 1.42-1.456 2.347-1.456zm-119.899 0c1.9 0 3.277 1.39 3.277 3.308v7.195h-1.933V38.66c0-1.426-.809-2.244-2.216-2.244-.802 0-1.62.234-2.2.628v8.143h-1.933v-10.17l1.859-.201-.039 1.147c.476-.429 1.619-1.279 3.185-1.279zm64.68 0c1.9 0 3.28 1.39 3.28 3.308v7.195h-1.935V38.66c0-1.426-.808-2.244-2.217-2.244-.801 0-1.618.234-2.198.628v8.143h-1.933v-10.17l1.858-.201-.039 1.147c.476-.429 1.619-1.279 3.185-1.279zm37.878 0c1.9 0 3.278 1.39 3.278 3.308v7.195h-1.935V38.66c0-1.426-.808-2.244-2.215-2.244-.803 0-1.62.234-2.2.628v8.143h-1.933v-10.17l1.859-.201-.04 1.147c.477-.429 1.62-1.279 3.186-1.279zM68.255 31.24v13.947h-2.033V31.24h2.033zm65.256 3.687v10.26h-1.934v-10.26h1.934zm-14.037 5.444c-.997.066-3.779.405-3.779 2.098 0 .833.6 1.331 1.602 1.331.94 0 1.735-.44 2.177-.862zM98.09 36.355c-1.64 0-2.832 1.505-2.832 3.58 0 2.498 1.445 3.805 2.872 3.805 1.641 0 2.832-1.515 2.832-3.601 0-1.88-.986-3.784-2.872-3.784zm42.5 0c-1.641 0-2.833 1.505-2.833 3.58 0 2.498 1.446 3.805 2.872 3.805 1.641 0 2.833-1.515 2.833-3.601 0-1.88-.987-3.784-2.872-3.784zm38.63-.082c-1.308 0-2.176 1.244-2.382 2.503h4.657c-.034-1.478-.96-2.503-2.275-2.503zm35.198 0c-1.307 0-2.176 1.244-2.383 2.503h4.658c-.034-1.478-.96-2.503-2.275-2.503zm-81.824-6.006c.67 0 1.196.537 1.196 1.22 0 .674-.537 1.22-1.196 1.22-.681 0-1.214-.535-1.214-1.22 0-.695.521-1.22 1.214-1.22zM94.8 10.921v2.312l-.109-.034c-.017-.005-1.52-.466-2.181-.62.273.39.623 1.137.623 1.895 0 2.33-1.698 3.956-4.13 3.956-.243 0-.694-.059-.828-.077-.432.382-.755.81-.755 1.004 0 .405.57.603 1.742.603h1.983c1.688 0 2.96 1.108 2.96 2.578 0 2.412-2.262 4.097-5.5 4.097-2.346 0-4.05-1.272-4.05-3.024 0-1.121.877-2.06 1.75-2.51-.437-.233-.879-.685-.879-1.319 0-.237.17-.681 1.607-1.803-.468-.228-1.845-1.074-1.845-3.12 0-1.894 1.42-3.813 4.132-3.813 1.191 0 2.07.497 2.356.682l3.124-.807zm-7.383 10.591c-.624.449-1.008 1.095-1.008 1.694 0 1.142 1.048 1.88 2.672 1.88 2.02 0 3.111-1.115 3.111-2.163 0-.795-.57-1.252-1.563-1.252-1.951 0-3.015-.132-3.212-.159zM194.24 7.44c1.53 0 3.079.934 3.079 2.72 0 1.386-.828 2.56-2.53 3.586.774.858 2.225 2.308 3.156 3.108.382-.735.674-2.105.674-3.19v-.085h1.894v.085c0 1.573-.58 3.393-1.165 4.417.958.816 2.33 1.901 2.753 2.176l.08.052-1.278 1.572-.063-.041c-.668-.433-1.797-1.417-2.644-2.16-1.198 1.422-2.746 2.113-4.73 2.113-2.601 0-4.489-1.766-4.489-4.198 0-2.394 2.023-3.693 3.003-4.182-.834-.973-1.257-1.944-1.257-2.889 0-1.758 1.512-3.084 3.517-3.084zm20.197-.082c1.304 0 2.544.255 3.683.757l.058.025-.24 1.877-.1-.042c-.71-.292-2.137-.784-3.718-.784-2.836 0-4.975 2.324-4.975 5.405 0 3.208 2.031 5.363 5.054 5.363 1.397 0 2.876-.47 3.96-1.26l.141-.104-.111 2.004-.034.024c-.658.452-2.094 1.21-4.333 1.21-3.37 0-6.77-2.169-6.77-7.015 0-4.392 3.037-7.46 7.385-7.46zM103.393 9.344v1.945h3.134v1.63h-3.135c-.002.54-.016 3.495-.018 5.175v.392c0 1.005.484 1.494 1.482 1.494.587 0 1.138-.079 1.683-.24l.107-.032v1.508l-.05.022c-.52.234-1.365.514-2.434.514-1.63 0-2.683-1.035-2.683-2.639l.005-1.44c.007-1.182.015-2.8.015-4.009v-.745h-.873v-.848l2.427-2.727h.34zm137.552 1.702c2.317 0 3.873 1.662 3.873 4.137 0 .431-.06 1.079-.1 1.409l-.009.075h-6.516c.027 1.567.827 3.353 3.01 3.353 1.06 0 2.053-.24 3.219-.782l.128-.06-.112 1.733-.045.022c-1.154.566-2.253.82-3.567.82-2.71 0-4.528-2.087-4.528-5.192 0-3.196 1.953-5.515 4.647-5.515zM169.62 9.344v1.945h3.136v1.63h-3.136c-.003.54-.016 3.495-.018 5.175v.392c0 1.005.484 1.494 1.483 1.494.587 0 1.138-.079 1.682-.24l.107-.032v1.508l-.05.022c-.52.234-1.366.514-2.435.514-1.629 0-2.681-1.035-2.681-2.639l.004-1.44c.006-1.182.014-2.8.014-4.009v-.745h-.872v-.848l2.428-2.727h.338zm-13 1.702c1.704 0 2.762 1.034 2.762 2.699 0 .34-.011 1.698-.022 2.937-.009 1.044-.017 2.005-.017 2.208 0 .757.334 1.136 1.053 1.192l.084.006-.11 1.421-.056.017c-.275.08-.701.165-1.075.165-.834 0-1.388-.417-1.571-1.175-.563.574-1.536 1.236-3.032 1.236-1.646 0-2.841-1.118-2.841-2.658 0-1.057.554-3.535 5.674-3.81V14.11c0-.873-.518-1.393-1.385-1.393-.956 0-2.2.441-3.327 1.18l-.11.074-.204-1.542.041-.03c1.24-.898 2.632-1.353 4.136-1.353zm67.46 0c1.677 0 2.76 1.06 2.76 2.699 0 .34-.01 1.698-.02 2.937-.009.905-.016 1.747-.018 2.088v.12c0 .757.334 1.136 1.053 1.192l.084.006-.11 1.422-.057.016c-.273.08-.702.165-1.075.165-.833 0-1.387-.417-1.57-1.175-.563.574-1.537 1.236-3.032 1.236-1.647 0-2.841-1.118-2.841-2.658 0-1.057.554-3.535 5.673-3.81V14.11c0-.873-.517-1.393-1.384-1.393-.957 0-2.2.441-3.326 1.18l-.112.074-.202-1.542.04-.03c1.242-.898 2.632-1.353 4.136-1.353zm-111.725 0c1.703 0 2.762 1.034 2.762 2.699 0 .34-.012 1.698-.022 2.937-.01 1.044-.018 2.005-.018 2.208 0 .757.335 1.136 1.054 1.192l.084.006-.11 1.421-.057.017c-.274.08-.701.165-1.074.165-.834 0-1.388-.417-1.57-1.175-.564.574-1.538 1.236-3.034 1.236-1.645 0-2.84-1.118-2.84-2.658 0-1.057.554-3.535 5.674-3.81V14.11c0-.873-.518-1.393-1.385-1.393-.956 0-2.2.441-3.326 1.18l-.112.074-.203-1.542.04-.03c1.242-.898 2.632-1.353 4.137-1.353zm34.285 0c2.317 0 3.874 1.662 3.874 4.137 0 .431-.06 1.079-.1 1.409l-.01.075h-6.516c.028 1.567.827 3.353 3.01 3.353 1.06 0 2.053-.24 3.22-.782l.127-.06-.112 1.733-.045.022c-1.153.566-2.253.82-3.567.82-2.709 0-4.528-2.087-4.528-5.192 0-3.196 1.954-5.515 4.647-5.515zM70.77 7.48c4.44 0 7.424 2.656 7.424 6.61 0 4.638-3.034 7.52-7.92 7.52-1.35 0-2.873-.023-3.97-.06l-.083-.003V7.605l.082-.003c.36-.011.753-.025 1.163-.04 1.087-.038 2.318-.082 3.304-.082zm105.816-1.925v6.664c.504-.43 1.589-1.173 3.071-1.173 1.899 0 3.277 1.39 3.277 3.307v7.196H181v-6.528c0-1.426-.808-2.244-2.217-2.244-.8 0-1.618.234-2.197.629v8.143h-1.934V5.555h1.934zm-46.389 2.047v5.794h7.133V7.602h2.013v13.947h-2.013v-6.3h-7.133v6.3h-2.032V7.602h2.032zM234.1 11.046c.476 0 .91.109 1.329.334l.053.028-.01.061-.315 2.043-.104-.055c-.522-.278-1.13-.436-1.668-.436-.577 0-1.163.263-1.503.674v7.855h-1.934V11.379l1.86-.202-.055 1.325c.557-.916 1.42-1.456 2.347-1.456zm-69.577-5.49v15.993h-1.934V5.555h1.934zm-81.904 5.733v10.26h-1.934V11.29h1.934zm37.639-5.734V21.55h-1.934V5.555h1.934zM98.294 11.29v10.26H96.36V11.29h1.934zm59.176 5.444c-.997.066-3.78.405-3.78 2.097 0 .834.598 1.332 1.602 1.332.94 0 1.735-.44 2.178-.862zm67.458 0c-.997.066-3.78.405-3.78 2.097 0 .834.6 1.332 1.603 1.332.94 0 1.734-.44 2.177-.862zm-111.723 0c-.997.066-3.781.405-3.781 2.097 0 .834.6 1.332 1.603 1.332.94 0 1.735-.44 2.178-.862zM192.99 14.6c-.907.476-1.96 1.334-1.96 2.751 0 1.672 1.379 2.67 2.714 2.67 1.524 0 2.56-.784 3.174-1.47-1.381-1.295-2.806-2.728-3.928-3.95zM70.234 9.232h-1.98V19.82h2.357c3.387 0 5.49-2.04 5.49-5.325 0-3.344-2.138-5.262-5.867-5.262zm18.908 3.343c-1.165 0-2.077.896-2.077 2.042 0 1.366.85 2.284 2.117 2.284 1.154 0 2.059-.906 2.059-2.062 0-1.354-.843-2.264-2.1-2.264zm57.26.06c-1.308 0-2.176 1.244-2.381 2.503h4.658c-.036-1.478-.96-2.503-2.276-2.503zm94.305 0c-1.309 0-2.177 1.244-2.382 2.503h4.657c-.035-1.478-.96-2.503-2.275-2.503zM194.002 9.03c-.653 0-1.345.48-1.345 1.373 0 .647.378 1.388 1.123 2.202.785-.444 1.605-1.257 1.605-2.243 0-.875-.696-1.332-1.383-1.332zm-112.3-2.4c.671 0 1.196.536 1.196 1.22 0 .673-.537 1.22-1.196 1.22-.68 0-1.215-.537-1.215-1.22 0-.684.534-1.22 1.215-1.22zm15.674 0c.67 0 1.195.536 1.195 1.22 0 .673-.535 1.22-1.195 1.22-.68 0-1.213-.536-1.213-1.22 0-.696.52-1.22 1.213-1.22z"></path><path fill="#6A56A0" d="M18.91 31.822c1.4 0 2.538-1.163 2.538-2.591V13.448c0-4.557 3.555-8.265 7.925-8.265 4.37 0 7.925 3.708 7.925 8.265 0 .871-.13 1.728-.383 2.548-.205.66-.145 1.36.168 1.977.312.615.84 1.068 1.483 1.277.65.209 1.335.148 1.935-.17.602-.319 1.047-.858 1.251-1.517.412-1.325.621-2.709.621-4.115 0-7.415-5.832-13.448-13-13.448s-13 6.033-13 13.448v15.783c0 1.428 1.138 2.591 2.537 2.591"></path><path fill="#768691" d="M41.308 25.232l-13.405-7.456c-1.231-.684-2.774-.218-3.443 1.036-.324.607-.397 1.307-.203 1.971.191.666.624 1.213 1.218 1.543l13.404 7.457c3.873 2.155 5.332 7.185 3.25 11.213-1.01 1.954-2.69 3.377-4.732 4.007-2.006.619-4.127.394-5.975-.634-.732-.406-1.394-.925-1.966-1.54-.466-.503-1.096-.79-1.774-.807l-.078-.001c-.642 0-1.262.253-1.737.712-.49.476-.771 1.12-.788 1.812-.018.692.23 1.35.695 1.852.939 1.008 2.023 1.858 3.22 2.524 3.005 1.672 6.602 2.051 9.871 1.044 3.35-1.034 6.102-3.36 7.751-6.55 3.37-6.523.989-14.68-5.308-18.183"></path><path fill="#DB2886" d="M33.96 30.94c-.33-.603-.872-1.04-1.526-1.228-.654-.19-1.338-.108-1.927.229L17.18 37.545c-3.852 2.196-8.794.773-11.021-3.174-1.08-1.914-1.364-4.123-.797-6.222.558-2.064 1.877-3.777 3.711-4.824.725-.415 1.508-.71 2.326-.878.665-.136 1.238-.527 1.615-1.102.376-.576.51-1.267.377-1.946-.237-1.208-1.283-2.085-2.488-2.085-.166 0-.334.017-.497.05-1.336.272-2.616.755-3.807 1.436-1.884 1.074-3.477 2.611-4.608 4.443C1.322 24.33.809 25.516.47 26.77c-.93 3.446-.472 7.065 1.291 10.19 3.609 6.39 11.636 8.683 17.895 5.11l13.325-7.603c1.22-.697 1.659-2.279.977-3.525"></path></g></svg>