<?xml version="1.0" encoding="utf-8"?>
<!-- Generator: Adobe Illustrator 20.1.0, SVG Export Plug-In . SVG Version: 6.00 Build 0)  -->
<svg version="1.1" id="Isolation_Mode" xmlns="http://www.w3.org/2000/svg" xmlns:xlink="http://www.w3.org/1999/xlink" x="0px"
	 y="0px" viewBox="0 0 577.5 137.3" style="enable-background:new 0 0 577.5 137.3;" xml:space="preserve">
<g>
	<path style="fill:#231F20;" d="M91.7,112.7c0.7-0.3,1.3-0.8,1.9-1.2c0.5-0.3,1.1-0.7,1.6-1c0.5-0.4,0.9-0.8,1.4-1.1
		c0.5-0.4,1-0.7,1.6-1.1c0.1-0.1,0.2-0.2,0.3-0.3c0.1-0.1,0.2-0.1,0.4-0.2c0.4-0.3,0.9-0.7,1.3-1.1c0.3-0.3,0.6-0.7,0.9-1
		c0.3-0.3,0.7-0.6,1.1-0.9c0.1-0.1,0.2-0.3,0.4-0.4c0.3-0.3,0.6-0.5,0.8-0.8c0.2-0.2,0.4-0.5,0.5-0.7c0.6-0.6,1.2-1.3,1.8-2
		c0.4-0.5,0.9-1.1,1.3-1.6c0.3-0.4,0.6-0.8,0.9-1.2c0.1-0.2,0.3-0.3,0.5-0.5c0.5-0.7,0.9-1.3,1.4-2c0.1-0.2,0.2-0.5,0.4-0.7
		c0.1-0.2,0.2-0.3,0.3-0.5c0.1-0.2,0.2-0.4,0.3-0.6c0.3-0.5,0.6-1.1,0.9-1.6c0.2-0.4,0.5-0.8,0.7-1.3c0.2-0.4,0.3-0.9,0.5-1.3
		c0.2-0.4,0.4-0.9,0.6-1.4c0.7-1.9,1.4-3.9,2-5.9c0-0.2,0.1-0.5,0.1-0.7c0.2-0.7,0.4-1.5,0.5-2.2c0-0.4,0.1-0.8,0.1-1.2
		c0.1-0.6,0.2-1.3,0.3-2c0-0.5,0.1-1,0.1-1.6c0-0.2,0.1-0.4,0.1-0.6c0-0.4,0-0.9,0.1-1.3c0-0.2,0.1-0.4,0.1-0.6c0-0.3,0-0.6,0-0.9
		c0.1-2,0.2-4.1,0.1-6c-0.1-1-0.3-2-0.4-3c-0.1-1-0.2-2.1-0.4-3.1c-0.6-2.7-1.3-5.4-2.3-8c-0.1-0.4-0.4-0.7-0.5-1.1
		c-0.3-0.8-0.7-1.5-1-2.2c-0.1-0.2-0.2-0.4-0.4-0.6c-0.3-0.6-0.5-1.3-0.8-1.9c-0.2-0.4-0.5-0.7-0.7-1.1c-0.2-0.4-0.4-0.8-0.6-1.2
		c-0.7-1.1-1.4-2.1-2.1-3.2c-0.3-0.3-0.5-0.6-0.8-0.9c-0.3-0.4-0.6-0.8-0.9-1.2c-0.3-0.3-0.6-0.5-0.9-0.9c-0.1-0.2-0.2-0.4-0.4-0.6
		c-0.2-0.2-0.5-0.5-0.7-0.7c-0.1-0.1-0.3-0.2-0.4-0.4c-0.3-0.4-0.7-0.8-1-1.2c-0.3-0.3-0.6-0.6-0.9-0.9c-0.3-0.3-0.6-0.6-0.9-0.9
		c-0.4-0.3-0.8-0.6-1.3-1c-0.4-0.4-0.9-0.7-1.3-1.1c-0.3-0.2-0.6-0.4-0.9-0.6c-0.4-0.3-0.7-0.5-1.1-0.8c-0.3-0.2-0.5-0.4-0.8-0.6
		c-0.2-0.1-0.4-0.2-0.6-0.4c-0.3-0.2-0.5-0.4-0.8-0.6c-0.9-0.5-1.8-1-2.7-1.4c-0.3-0.2-0.7-0.4-1-0.6c-0.6-0.3-1.2-0.6-1.7-0.9
		c-0.5-0.2-1-0.4-1.4-0.6c-0.2-0.1-0.5-0.3-0.7-0.4c-0.2-0.1-0.4-0.1-0.6-0.2c-0.3-0.1-0.6-0.3-0.9-0.4c-0.9-0.3-1.9-0.6-2.8-0.9
		c-0.4-0.1-0.9-0.3-1.4-0.4c-1-0.3-2-0.4-3-0.7c-0.7-0.1-1.3-0.3-2-0.4c-0.4-0.1-0.9-0.1-1.3-0.2c-0.7-0.1-1.5-0.3-2.3-0.4
		c-0.3,0-0.6,0-0.9,0c-0.2,0-0.4,0-0.6-0.1c-0.4,0-0.8,0-1.2,0c-0.9-0.1-1.8-0.1-2.7-0.1c-0.4,0.1-0.9,0-1.3,0c-0.5,0-1,0-1.4,0
		c-0.1,0-0.3,0-0.4,0.1c-0.3,0-0.7,0-1,0c-0.2,0-0.4,0.1-0.5,0.1c-0.2,0-0.3,0-0.5,0.1c-0.2,0-0.3,0-0.5,0c-0.1,0-0.2,0-0.3,0
		c-0.2,0-0.4,0-0.6,0.1c-0.5,0-1.2,0.1-1.5,0.3c-0.1,0-0.2,0-0.3,0c-0.3,0-0.7,0-0.9,0.2c-0.8,0-1.4,0.3-2.1,0.5
		c-0.4,0.1-0.8,0.1-1.1,0.3c-0.3,0-0.6,0.1-0.9,0.2c-0.5,0-0.9,0.3-1.3,0.4c-0.2,0.1-0.6,0.1-0.8,0.2c-0.5,0-0.9,0.3-1.3,0.5
		c-0.3,0.1-0.5,0.2-0.8,0.3c-1.5,0.6-2.9,1.3-4.4,2.1c-0.2,0.2-0.5,0.3-0.7,0.5c-1.7,0.9-3.4,1.8-4.9,3c-0.4,0.3-0.9,0.6-1.3,1
		c-0.2,0.2-0.5,0.4-0.7,0.6c-0.4,0.3-0.9,0.6-1.3,0.9c-0.9,0.7-1.7,1.5-2.5,2.3c-0.5,0.4-1,0.9-1.5,1.3c-0.2,0.2-0.3,0.4-0.5,0.6
		c-0.2,0.2-0.4,0.4-0.7,0.6c-0.4,0.4-0.6,0.8-0.9,1.1c-0.3,0.3-0.6,0.6-0.9,0.9c-0.1,0.2-0.2,0.3-0.4,0.5c-0.5,0.6-1,1.2-1.5,1.8
		c-0.3,0.5-0.6,1-0.9,1.4c-0.4,0.6-0.9,1.3-1.3,1.9c-0.1,0.2-0.2,0.4-0.3,0.6c-0.3,0.5-0.6,1-0.9,1.5c-0.3,0.5-0.4,1.1-0.7,1.6
		c-0.1,0.2-0.2,0.4-0.4,0.6c-0.3,0.5-0.5,0.9-0.7,1.4c-0.1,0.3-0.2,0.6-0.4,0.9c-0.2,0.3-0.3,0.6-0.4,0.9c-0.1,0.4-0.2,0.7-0.4,1.1
		c-0.1,0.4-0.3,0.8-0.4,1.1c-0.7,2.4-1.3,4.8-1.9,7.3c0,0.5-0.1,1-0.1,1.4c-0.1,0.5-0.3,1.1-0.3,1.7c0,0.4,0,0.9-0.1,1.3
		c0,0.3-0.1,0.7-0.1,1c-0.1,2,0,4,0,5.9c0,0.9,0.2,1.9,0.3,2.8c0,0.4,0,0.8,0.1,1.2c0.1,1.3,0.3,2.6,0.5,3.8c0.1,0.3,0.2,0.6,0.3,1
		c0.2,1,0.4,2,0.7,2.9c0.1,0.2,0.2,0.4,0.3,0.6c0.1,0.2,0.1,0.5,0.2,0.7c0.4,1.1,0.7,2.1,1.1,3.2c0.2,0.4,0.4,0.8,0.6,1.2
		c0.1,0.3,0.2,0.6,0.3,0.8c0.3,0.7,0.7,1.3,1,1.9c0.3,0.5,0.6,1,0.9,1.6c0.1,0.2,0.2,0.4,0.2,0.6c0.1,0.1,0.2,0.2,0.3,0.3
		c0.1,0.2,0.2,0.4,0.3,0.7c0.2,0.4,0.6,0.9,0.9,1.3c0.2,0.2,0.3,0.5,0.5,0.8c0.3,0.3,0.6,0.6,0.8,1c0.2,0.3,0.4,0.6,0.6,0.8
		c0.4,0.4,0.7,0.8,1.1,1.3c0.3,0.4,0.6,0.7,0.9,1.1c0.4,0.4,0.7,0.8,1.1,1.1c0.3,0.3,0.6,0.8,0.9,1.1c0.5,0.5,1,0.9,1.4,1.4
		c0.2,0.2,0.5,0.5,0.7,0.7c0.4,0.3,0.9,0.6,1.3,1c0.4,0.4,0.7,0.7,1.1,1.1c0.3,0.2,0.5,0.4,0.8,0.6c0.3,0.3,0.6,0.6,1,0.9
		c0.4,0.3,0.8,0.6,1.3,0.9c0.3,0.2,0.6,0.3,0.9,0.5c0.3,0.2,0.7,0.5,1,0.7c0.3,0.2,0.7,0.4,1,0.6c1.3,0.8,2.6,1.5,3.9,2.1
		c0.6,0.3,1.1,0.6,1.8,0.9c0.6,0.2,1.2,0.4,1.7,0.7c0.2,0.1,0.4,0.1,0.6,0.2c0.6,0.2,1.1,0.4,1.7,0.7c0.2,0,0.3,0.1,0.5,0.1
		c0.5,0.2,1,0.4,1.5,0.6c0.6,0.1,1.2,0.2,1.9,0.4c0.9,0.2,1.9,0.5,2.8,0.6c0.3,0,0.7,0.1,1,0.1c0.5,0.1,0.9,0.2,1.4,0.2
		c0.4,0,0.7,0,1.1,0.1c0.2,0,0.5,0.1,0.7,0.1c0.2,0,0.5,0,0.7,0c0.6,0.1,1.1,0.2,1.7,0.3c0.3,0,0.6,0,0.9,0c0.2,0,0.3,0,0.5-0.1
		c0.5,0,1.1,0.1,1.6,0.1c0.3,0,0.6,0,1,0c0.7,0,1.3-0.1,1.9-0.2c0.3,0,0.5,0,0.8,0c0.4,0,0.8-0.1,1.1-0.1c1.3-0.1,2.6-0.3,3.9-0.5
		c0.4-0.1,0.9-0.2,1.3-0.3c0.5-0.1,1.1-0.2,1.6-0.3c0.3-0.1,0.5-0.2,0.8-0.3c0.4-0.1,0.9-0.3,1.3-0.4c0.2-0.1,0.4-0.1,0.6-0.2
		c0.3-0.1,0.6-0.1,0.9-0.2c0.7-0.2,1.3-0.5,2-0.7c0.4-0.2,0.8-0.4,1.2-0.6c0.4-0.1,0.8-0.3,1.1-0.5c0.1-0.1,0.2-0.1,0.3-0.2
		c0.4-0.2,0.8-0.4,1.2-0.6c0.4-0.3,0.9-0.5,1.3-0.8C91.2,112.9,91.4,112.8,91.7,112.7 M103.4,100.1c-0.4,0-1.2,0.1-1.5-0.2
		c-0.1,0,0-0.1,0-0.2c0.1-0.3-0.1-0.7,0.2-0.9c0.1,0,0.2-0.1,0.3-0.1c0.3,0,1.7,0,1.8,0.2C104.5,99.2,103.6,99.9,103.4,100.1
		 M105,98.1c-0.2,0-0.4,0-0.6,0.1c-0.8,0-1.5-0.1-2.3-0.1c0-0.4-0.1-0.9,0-1.3c0.6,0,1.3,0,1.9,0c0.3,0,0.6,0.1,0.8,0.1
		c0.4,0,0.8,0,1.2,0C106,97.2,105.3,98,105,98.1 M107.2,95.2c-0.1,0-0.1,0.1-0.1,0.2c-0.1,0.2-0.5,0.7-0.7,0.9
		c-0.1,0-0.3,0.1-0.4,0.1c-0.3,0-1-0.2-1.2-0.1c-0.4,0-0.9-0.2-1.3,0c-0.3,0-1.2,0-1.3-0.2c-0.1-0.1,0-0.3,0-0.4c0-0.2,0-0.4,0-0.5
		c0-0.1,0.2-0.1,0.3-0.1c1.3,0,2.5,0,3.7,0.1c0.4,0,0.7,0.1,1.1,0.1V95.2z M108.6,93.2c-0.1,0-0.7,1.2-1.1,1.3
		c-0.6,0.1-1.4-0.1-2-0.1c-0.8,0-1.5-0.1-2.2-0.1c-0.3,0-0.8,0.1-1.1-0.1c-0.2-0.1-0.1-0.6-0.1-0.8c0-0.4,0.2-0.3,0.5-0.5
		c0.3,0,0.5,0,0.8,0c0.2,0,0.5,0,0.7,0c0.6,0,1.1,0.1,1.7,0.1c0.6,0,1.2,0,1.8,0C108,93,108.3,93,108.6,93.2
		C108.6,93.1,108.6,93.1,108.6,93.2 M108.8,92.3c-0.3,0-0.7-0.1-1,0.1c-0.5,0-1.6-0.2-2,0c-0.8,0-1.7,0-2.5-0.1
		c-0.4-0.1-0.8-0.1-1.2-0.2c0-0.1,0-0.1-0.1-0.2c0-0.3,0-0.5,0-0.8c0,0,0,0,0,0c0-0.1,0.5-0.1,0.6-0.1c0.3,0,0.6,0,0.9,0
		c0.3,0,0.6-0.1,0.9-0.1c0.5,0,1,0.1,1.5,0.1c0.4,0,0.8,0,1.1-0.1c0.5,0,1,0.1,1.5,0c0.3,0,0.6,0.1,1,0.1
		C109.6,91.4,109.2,92.3,108.8,92.3 M110.2,90.1c-0.1,0.1-0.2,0.2-0.3,0.3c-0.3,0-0.6,0-0.9,0c-0.3,0-1-0.2-1.3,0
		c-0.3,0-0.9-0.1-1.2,0c-0.3,0-0.7-0.1-1,0c-0.3,0-0.7-0.1-1,0c-0.8,0-1.6,0-2.4,0v0c-0.1,0,0,0,0-0.1c0-0.4,0-0.7,0-1.1
		c0.3,0,0.5-0.1,0.8-0.2c0.5,0,1,0,1.4,0c0.2,0,0.4,0,0.6-0.1c1,0,2,0,2.9,0c0.4,0,0.9,0,1.4,0c0.3,0,0.5,0,0.8,0
		c0.2,0,0.4,0,0.5,0.1C110.6,89.2,110.3,90,110.2,90.1 M111.2,87.9c-0.1,0.2-0.2,0.5-0.5,0.5c-0.1,0-0.2,0-0.3,0
		c-0.3,0-0.5-0.1-0.8-0.1c-0.5,0-1.1,0-1.6,0c-0.2,0-0.4,0-0.6,0.1c-0.4,0-1.1-0.1-1.3,0c-0.1,0-0.2,0-0.3,0c-0.3,0-0.6,0-0.9,0
		c-0.2,0-0.4-0.1-0.6,0c-0.7,0-1.5,0-2.2,0v0c-0.1,0-0.1-0.4-0.1-0.5c0-0.2,0-0.6,0.1-0.7c0.1-0.2,1.4-0.1,1.8-0.2
		c0.2,0,0.4,0,0.6,0c0.5,0,1.1,0.1,1.6,0.1c0.3,0,0.6,0,1-0.1c0.3,0,0.5,0.1,0.9,0.1c0.5,0,1,0,1.6,0c0.4,0,1.4-0.2,1.7,0
		c0,0,0,0,0.1,0C111.4,87.3,111.2,87.7,111.2,87.9 M111.8,86.2c-0.1,0.1-0.3,0.1-0.4,0.1c-0.5,0-0.9,0-1.3,0.1c-0.2,0-0.4-0.1-0.6,0
		c-0.2,0-0.4,0-0.6,0c-0.1,0-0.2,0-0.3,0c-0.4,0-0.9,0-1.3-0.1c-0.2,0-0.5-0.1-0.7,0c-0.1,0-0.3,0-0.4,0c-0.4,0-0.8,0-1.3,0
		c-0.3,0-0.8-0.2-1.1,0c-0.2,0-0.4,0-0.5,0c-0.2,0-1,0-1.1-0.1c-0.1-0.1-0.1-0.3-0.1-0.4c0-0.2,0-0.5-0.1-0.7v0c0.3,0,0.7-0.1,1-0.1
		c1.1,0,2.2,0,3.2,0c0.3,0,0.5-0.1,0.8-0.1c0.5,0,1.1,0,1.6,0c0.3,0,0.6,0,0.8,0c0.5,0,0.9,0.1,1.3,0.1c0.2,0,0.4,0,0.5-0.1
		c0.4,0,0.7,0,1,0.1C112.3,85.3,112,86.1,111.8,86.2 M112.8,83.8c-0.1,0.2-0.2,0.4-0.3,0.6c-0.2,0-0.5,0-0.6,0c-0.2,0-0.4,0-0.6,0
		c-0.1,0-0.2,0-0.3,0c-0.3,0-1.1-0.1-1.3,0c-0.2,0-0.4,0-0.6,0.1c-0.6-0.1-1.2-0.1-1.8-0.1c-0.2,0-0.5,0-0.7,0c-0.3,0-0.7-0.1-1,0
		c-0.4,0-3.6,0-3.7-0.2c-0.2-0.2-0.1-1-0.1-1.3c0.6,0,1.3,0,1.9,0c0.6,0,1.1,0.1,1.7,0.1c1,0,1.9,0,2.9,0c0.3,0,0.5,0,0.8-0.1
		c0.2,0,0.4,0,0.6,0.1c0.2,0,0.3,0,0.5-0.1c0.4,0,2.2,0,2.4,0.2C112.9,83.4,112.8,83.6,112.8,83.8 M113.4,81.7
		c-0.1,0.3-0.2,0.6-0.4,0.8c-0.8,0-1.8-0.1-2.6,0c-0.1,0-0.3,0-0.4,0.1c-0.4,0-1.6-0.1-1.9,0c-0.4,0-0.8,0-1.2,0
		c-0.3,0-0.7-0.1-0.9,0c-0.3,0-0.8-0.1-1.1,0c-1,0-2-0.1-3-0.1c0-0.3-0.1-1,0.1-1.2c0-0.1,0.4-0.1,0.5-0.1c0.2,0.1,0.4,0,0.6,0
		c0.5,0,1.1,0.1,1.6,0c0.5,0,1,0,1.5,0c0.4,0,0.9,0,1.3-0.1c0.8,0,1.6,0.2,2.3,0.1c0.5-0.1,1-0.1,1.5-0.1c0.4,0,1.9-0.1,2.1,0.1
		C113.5,81.3,113.5,81.5,113.4,81.7 M113.8,80.2c0,0.2-0.1,0.3-0.1,0.4c-0.4,0-0.8,0-1.2,0c-0.3,0-0.7,0-1,0c-0.4,0-0.9,0-1.3-0.1
		c-0.3,0-0.7,0-1,0c-0.3,0-0.8-0.1-1.1,0c-0.2,0-0.4,0-0.6,0c-0.5,0-0.9-0.1-1.4-0.1c-1.4-0.1-2.7-0.1-4.1-0.1c0,0,0,0,0,0
		c-0.1,0,0-1,0-1.2c0.5,0,1,0,1.4,0c0.3,0,0.5,0,0.8,0c0.8,0,1.7,0,2.6,0c0.7,0,1.7,0.2,2.3,0c0.4,0,0.9,0,1.3,0c0.2,0,0.4,0,0.6,0
		c0.2,0,0.4,0,0.6,0.1c0.7,0,1.5,0,2.2,0.1C113.9,79.6,113.9,79.9,113.8,80.2 M114.1,78.6c-0.1,0-0.1,0-0.2,0.1
		c-0.4,0-1.6-0.1-1.8,0c-0.3,0-0.8-0.1-1,0c-0.4,0-0.8,0-1.3,0c-0.2,0-0.5-0.1-0.6,0c-0.2,0-0.5,0-0.7,0.1c-0.3,0-0.5-0.1-0.8-0.1
		c-0.4,0-0.9,0-1.3,0c-0.2,0-0.5-0.1-0.7,0c-0.2,0-0.5-0.1-0.7-0.1c-0.7,0-1.4,0-2.2,0c-0.2,0-0.5,0-0.7,0c0-0.4-0.1-0.9,0-1.2
		c0.1,0,0.2,0,0.3,0c0.6,0,1.2,0,1.9,0c0.3,0,0.6,0,0.9,0c0.2,0,0.4,0.1,0.6,0.1c0.3,0,0.6-0.1,0.9-0.1c0.6,0,1.6,0.1,2-0.1
		c0.2,0,0.4,0,0.6,0.1c0.4,0,0.8-0.1,1.2-0.1c0.7,0,1.5,0,2.2,0.1c0.4,0,1.1,0,1.4,0.1C114.3,77.4,114.1,78.4,114.1,78.6
		 M114.4,76.5c-0.1,0.1-0.3,0.1-0.4,0.2c-0.1,0-0.3,0-0.4,0c-0.8,0-1.6,0-2.4,0c-0.4,0-0.9-0.2-1.2,0c-0.3,0-0.9-0.1-1.1,0
		c-0.9,0-1.9-0.1-2.8-0.1c-0.3,0-0.5,0-0.8,0c-0.2,0-0.5-0.1-0.7,0c-0.9,0-1.7-0.1-2.6-0.1v0h0c0-0.2,0-1,0.1-1.1
		c0.1-0.1,0.9-0.1,1.2-0.1c0.9,0,1.8,0,2.6,0c0.5,0,1.4,0,1.8-0.2c0.6,0,1.2,0.1,1.8,0.1c0.5,0,1.1,0,1.6,0c0.5,0,1.1,0,1.6,0
		c0.5,0,1.2-0.2,1.6,0.1C114.7,75.5,114.5,76.4,114.4,76.5 M114.5,74.7c-0.1,0-0.3,0.1-0.4,0.1c-0.3,0-1-0.1-1.2-0.1
		c-0.2,0-0.4,0-0.5,0c-0.1,0-0.2,0-0.3,0c-1.2,0-2.4-0.1-3.6-0.1c-0.4,0-0.9-0.1-1.2,0c-0.3,0-1-0.1-1.2,0c-1,0-2,0-3,0
		c-0.3,0-0.7-0.1-1-0.1c0-0.1,0-0.2,0-0.3c0-0.3-0.1-0.6,0.1-0.9c0-0.1,0.3,0,0.3,0c0.8,0,1.5,0,2.3,0c0.3,0,0.6,0.1,0.9,0
		c1.3,0,2.5,0.1,3.8,0.1c0.5,0,1,0,1.5-0.1c1,0,2.1,0,3.1,0.1c0.2,0,0.4,0.1,0.6,0.1C114.7,73.9,114.7,74.5,114.5,74.7 M114.8,72.8
		c0,0.1-0.4,0.1-0.4,0.1c-0.1,0-0.2,0-0.3,0c-0.7,0-1.3,0-2,0c-0.2,0-0.5,0-0.7,0c-0.6,0-1.3,0-1.9,0c-0.2,0-0.3,0-0.5,0
		c-0.2,0-0.3,0-0.5,0c-0.2,0-0.4,0-0.6-0.1c-0.4,0-0.8,0-1.3,0c-0.2,0-0.6-0.1-0.8,0c-1.1,0-2.2,0-3.2,0h-0.4c0-0.4,0.1-1,0-1.3v0h0
		c0-0.1,0.1,0,0.2,0c0.4,0,0.7,0,1,0c0.3,0,0.7,0,1,0c0.6,0,1.2-0.1,1.8-0.1c0.3,0,0.5,0,0.8,0c0.4,0,0.9,0,1.3,0
		c0.1,0,0.3,0,0.4,0.1c0.3,0,0.5,0,0.8,0c0.2,0,0.4,0,0.6,0c0.2,0,0.3,0,0.5-0.1c0.3,0,0.7,0,1,0c0.4,0,0.8,0,1.3,0
		c0.4,0,1.9-0.1,2.1,0.1C115,71.6,114.9,72.6,114.8,72.8 M115,70.7c-0.2,0-0.4,0.1-0.7,0.1c-0.4,0-1.1-0.1-1.4,0
		c-0.3,0-0.7-0.1-0.9,0c-0.3,0-0.9-0.1-1.1,0c-0.7,0-1.4,0-2.2-0.1c-0.2,0-0.4,0-0.6,0c-0.8,0-1.6,0-2.5,0c-0.3,0-0.8-0.1-1.1,0
		c-0.4,0-0.8,0-1.1,0c-0.2,0-0.5-0.1-0.8,0c-0.2,0-0.4,0-0.5,0c-0.3-0.1-0.2-1-0.2-1.3h0v0c0.1,0,0.3,0,0.4,0c0.4,0,0.8,0,1.2,0
		c0.2,0,0.5,0,0.7,0c0.4,0,0.9,0,1.3-0.1c1.5,0,3,0,4.6,0c0.7,0,1.4,0,2.1,0c0.4,0,0.8,0,1.2-0.1c0.3,0,0.5,0,0.8,0
		c0.2,0,0.3,0.1,0.5,0c0,0,0,0,0,0C115.1,69.4,115,70.6,115,70.7 M115.1,68c0,0.2,0,0.5,0,0.7c0,0.1-0.2,0.1-0.3,0.1
		c-0.2,0-0.5,0-0.6,0c-0.3,0-0.7-0.1-1,0c-1.3,0-2.6,0-3.9,0c-0.3,0-0.9-0.1-1.2,0c-0.3,0-1.1-0.1-1.3,0c-0.3,0-0.7-0.1-0.9,0
		c-0.5,0-1,0-1.4,0c-0.7,0-1.5,0-2.2,0v0c-0.1,0,0,0,0-0.1c0-0.3,0-0.7,0-1h0c0-0.1,0.2,0,0.3,0c0.9,0,1.7-0.1,2.6-0.1
		c0.6,0,1.2,0,1.9,0c0.3,0,0.5,0.1,0.8,0.1c0.2,0,0.4,0,0.7-0.1c1,0,1.9,0,2.9,0c0.7,0,1.4,0,2.1,0c0.2,0,0.5,0,0.7,0
		c0.2,0,1-0.1,1.1,0.1C115.1,67.7,115.1,67.9,115.1,68 M114.9,66.8c-0.1,0-0.3,0.1-0.4,0.1c-0.3,0-0.7-0.1-1,0.1
		c-0.5,0-1-0.1-1.5-0.1c-0.2,0-0.3,0-0.5,0c-0.2,0-0.5,0-0.6,0c-0.4,0-1.2-0.2-1.6,0c-0.4,0-1-0.2-1.4,0c-0.4,0-0.8,0-1.2,0
		c-0.3,0-0.9-0.1-1.2,0c-0.3,0-0.9-0.1-1.1,0c-0.2,0-0.4,0-0.7,0c-0.3,0-1.4,0.1-1.5-0.1c-0.1-0.2-0.1-0.4-0.1-0.6
		c0-0.2-0.2-0.6,0.1-0.7c0.3-0.1,1.3-0.1,1.7,0c0.3,0,0.6,0,0.9,0c0.7,0,1.3,0,2,0c0.3,0,0.8,0.1,1.1,0c0.7,0,1.4,0.1,2.1,0.1
		c1.2,0,2.4-0.1,3.6,0c0.4,0,0.8,0.1,1.3,0.1C114.9,65.9,115.2,66.6,114.9,66.8 M114.8,64.8c-0.2,0.2-1.4,0-1.7,0.1
		c-0.1,0-0.3,0-0.4,0c-0.5,0-1,0-1.5,0c-0.3,0-0.7-0.1-1,0c-0.4,0-1.3-0.1-1.6,0c-0.4,0-0.8-0.1-1.2,0c-0.8,0-1.5,0-2.3,0
		c-0.2,0-0.4-0.1-0.6,0c-0.3,0-0.6,0-0.9,0c-0.2,0-0.5,0-0.7,0c-0.2,0-0.4,0-0.6,0v0c-0.1,0,0-0.4-0.1-0.5c0-0.1,0-0.3-0.1-0.4
		c0-0.5,0.5-0.4,0.9-0.5c0.5,0,0.9,0.1,1.4,0.1c0.4,0,0.8,0,1.3,0c0.5,0,1-0.1,1.4-0.1c1.7,0,3.6,0.1,5.4,0.1c0.4,0,2.1-0.1,2.3,0.1
		c0.1,0.1,0.1,0.4,0.1,0.5C114.8,64.4,114.9,64.7,114.8,64.8 M114.7,62.9C114.7,62.9,114.7,62.9,114.7,62.9c0,0.1-0.2,0-0.3,0
		c-0.3,0-0.6,0-0.9,0c-0.3,0-0.8-0.1-1.1,0c-0.3,0-0.7-0.1-1,0c-0.2,0-0.3,0-0.5,0c-0.6,0-1.1-0.1-1.7-0.1c-0.6,0-1.3,0-1.9,0
		c-0.2,0-0.3,0-0.5,0.1c-0.2,0-0.5-0.1-0.7,0c-0.4,0-0.9,0-1.3,0c-0.2,0-0.5-0.1-0.7,0c-0.4,0-1.7,0-1.9-0.2
		c-0.1-0.1-0.1-0.2-0.1-0.4c0-0.2-0.1-0.6,0.1-0.7c0.2-0.1,0.6,0,0.9,0c0.3,0,0.6,0,0.9,0c0.3,0,0.6,0,0.9,0c0.3,0,0.5,0,0.8,0
		c1,0,2,0,2.9,0c0.2,0,0.4,0,0.6,0c0.8,0,1.7,0.1,2.5,0c0.3,0,0.6,0,0.8,0c0.3,0,1.6,0,1.8,0.2C114.6,61.9,114.7,62.7,114.7,62.9
		 M114.4,61L114.4,61c0,0.1-0.3,0.1-0.4,0.1c-0.7,0-1.4,0-2.1,0c-0.2,0-0.5-0.1-0.6,0c-0.3,0-0.5,0-0.8,0c-0.4,0-1.2-0.1-1.5,0
		c-0.3,0-0.7-0.1-0.9,0c-1.2,0-2.4,0-3.6,0c-0.3,0-0.6-0.1-0.9,0c-0.3,0-1.4,0-1.5-0.2c-0.1-0.1-0.1-0.3-0.1-0.4
		c0-0.2,0-0.6,0.2-0.6c0.2,0,0.4,0,0.6,0c0.8-0.1,1.5-0.1,2.3-0.1c1.1,0,2.2,0,3.2,0c0.6,0,1.5,0.2,2,0c0.6,0,3.5,0,3.7,0.2
		C114.5,60.2,114.4,60.7,114.4,61 M114,59c-0.1,0-0.1,0-0.2,0.1c-0.2,0-0.6,0-0.8,0c-0.3,0-0.7-0.1-1,0c-1.1,0-2.2,0-3.3,0
		c-0.4,0-0.8,0-1.3,0c-0.3,0-1.4-0.1-1.6,0c-0.8,0-1.6,0-2.4,0c-0.2,0-0.6,0-0.7,0c-0.2,0-0.3,0-0.5,0c-0.1,0-0.1,0-0.1-0.1
		c0-0.2-0.1-1,0.1-1.1c0.1-0.1,0.2-0.1,0.4-0.1c0.3,0,0.6,0,1,0c0.6,0,1.2,0,1.8,0c0.4,0,0.9,0,1.3-0.1c0.3,0,0.7,0,1,0
		c0.5,0,0.9,0,1.4,0c0.4,0,0.9,0,1.3,0c0.3,0,0.7,0,1,0c0.4,0,0.9,0.1,1.3,0c0.3,0,0.7,0,1,0.1C113.8,58.1,113.9,58.8,114,59
		 M113.5,57.1L113.5,57.1c0,0.1-0.4,0-0.5,0c0,0,0,0,0,0c-0.1,0-0.1,0-0.2,0c-0.2,0-0.4,0-0.5,0c-0.7,0-1.3,0-1.9-0.1
		c-0.2,0-0.5,0-0.7,0c-0.2,0-0.3,0-0.5,0c-0.6,0-1.2,0-1.7,0c-0.3,0-0.7-0.2-1,0c-0.3,0-0.9-0.1-1.1,0c-0.5,0-1,0-1.6,0
		c-0.4,0-1.3,0-1.6-0.1c-0.1,0-0.1-1-0.1-1.2h0c0-0.1,0,0,0,0c0.3,0,0.6,0,0.9-0.1c0.5,0,1,0,1.5,0c0.9,0,1.9,0,2.9,0
		c0.2,0,0.3,0,0.5,0c0.1,0,0.3,0,0.4-0.1c0.5,0,1,0,1.5,0c0.2,0,0.5,0,0.7,0c0.3,0,0.6,0,0.9,0c0.3,0,0.7,0.1,1,0
		c0.2,0,0.5,0,0.6,0.1C113.3,56.1,113.4,56.8,113.5,57.1 M112.6,54.1c0.2,0.1,0.5,1,0.2,1.1c-0.3,0.1-0.7,0-1.1,0
		c-0.9,0-1.8,0-2.7,0c-0.3,0-0.7-0.1-0.9,0c-0.2,0-0.5,0-0.7,0c-0.3,0-1.3-0.1-1.6,0c-0.3,0-0.6-0.1-0.8,0c-0.3,0-0.7-0.1-1,0
		c-0.7,0-1.2-0.1-1.9-0.1c0-0.2,0-1.1,0.1-1.2c0.3-0.2,1.6-0.1,2-0.1c0.7,0,1.3,0,1.9,0c0.4,0,0.9,0.1,1.3,0c0.3,0,0.7,0,1-0.1
		c0.3,0,0.6,0.1,0.9,0.1c0.7,0,1.4,0,2-0.1c0.1,0,0.3,0,0.4-0.1C112,53.9,112.4,53.9,112.6,54.1 M112.1,53c0.1,0.4,0.1,0.3-0.2,0.5
		c-0.7,0-1.4,0-2,0c-0.3,0-0.7-0.1-1,0c-0.4,0-0.8,0-1.2,0c-0.2,0-0.4-0.1-0.6,0c-0.2,0-0.6-0.1-0.8,0c-0.3,0-0.7,0-1,0
		c-0.2,0-0.4-0.1-0.5,0c-0.4,0-1.1-0.2-1.5,0c-0.4,0-0.8,0-1.1-0.1c-0.1,0-0.1,0-0.1-0.1c0-0.2,0-0.3,0-0.5c0-0.3-0.1-0.6,0.3-0.6
		c0.3,0,0.6,0,0.9,0c0.2,0,0.5,0,0.7,0c0.3,0,0.5,0,0.8,0c1,0,2-0.1,3.1-0.1c0.7,0,1.6,0.1,2.2-0.1c0.4,0.1,1.4-0.2,1.7,0.2
		C111.9,52.4,112,52.7,112.1,53 M110.9,50.2c0.1,0.1,0.6,1.1,0.4,1.3c-0.3,0.2-1.1-0.1-1.5,0.1c-0.2,0-0.5,0-0.6,0
		c-0.1,0-0.2,0-0.3,0c-0.2,0-0.5,0-0.7,0c-0.3,0-1-0.2-1.3-0.1c-0.2,0-0.3,0-0.5,0.1c-0.5,0-1.1,0-1.6,0c-0.2,0-0.5,0-0.7,0
		c-0.3,0-0.7-0.1-0.9,0c-0.3,0-0.8,0-1-0.1c-0.1-0.1-0.1-1-0.1-1.3h0c0-0.1,0.8-0.1,0.9-0.1c0.5,0,1.1,0,1.6,0
		c0.4,0,0.8,0.1,1.3,0.1c0.4,0,0.7-0.1,1.1-0.1c0.8,0,1.6,0,2.3,0c0.3,0,0.5,0,0.8,0C110.5,50.1,110.8,50.1,110.9,50.2 M110,48.2
		c0.2,0.1,0.5,0.9,0.5,1.1c0.2,0-0.3,0.2-0.3,0.2c-0.3,0-0.9-0.1-1.2,0c-0.3,0-0.9-0.1-1.1,0c-0.5,0-1-0.1-1.5,0c-0.1,0-0.2,0-0.3,0
		c-0.4,0-1.3-0.1-1.6,0c-0.4,0-2.2,0.1-2.4-0.1c-0.1,0,0-0.5,0-0.6c0-0.1,0-0.4,0.1-0.5c0.2-0.2,1.1-0.2,1.4-0.2c0.1,0,0.1,0,0.2,0
		c0.6,0.1,1.2,0,1.9,0.1c1.2,0,2.3,0,3.5,0C109.5,48.2,109.8,48,110,48.2 M109.5,47c0.1,0.2,0.1,0.3,0,0.5c-0.2,0-0.4,0-0.5,0
		c-0.3,0-0.8-0.1-1,0c-0.2,0-0.3,0-0.5,0c-0.3,0-0.9-0.2-1.2,0c-0.5,0-0.9,0-1.4,0c-0.1,0-0.3,0-0.4,0c-0.4,0-0.7,0-1.1,0
		c-0.2,0-0.4-0.1-0.6,0c-0.2,0-0.4,0-0.6-0.1c-0.1,0,0,0,0-0.1c0-0.2-0.1-1,0.1-1.2c0.2-0.1,0.5-0.1,0.7-0.1c0.4,0,0.8,0,1.3,0
		c0.2,0,0.5,0,0.7,0c1,0,2,0.1,3,0.1c0.3,0,0.9-0.1,1.1,0.1C109.3,46.4,109.4,46.8,109.5,47 M108.1,44.4c0.2,0.1,0.2,0.3,0.3,0.5
		c0.1,0.1,0.1,0.2,0.2,0.3c0.1,0.1,0.1,0.3,0.2,0.4v0c-0.1,0-0.2,0.1-0.3,0.1c-0.4,0-1.3-0.2-1.6-0.1c-0.1,0-0.2,0-0.3,0
		c-0.3,0-0.5,0-0.8,0c-0.7,0-1.4,0-2.2,0c-0.2,0-0.6-0.1-0.8,0c-0.2,0-0.4,0-0.5-0.1c-0.1-0.2-0.1-1-0.1-1.3c1.4,0,2.8,0.1,4.2,0.1
		C106.7,44.4,107.8,44.2,108.1,44.4 M106.7,42.4c0.2,0.1,0.7,1,0.8,1.3c-0.1,0-0.1,0-0.2,0.1c-0.3,0-1.1-0.1-1.3,0
		c-0.3,0-0.6,0-0.8,0c-0.4,0-0.9-0.2-1.2-0.1c-0.1,0-0.2,0-0.3,0c-0.5,0-1-0.1-1.6-0.1c0-0.4-0.2-1.1,0.1-1.3v0c1,0,1.9,0,2.9,0
		C105.7,42.3,106.3,42.2,106.7,42.4 M105,40.4c0.2,0,0.3,0,0.5,0c0.2,0.1,0.4,0.4,0.5,0.6c0.1,0.1,0.3,0.3,0.2,0.5
		c0,0.1-0.1,0.1-0.2,0.1c-0.7,0-1.4,0-2.2,0c-0.2,0-0.4,0-0.6,0c-0.2,0-0.7,0-0.9-0.1c-0.2-0.1-0.1-1-0.1-1.2
		C103.1,40.4,104.1,40.3,105,40.4 M104.6,39.7L104.6,39.7c-0.1,0.1-0.2,0.1-0.3,0.1c-0.3,0-2,0-2.1-0.1c-0.1-0.1-0.1-0.4-0.1-0.6
		c0-0.3,0-0.5,0.1-0.7c0.4,0,0.9,0,1.3,0.1C103.9,38.6,104.5,39.4,104.6,39.7 M102.1,36.5c0.2,0.1,1,0.9,0.9,1.1
		c-0.1,0.1-0.3,0.1-0.4,0.2c-0.1,0-0.3,0-0.4-0.1C102.1,37.5,102.1,36.7,102.1,36.5 M101,102.6c0.1-0.2,0.3-0.4,0.4-0.6
		c0.2-0.4,0.4-0.8,0.5-1.3c0.3,0,0.7,0,1,0v0h0C102.9,101.2,101.3,102.4,101,102.6C101,102.6,101,102.6,101,102.6 M32.6,37.8
		c0,0,0.7-0.9,0.8-1c0.2,0.1,0.2,0.9,0.1,1C33.3,38,32.8,38,32.6,37.8L32.6,37.8L32.6,37.8z M31,39.7c0-0.3,0.4-0.5,0.6-0.7
		c0.1-0.2,0.3-0.4,0.5-0.6c0.3,0,1.2,0,1.5,0.1c0.1,0,0,0,0,0.1c0,0.4,0,0.7,0,1.1h0c0,0.1,0,0,0,0c-0.3,0-0.8-0.1-1.1,0
		c-0.1,0-0.2,0-0.3,0C31.7,39.9,31.3,39.9,31,39.7L31,39.7C31,39.7,31,39.7,31,39.7 M29.7,41.1c0.1-0.2,0.2-0.4,0.4-0.5
		c0.1-0.1,0.3,0,0.5,0c0.5,0,1,0,1.6,0c0.3,0,0.6,0,0.8,0c0.2,0,0.3,0,0.5,0c0,0.1,0,0.2,0.1,0.3c0,0.3,0,0.6,0,0.9h0
		c0,0.1-0.4,0.1-0.4,0.1c-0.5,0-0.9,0-1.4-0.1c-0.2,0-0.4,0-0.5,0c-0.4,0-1-0.1-1.3,0c-0.2,0-0.3,0-0.5,0
		C29.4,41.5,29.6,41.3,29.7,41.1 M28.2,43.4c0.1-0.2,0.4-0.8,0.7-0.9c0.2-0.1,0.4-0.1,0.6-0.2c0.3,0,0.7,0,1,0
		c0.5,0,1.1,0.1,1.6,0.1c0.2,0,0.5,0,0.7-0.1c0.3,0,0.5,0.1,0.8,0.1c0,0.3,0.1,1-0.1,1.2c-0.1,0-0.2,0.1-0.2,0.1
		c-0.3,0-0.6,0-0.8,0.1c-0.2,0-0.4,0-0.6,0c-0.3,0-0.7-0.1-1,0c-0.1,0-0.2,0-0.3,0c-0.1,0-0.2,0-0.3,0c-0.2,0-0.5,0-0.7,0
		c-0.4,0-1,0.1-1.4-0.1C28,43.8,28.2,43.5,28.2,43.4 M27.5,44.4c0.3-0.1,1,0,1.4,0c0.7,0,1.3,0,1.9,0c0.4,0,0.8,0.1,1.2,0
		c0.2,0,0.4,0,0.6-0.1c0.3,0,0.5,0,0.8,0h0.2v0c0.1,0,0,0,0,0c0,0.2,0,1.2-0.1,1.3c-0.1,0.1-0.4,0.1-0.5,0.1c-0.3,0-0.6,0-0.9,0
		c-0.3,0-1.1-0.1-1.3,0c-0.4,0-0.8-0.1-1.1,0c-0.4,0-1.2-0.2-1.6,0c-0.2,0-0.5,0-0.6,0c-0.2,0-0.4,0-0.6,0
		C26.8,45.5,27.3,44.5,27.5,44.4 M25.9,47.4c0-0.2,0.3-0.8,0.5-1c0.1-0.1,0.2-0.1,0.3-0.2c0.7,0,1.4,0.1,2.1,0.1c0.9,0,1.8,0,2.7,0
		c0.5,0,1.6-0.1,1.9,0.1c0.2,0.1,0.2,0.4,0.2,0.6c0,0.2,0,0.6-0.2,0.7c-0.1,0-0.2,0-0.3,0c-0.3,0-0.8-0.1-1.1,0
		c-0.6,0-1.3,0-1.9-0.1c-0.3,0-0.9-0.1-1.1,0c-0.1,0-0.3,0-0.4,0c-0.6,0-1.1-0.1-1.6-0.1C26.6,47.5,26.2,47.6,25.9,47.4
		C25.9,47.5,25.9,47.4,25.9,47.4 M25.5,48.2c0.3,0,0.6,0.1,0.9,0.1c0.8,0,1.6-0.1,2.4-0.1c0.2,0,0.4,0,0.6,0c0.9,0,1.8,0,2.7,0
		c0.5,0,0.9,0.2,1.4,0.2c0,0.2,0,0.9-0.1,1.1c-0.2,0.2-1.9,0.1-2.2,0.1c-0.3,0-0.8-0.1-1,0c-0.3,0-0.7,0-1,0c-0.2,0-0.5-0.1-0.7,0
		c-0.8,0-1.7,0-2.6,0c-0.3,0-0.6-0.1-1-0.1C25,49,25.2,48.5,25.5,48.2 M24.4,50.7c0.1-0.1,0.1-0.3,0.2-0.4c0.1-0.1,0.2-0.1,0.3-0.2
		c0.6,0,1.1,0,1.6,0.1c0.3,0,0.6,0,0.9,0c0.7,0,1.6,0.1,2.3,0.1c0.5,0,1-0.1,1.4-0.1c0.8,0,1.6,0,2.4,0.1c0,0.1,0.1,0.2,0.1,0.4
		c0,0.3,0,0.7,0,1c-0.2,0-0.4,0-0.6,0c-0.7,0-1.5,0-2.2,0c-0.6,0-1.2,0-1.7-0.1c-0.4,0-1.1-0.1-1.4,0c-0.2,0-0.4,0-0.5,0.1
		c-0.4,0-0.8-0.1-1.2-0.1c-0.6,0-1.2,0-1.8,0v0h0C24,51.2,24.3,50.9,24.4,50.7 M23.3,53.3c0-0.3,0.2-1,0.5-1.2v0
		c0.8,0,1.6,0.1,2.4,0.1c0.7,0,1.5,0,2.2,0c0.2,0,0.5,0.1,0.7,0.1c0.3,0,0.6,0,0.9,0c0.2,0,0.5,0,0.7,0c0.6,0,1.2,0,1.9,0
		c0.3,0,0.6,0,0.8,0.1c0.1,0.1,0.1,0.9,0.1,1.1h0c0,0.1-0.2,0.1-0.3,0.1c-0.2,0-0.5,0-0.6,0c-0.4,0-1.1-0.2-1.4,0
		c-0.2,0-0.5-0.1-0.7,0c-0.2,0-0.4,0-0.5,0c-0.6,0-1.2-0.1-1.8-0.1c-0.2,0-0.4,0.1-0.7,0.1c-0.3,0-0.7,0-1,0c-0.2,0-0.3,0-0.5,0
		c-0.2,0-0.4,0-0.6,0C24.9,53.5,23.8,53.6,23.3,53.3C23.3,53.4,23.3,53.4,23.3,53.3 M22.9,54.1c0.1-0.1,0.3-0.1,0.5-0.2
		c0.5,0,1,0.1,1.6,0.1c0.6,0,1.1,0,1.6,0c0.2,0,0.4,0,0.6-0.1c0.3,0,0.6,0.1,1,0.1c0.4,0,0.8,0,1.1,0c0.5,0,1,0.1,1.5,0.1
		c0.9,0,1.9,0,2.8,0c0,0.2,0.1,0.9,0,1.1c-0.1,0-0.2,0.1-0.3,0.1c-0.4,0-0.9-0.1-1.3,0.1c-0.3,0-0.5-0.1-0.8-0.1c-0.3,0-0.6,0-0.9,0
		c-0.1,0-0.3,0-0.4,0c-0.3,0-0.7,0-1-0.1c-0.1,0-0.3,0-0.4-0.1c-1,0-2-0.1-3-0.1c-0.4,0-1-0.1-1.3,0c-0.3,0-1.2,0-1.4-0.1
		C22.5,55.1,22.8,54.2,22.9,54.1 M22.4,56c0.1-0.1,0.3-0.1,0.4-0.1c0.2,0,0.4,0.1,0.6,0.1c0.2,0,0.5,0,0.7,0c0.3,0,0.6,0,0.9,0
		c0.4,0,0.7,0,1.1-0.1c0.8,0,1.7,0.1,2.5,0.1c0.9,0,1.9,0,2.9,0c0.4,0,1.8,0,2,0.2c0.1,0.1,0.1,0.4,0.1,0.5c0,0.3,0,0.5-0.2,0.6
		c-0.3,0-0.7,0-1,0c-0.2,0-0.5-0.1-0.7,0c-0.8,0-1.7,0-2.5,0c-0.3,0-0.7-0.2-1,0c-1,0-2,0-3-0.1c-0.3,0-1-0.1-1.2,0
		c-0.1,0-0.2,0-0.3,0c-0.6,0-1.1-0.1-1.7-0.2C22,56.9,22.2,56.1,22.4,56 M21.7,58c0.1-0.1,0.2-0.1,0.3-0.2c1,0,1.9,0.1,2.9,0.1H26
		c0.2,0,0.4-0.1,0.7-0.1c1.3,0,2.6,0.1,3.9,0.1c0.4,0,0.8,0,1.2,0c0.4,0,1.2-0.1,1.5,0.1c0.2,0.1,0.1,0.9,0.1,1.2
		c-0.2,0-0.4,0-0.6,0c-0.3,0-0.6,0-0.8,0c-0.8,0-1.5,0-2.2,0c-0.2,0-0.6-0.1-0.8,0c-1.6,0-3.2-0.1-4.8-0.1c-0.7,0-1.4,0-2,0
		c-0.3,0-0.5,0-0.7-0.1C21.5,58.8,21.6,58.2,21.7,58 M21,60.9c0-0.3,0-0.9,0.3-1c0.3-0.1,0.7-0.1,1.1-0.1c0.5,0,1.1,0,1.6,0
		c0.2,0,0.3,0,0.5,0c1.2,0.1,2.7,0.1,4,0.1c0.4,0,0.7,0,1.1,0c0.6,0,1.1,0,1.7,0c0.3,0,0.5,0,0.8,0c0.5,0,1.1-0.1,1.4,0.2
		c0.1,0.1,0.1,0.8,0.1,1h0c0,0.1-0.5,0-0.6,0c-0.6,0-1.3,0-1.9,0c-0.3,0-0.7-0.1-1,0c-0.2,0-0.7-0.1-0.9,0c-0.4,0-0.8-0.1-1.2,0
		c-0.7,0-1.4-0.1-2.2-0.1c-0.2,0-0.5,0-0.6,0c-0.4,0-1.1-0.2-1.4,0c-0.9,0-1.8,0-2.7,0v0C21,61,21,61,21,60.9 M20.7,62.6
		c0.2-0.9,0.1-1,1.1-1c0.2,0,0.4,0,0.6,0c0.3,0.1,0.6,0,0.9,0.1c0.6,0,1.2,0.1,1.7,0.1c0.3,0,0.6,0,0.9,0c2.6,0,5.2,0,7.6,0.1
		c0,0.4,0,0.8-0.1,1.1c0,0.2-0.9,0-1,0.1c-1.2,0-2.5,0-3.7,0c-0.5,0-1.4-0.2-1.9,0c-0.2,0-0.5-0.1-0.7,0c-0.1,0-0.2,0-0.3,0
		c-0.5,0-1.1,0-1.6,0c-0.6,0-1.2-0.1-1.8-0.1c-0.2,0-0.3,0-0.5,0c-0.4,0-0.8,0.1-1.1-0.1C20.6,62.8,20.6,62.7,20.7,62.6 M20.9,63.6
		c0.7-0.1,1.4,0,2,0c0.3,0,0.6,0,1,0c0.8,0,1.6,0,2.4,0c0.5,0,0.9,0,1.4,0c0.2,0,0.4,0,0.6,0c0.3,0,0.7,0.1,1,0.1c1.3,0,2.7,0,4,0
		c0,0.4,0,0.9,0,1.3h0c0,0,0,0,0,0c-0.1,0-0.2,0-0.3,0c-0.2,0-0.5,0-0.7,0c-0.2,0-0.5-0.1-0.7,0c-0.4,0-0.8-0.1-1.1,0
		c-0.6,0-1.1-0.1-1.7-0.1c-0.2,0-0.4,0-0.7,0c-0.2,0-0.6-0.1-0.8,0c-0.3,0-0.8-0.1-1,0c-0.4,0-0.8,0-1.3,0c-0.2,0-0.5,0-0.7,0
		c-0.5,0-1,0-1.5,0c-0.2,0-0.5-0.1-0.7,0c-0.5,0-1.1,0.1-1.5-0.1c-0.1,0-0.1,0-0.1-0.1C20.5,64.4,20.5,63.6,20.9,63.6 M20.6,65.5
		c0.2,0,0.4,0,0.7,0c0.2,0,0.4,0,0.6,0c0.2,0.1,0.5,0,0.7,0c0.6,0,1.1,0,1.6,0c0.4,0,0.8,0,1.3,0c0.6,0,1.1,0,1.6,0c1,0,2,0.1,3,0.1
		c0.6,0,2.9-0.1,3.2,0.1c0.2,0.2,0.2,0.9,0.2,1.3c-0.2,0-0.4,0.1-0.6,0.1c-0.3,0-0.6,0-0.9,0c-0.2,0-0.5-0.1-0.7,0
		c-0.6,0-1.3,0-1.9-0.1c-0.2,0-0.5,0-0.6,0c-0.6,0-1.2,0-1.7-0.1c-0.9,0-1.8,0-2.6,0c-0.3,0-1-0.1-1.2,0c-0.3,0-0.7-0.1-1,0
		c-0.6,0-1.2-0.1-1.8-0.2C20.4,66.4,20.3,65.6,20.6,65.5 M20.3,67.4c1.8,0,3.6,0.1,5.3,0.2c0.2,0,0.4,0,0.6,0c0.5,0,1.1,0.1,1.6,0.1
		c0.2,0,0.4,0,0.6-0.1c0.5,0,1,0,1.6,0c0.4,0,3.1,0.1,3.3,0.2c0.1,0.1,0.1,0.4,0.1,0.5c0,1-0.5,0.3-1,0.6c-1.5,0-2.9-0.1-4.3-0.1
		c-0.3,0-1.1-0.1-1.3,0c-1.7,0-3.4,0-5.1,0c-0.4,0-0.8-0.1-1.3-0.1c0-0.1-0.1-0.3-0.1-0.4C20.2,68,20.3,67.6,20.3,67.4 M20.4,69.4
		c0.1-0.1,0.2-0.1,0.3-0.1c1.3,0,2.7,0.1,3.9,0.1c0.3,0,0.7,0,1,0c1.1,0,2.2,0,3.3,0c0.2,0,0.4,0,0.7,0c0.2,0,0.3,0,0.5,0.1
		c0.8,0,1.5,0,2.2,0c0.2,0,0.6-0.1,0.8,0.1c0.2,0.1,0.1,1,0.1,1.3h0c0,0.1-0.8,0-1,0c-0.6,0-1.3,0-1.9,0c-0.3,0-0.6,0-0.8,0
		c-0.3,0-0.6-0.1-0.9,0c-1,0-1.9-0.1-2.8,0c-0.2,0-0.3,0-0.5,0c-0.9,0-1.7,0-2.6-0.1c-0.3,0-0.6-0.1-0.9,0c-0.1,0-0.3,0-0.4,0
		c-0.4,0-0.8,0-1.1-0.2C20.2,70.5,20.2,69.6,20.4,69.4 M20.4,71.4c0.3,0,0.6-0.1,0.9-0.1c0.5,0,1.4,0.1,1.7,0c0.2,0,0.4,0,0.6,0
		c0.1,0,0.3,0,0.4,0.1c0.4,0,0.7,0,1.1,0c0.3,0,0.5-0.1,0.9-0.1c0.3,0,0.5,0,0.8,0c0.2,0,0.4,0.1,0.7,0.1c2,0,3.8,0,5.8,0.1v0
		c0.1,0,0,0,0,0.1c0,0.4,0.1,0.8-0.1,1.1c0,0.1,0,0.1,0,0.1c-0.2,0-0.5,0-0.7,0c-0.4,0-0.8,0-1.2,0c-0.2,0-0.4,0-0.6,0
		c-0.3,0-0.6,0-0.9,0c-0.3,0-0.6-0.1-0.9,0c-0.3,0-0.8-0.1-1.1,0c-1.7,0-3.5,0-5.2,0c-0.3,0-0.6,0-1,0c-0.2,0-0.3-0.1-0.5-0.1
		c-0.2,0-0.4,0-0.5-0.1C20.4,72.5,20.3,71.7,20.4,71.4 M20.5,73.6L20.5,73.6c0-0.1,0.2-0.1,0.3-0.1c0.2,0,0.4-0.1,0.6-0.1
		c0.6,0,1.4,0.1,1.9-0.1c0.3,0.1,0.8,0,1.1,0c0.4,0,0.8,0.1,1.2,0.1c0.3,0,0.5,0,0.8,0c0.1,0,0.3,0,0.4,0c0.9,0,1.8,0,2.6,0
		c0.2,0,0.5,0,0.7,0.1c0.2,0,0.5,0,0.7-0.1c0.2,0,0.5,0,0.7,0.1c0.4,0,1.1-0.1,1.5,0c0.1,0,0.1,0.1,0.1,0.2c0,0.3,0.1,0.6,0,0.9
		c-0.1,0.2-1.4,0-1.7,0.1c-0.4,0-1.1-0.1-1.4,0c-0.3,0-1.1-0.1-1.3,0c-0.3,0-0.5,0-0.8-0.1c-0.6,0-1.2,0-1.9,0c-0.3,0-0.7-0.1-1,0
		c-0.4,0-1.1-0.1-1.4,0c-0.5,0-0.9-0.1-1.4-0.1c-0.1,0-0.2,0-0.3,0c-0.2,0-0.4,0-0.6,0C20.6,74.7,20.5,74.5,20.5,73.6 M20.8,75.9
		c0-0.2-0.1-0.5,0.1-0.5c0.3-0.1,0.9-0.1,1.3,0c1.1,0,2.4,0,3.5,0c0.3,0,0.7,0,1-0.1c0.4,0,0.7,0,1.1,0c0.1,0,0.3,0,0.4,0.1
		c0.5,0,1.1,0,1.6,0c0.2,0,0.4,0,0.6,0c0.6,0,1.3,0,2,0c0.3,0,0.7,0,0.9,0.1c0.2,0,0.1,1,0,1.2c-0.2,0-0.5-0.1-0.7,0
		c-0.2,0-0.6-0.1-0.8,0c-0.5,0-1,0-1.5,0c-0.2,0-0.5,0-0.7,0c-0.2,0-1.2-0.1-1.3,0c-0.3,0-0.7-0.1-0.9,0c-0.2,0-0.5-0.1-0.7,0
		c-0.8,0-1.5-0.1-2.3-0.1c-0.2,0-0.5,0-0.7,0c-0.3,0-1-0.1-1.2,0c-0.3,0-1.3-0.1-1.5-0.2C20.8,76.3,20.8,76.1,20.8,75.9 M21.1,77.3
		L21.1,77.3C21.1,77.3,21.1,77.3,21.1,77.3c0.9-0.1,1.8-0.1,2.7-0.1c0.5,0,1.1,0.1,1.5,0c0.7,0,1.4,0.1,2.1,0.1c0.3,0,0.7,0,1,0
		c0.4,0,0.8,0.1,1.3,0.1c0.2,0,0.4-0.1,0.6-0.1c0.4,0,0.8,0,1.2,0c0.1,0,0.3,0,0.4,0c0.4,0,1-0.1,1.4,0.1c0.1,0,0,0,0,0.1
		c0,0.3,0,0.7,0,1h0c0,0.1-0.7,0-0.9,0.1c-0.5,0-1.1,0-1.6,0c-0.3,0-0.6,0-0.8,0.1c-0.2,0-0.4-0.1-0.6,0c-0.5,0-1.9-0.1-2.2,0.1
		c-0.4,0-0.7-0.1-1.1-0.1c-1.4,0-2.8,0-4.1-0.1c-0.2,0-0.6,0.1-0.8-0.1C21,78.3,21.1,77.6,21.1,77.3 M21.6,80.5
		c-0.1-0.1-0.2-0.4-0.2-0.5c0-0.1-0.1-0.4-0.1-0.6c0-0.1,0-0.1,0.1-0.1c0.3-0.1,0.6,0,0.9-0.1c0.8,0,1.6,0,2.5,0c0.3,0,0.7,0,1,0
		c1.8,0.1,3.7,0.1,5.6,0.1c0.4,0,1.6-0.1,1.8,0.1c0.1,0.1,0,0.9,0,1c-0.1,0-0.1,0-0.2,0c-0.1,0-0.2,0-0.3,0c-0.4,0-1-0.1-1.3,0
		c-0.3,0-0.6,0-0.9,0c-0.1,0-0.2,0-0.3,0c-0.4,0-1.3-0.1-1.6,0.1c-0.3,0-0.5,0-0.8,0c-0.4,0-1.2-0.2-1.6-0.1c-0.4,0-1.1-0.2-1.5,0
		c-0.4,0-1.3-0.1-1.6,0C22.7,80.6,21.8,80.6,21.6,80.5 M22.1,82.3c-0.2-0.2-0.3-0.9-0.4-1.2c0.3,0,0.6,0,0.8-0.1
		c0.6,0,1.3,0,1.9,0.1c0.2,0,0.4,0.1,0.6,0.1c0.5,0,1.1,0,1.6,0c0.4,0,0.9-0.1,1.3-0.1c0.3,0,0.6,0,1,0.1c0.2,0,0.5,0,0.7,0
		c0.5,0,1.1,0,1.6,0c0.4,0,1.7-0.1,2,0.1c0.1,0.1,0.1,0.4,0.1,0.5c0,0.1,0,0.4-0.1,0.5c-0.2,0.2-0.7,0-0.9,0.1c-0.2,0-0.4,0-0.5,0
		c-0.2,0-0.6-0.1-0.8,0c-0.6,0-1.2,0-1.8,0c-0.3,0-0.7-0.1-1,0c-0.3,0-0.7,0-1,0c-0.4,0-1.1-0.1-1.4,0c-0.5,0-0.9-0.1-1.3-0.1
		C24,82.4,22.4,82.5,22.1,82.3 M22.4,83.6c0-0.1-0.1-0.3-0.1-0.4c0.1-0.2,1.2-0.1,1.4-0.2c0.4,0,0.8,0,1.1,0c0.7,0,1.5,0,2.2,0
		c0.2,0,0.4,0.1,0.6,0.1c0.4,0,0.9,0,1.3,0c0.3,0,0.6,0,0.9,0c0.3,0,0.5-0.1,0.8-0.1c0.6,0,1.1,0,1.7,0c0.3,0,0.6,0,0.8,0v0.1
		c0.1,0,0,0,0,0.1c0,0.2,0,1-0.1,1.1c-0.1,0-0.3,0-0.4,0.1c-0.5,0-1,0-1.6,0c-0.3,0-0.6,0-0.8,0c-0.6,0-1.2,0-1.9-0.1
		c-0.2,0-0.6-0.1-0.8,0c-0.5,0-0.9,0-1.3,0c-0.3,0-1.3-0.2-1.6,0c-0.3,0-0.6-0.1-0.9-0.1c-0.3,0-1,0-1.2-0.1
		C22.5,84,22.5,83.7,22.4,83.6 M23.4,86.2c-0.1-0.1-0.6-1-0.4-1.2c0.4-0.3,1.5,0,2.1-0.2c0.6,0,1.2,0.1,1.8,0.1c0.4,0,0.9,0,1.3,0
		c0.2,0,0.4,0,0.6,0.1c1.1,0,2.1,0,3.2,0c0.3,0,0.8,0,1,0.1c0.2,0.1,0.1,0.9,0,1.1c-0.1,0.3-2.7-0.1-3.2,0.1c-0.5,0-1-0.1-1.5-0.1
		c-0.6,0-1.2,0-1.8,0c-0.3,0-0.7-0.1-1-0.1c-0.2,0-0.4,0-0.6,0c-0.2,0-0.5-0.1-0.7,0c-0.1,0-0.3,0-0.4,0
		C23.8,86.3,23.6,86.3,23.4,86.2 M24.2,88.2c0-0.1-0.1-0.2-0.1-0.3c-0.1-0.2-0.3-0.6-0.2-0.8c0.1,0,0.1-0.1,0.2-0.1
		c0.5,0,1,0,1.5,0.1h1c0.2,0,0.4,0,0.6,0c0.2,0,0.4,0,0.6-0.1c0.4,0,0.9,0,1.3,0c0.7,0,1.4-0.1,2.1,0c0.6,0,1.2,0.1,1.9,0.1
		c0,0.2,0,1.1-0.1,1.2c0,0-0.1,0-0.1,0c-0.6,0-1.1,0-1.7,0h-1.7c-0.3,0-0.5-0.1-0.8-0.1c-0.5,0-1,0-1.5,0c-0.3,0-0.8-0.1-1,0
		C25.6,88.2,24.9,88.2,24.2,88.2 M25.1,90.1c-0.2-0.1-0.4-0.8-0.5-1.1h0v0c0.3,0,0.6,0,0.9,0c0.3,0,0.5,0,0.8,0c0.5,0,1,0,1.6,0
		c0.2,0,0.4,0,0.6,0c0.2,0,0.4,0,0.7,0c0.6,0,1.1,0.1,1.6,0.1c0.2,0,0.5,0,0.7,0c0.6,0,1.1,0.2,1.6,0.2c0,0.4,0,0.7-0.1,1.1h0
		c0,0.1-0.2,0.1-0.3,0.1c-1.6,0-3.3,0-4.9-0.1c-0.2,0-0.4,0-0.6-0.1c-0.3,0-0.6,0-0.9,0c-0.2,0-0.4,0-0.6,0
		C25.5,90.2,25.3,90.3,25.1,90.1 M25.4,90.8c0.1,0,0.2-0.1,0.2-0.1c0.6,0.1,1.2,0.1,1.9,0.2c0.2,0,0.3,0,0.5,0c0.2,0,0.3,0,0.5,0.1
		c0.3,0,0.7,0,1,0c0.4,0,0.7-0.1,1.1-0.1c0.3,0,0.6,0.1,0.8,0.1c0.5,0,1.2-0.1,1.6,0.1c0.1,0.1,0.1,0.8,0.1,1h0c0,0.1-1,0-1.2,0.1
		c-0.2,0-0.4,0-0.5,0c-0.6,0-1.3,0-1.9,0c-0.2,0-0.4-0.1-0.6-0.1c-0.3,0-0.6,0-1,0c-0.2,0-0.4,0-0.6,0c-0.2,0-0.5,0-0.6,0
		c-0.2,0-0.4,0-0.5-0.1C25.8,92,25.5,91.2,25.4,90.8 M27.9,94.4c-0.2,0-0.3,0-0.4-0.1c-0.1-0.1-0.2-0.3-0.3-0.4
		c-0.2-0.3-0.5-0.6-0.6-1.1c0.4,0,0.7,0.1,1.1,0.1c0.3,0,0.6,0,0.9,0c0.5,0,1.1,0.1,1.6,0c0.3,0,0.5,0,0.8-0.1c0.6,0,1.2,0.1,1.7,0
		c0.1,0,0.2,0.1,0.3,0.1c0.2,0.1,0.1,1,0.1,1.2c0,0.1-0.1,0.1-0.2,0.1c-0.4,0-0.9,0-1.3,0c-0.2,0-0.4,0-0.6,0c-0.3,0-0.8-0.1-1,0
		c-0.4,0-1.2-0.1-1.5,0.1C28.3,94.4,28,94.3,27.9,94.4 M28.7,96.1c-0.2-0.1-0.8-0.9-0.7-1.1c0.1-0.2,1.1-0.1,1.4-0.2
		c1.3,0,2.4,0,3.7,0c0,0.3,0,0.7,0,1c0,0-0.5,0.1-0.6,0.1c-0.2,0-0.4,0-0.6,0.1c-0.2,0-0.5,0-0.7-0.1c-0.3,0-0.5,0-0.7,0.1
		c-0.1,0-0.3,0-0.4,0c-0.2,0-0.4,0-0.5,0.1C29.3,96.2,28.9,96.2,28.7,96.1 M29.1,96.8L29.1,96.8L29.1,96.8c0.2,0,0.3,0,0.4,0
		c0.3,0,0.6,0,0.8-0.1c0.4,0,0.8,0,1.1-0.1c0.4,0,1.3-0.1,1.6,0.1c0,0,0,0,0,0c0,0.3,0.1,0.9,0,1.1C33,98,32.9,98,32.8,98
		c-0.2,0-0.3,0-0.5,0c-0.2,0-0.8-0.1-0.9-0.1c-0.1,0-0.2,0-0.3,0c-0.4,0-0.7,0.1-1.1,0C29.8,97.9,29.1,97.1,29.1,96.8 M31.6,100
		c-0.2-0.1-1.1-1-1.1-1.2c0-0.1,0-0.1,0.1-0.2c0.3,0,0.5,0,0.8,0c0.4,0,1.5-0.1,1.7,0.1c0.2,0.1,0.2,1,0.1,1.2
		c0,0.1-0.1,0.1-0.2,0.1C32.6,100,32,100.1,31.6,100 M33.4,102L33.4,102c-0.3,0-1.1-1-1.3-1.3v0h0c0-0.1,0.3-0.1,0.3-0.1
		c0.2,0,0.5,0,0.7,0.1C33.4,100.8,33.5,101.7,33.4,102L33.4,102z M94.2,108.3c-0.4,0-1.2,0.1-1.5-0.1h-0.1v0
		c0.2-0.1,0.4-0.2,0.5-0.2c0.7-0.2,1.5-0.4,2.1-0.8C95.6,107.5,94.4,108.2,94.2,108.3 M57.8,22.9c0.5,0,0.8-0.2,1.2-0.3
		c0.7-0.1,1.4-0.3,2-0.4c0.4-0.1,0.9,0,1.4-0.1c0.7,0,1.3-0.2,2-0.3c0.3,0,0.5-0.1,0.8-0.1c0.3,0,0.6,0,0.9-0.1c0.6,0,1.3,0,1.9,0
		c0.4,0,0.8,0.1,1.2,0.1c0.3,0,0.6,0.1,0.9,0.1c0.4,0,0.9,0,1.3,0c0.2,0,0.4,0.1,0.6,0.1c0.3,0,0.6,0,0.9,0c0.4,0.1,0.7,0.1,1.1,0.2
		c0.1,0,0.3,0,0.4,0c0.2,0,0.3,0.1,0.4,0.2c0.2,0.1,0.4,0.1,0.6,0.1c0.8,0.1,1.7,0.1,2.5,0.3c0,0,0.1,0,0.1,0.1
		c-0.1,0.1-1.4,0-1.6,0c-0.2,0-0.4,0-0.6,0.1c-0.4,0-0.8-0.1-1.2-0.1c-0.1,0-0.3,0-0.4,0c-0.2,0-0.5-0.1-0.7,0c-0.2,0-0.4,0-0.6,0.1
		c-0.5,0-1.3-0.2-1.7,0c-0.5,0-1-0.1-1.5-0.1c-0.2,0-0.6-0.1-0.8,0c-0.2,0-0.4,0.1-0.7,0.1c-0.3,0-0.5-0.1-0.8,0
		c-0.2,0-0.3,0-0.4,0.1c-1.1,0-2.3,0-3.4,0c-0.2,0-0.4-0.1-0.7-0.1c-0.5,0-1,0-1.6,0c-0.3,0-1.2-0.1-1.4,0
		C59.4,23,58.6,23,57.8,22.9L57.8,22.9z M51.5,24.8c0.2,0,0.5-0.3,0.7-0.3c0.2-0.1,0.4-0.1,0.5-0.2c0.1-0.1,0.3-0.2,0.4-0.2
		c0.5-0.2,1.1-0.4,1.7-0.5c0.4-0.1,0.8,0,1.2,0c0.5,0,1,0,1.5,0c0.3,0,0.6,0,0.9,0c0.4,0,0.9,0,1.3,0c0.6,0,1.2,0,1.8,0.1
		c2,0.1,4.2,0.1,6.3,0.1c0.3,0,0.7,0,1-0.1c0.5,0,1,0,1.5,0c2.4,0,4.9-0.1,7.3,0c0.8,0,1.6,0,2.4,0c0.3,0,0.7,0,1,0
		c0.7,0.1,1.2,0.6,1.9,0.8c0.4,0.1,1.3,0.2,1.6,0.5c-0.1,0-0.1,0-0.2,0c-0.1,0-0.2,0-0.3,0c-0.3,0-0.7,0-1,0c-0.3,0-0.6-0.1-0.9-0.1
		c-0.3,0-0.6,0-0.9,0c-0.2,0-0.4,0-0.6,0c-0.3,0-0.8-0.1-1,0c-0.2,0-0.5,0-0.6,0c-0.3,0-0.7-0.1-1,0c-0.5,0-1.7-0.1-2,0.1
		c-0.2,0-0.5-0.1-0.7,0c-0.3,0-0.5-0.1-0.8-0.1c-0.3,0-0.6,0-1,0c-0.2,0-0.5,0-0.6,0c-0.3,0-0.6,0-0.8,0c-0.3,0-0.6-0.1-0.9,0
		c-0.8,0-1.5-0.1-2.2-0.1c-0.2,0-0.6,0-0.7,0c-0.2,0-0.3,0-0.5,0c-0.1,0-0.3,0-0.4,0c-0.7,0-1.4-0.1-2-0.1c-0.7,0-1.5,0-2.2,0
		c-0.3,0-0.9-0.1-1.1,0c-0.6,0-1.2,0-1.8,0c-0.2,0-0.5,0-0.7,0c-0.1,0-0.2,0-0.3,0c-0.8,0-1.6,0-2.4,0c-0.1,0-0.3,0-0.4-0.1
		c-0.3,0-0.6,0-0.9,0c-0.2,0-0.4-0.1-0.6,0C53.8,25,52.7,24.9,51.5,24.8L51.5,24.8z M48.1,26.2c0.1-0.1,0.3-0.2,0.4-0.3
		c1.1-0.7,2.6-0.3,3.9-0.3c0.7,0,1.5,0,2.2,0c0.2,0,0.5,0,0.7,0c0.4,0,0.8,0,1.3,0c1.6,0,3.2,0.1,4.8,0c0.3,0,0.6,0,0.9-0.1
		c0.4,0,0.8,0,1.3,0c0.1,0,0.3,0,0.4,0c0.2,0,0.3,0,0.5,0.1c0.2,0,0.4,0,0.6-0.1c0.8,0,1.5,0.2,2.3,0.1c0.4,0,0.8-0.1,1.2-0.1
		c1,0,2,0.1,3,0.1c0.5,0,1-0.1,1.5-0.1c0.8,0,1.6,0,2.4,0c0.4,0,0.8-0.1,1.3-0.1c1.8,0,3.6,0,5.4,0c0.3,0,0.6,0.1,0.9,0.1
		c0.4,0,0.8-0.1,1.2-0.1c0.5,0,1.4,0.1,1.8,0c0.6,0.1,1.1,0.4,1.6,0.6c0.5,0.2,1.1,0.3,1.5,0.6c0.1,0,0,0,0,0.1c-0.1,0-0.1,0-0.2,0
		c-0.3,0-0.5,0-0.8,0c-0.3,0-0.8-0.1-1,0.1c-0.1,0-0.3,0-0.4,0c-0.4,0-1.4-0.1-1.7,0c-0.2,0-0.5,0-0.6,0c-0.4,0-0.8,0-1.2-0.1
		c-0.3,0-0.7-0.2-1-0.1c-0.3,0-0.8-0.1-1,0c-0.5,0-1,0-1.5,0c-0.4,0-1.4-0.1-1.7,0c-0.1,0-0.2,0-0.3,0c-0.4,0-0.8,0-1.1,0
		c-0.2,0-0.4-0.1-0.5,0c-0.3,0-0.9-0.1-1.1,0c-0.3,0-0.7-0.1-1,0c-0.2,0-0.5,0-0.6,0c-0.5,0-1.1,0-1.6,0c-0.2,0-0.5,0-0.7,0
		c-0.6,0-1.2,0-1.8-0.1c-0.2,0-0.5,0-0.7,0c-0.5,0-1,0-1.5-0.1c-0.6,0-1.2,0-1.7,0c-0.2,0-0.3,0-0.5-0.1c-0.5,0-1,0-1.5,0
		c-0.2,0-0.5,0-0.7,0c-0.1,0-0.2,0-0.3,0c-0.2,0-0.4,0-0.5,0c-1.9,0-3.8-0.1-5.7-0.2c-0.3,0-0.5,0-0.8,0c-0.2,0-0.5-0.1-0.7,0
		c-0.3,0-0.8-0.1-1.1,0c-0.8,0-1.6,0-2.4-0.1c-0.3,0-1.2-0.1-1.5,0c-0.3,0-1-0.1-1.2,0c-0.1,0-0.2,0-0.3,0c-0.4,0-0.8-0.1-1.3-0.1
		C46.9,26.7,47.9,26.3,48.1,26.2 M43.7,28.7L43.7,28.7c0-0.1,0.3-0.2,0.4-0.3c0.2-0.2,0.4-0.3,0.6-0.4c0.2-0.1,0.4-0.3,0.7-0.4
		c0.7-0.2,1.7-0.1,2.5-0.1c0.7,0,1.5,0,2.2,0c0.6,0,1.2,0,1.7,0c0.2,0,0.4,0,0.6,0c1.1-0.1,2.5,0,3.6,0c0.6,0,1.2-0.1,1.8,0
		c0.7,0,1.5,0.2,2.2,0.2c0.4,0,0.9,0,1.3,0c0.6,0,1.2-0.2,1.8-0.2c1.3,0,2.6,0.1,3.8,0.1c0.2,0,0.3,0,0.5,0c0.2,0,0.4,0,0.6,0.1
		c0.3,0,0.7,0,1-0.1c0.4,0,0.8,0,1.2,0c0.4,0,0.8,0,1.3-0.1c0.8,0,1.7,0.1,2.6,0.1c0.4,0,0.7-0.1,1.1-0.1c0.3,0,0.5,0,0.8,0
		c0.1,0,0.2,0,0.3,0c0.2,0,0.4,0.1,0.7,0.1c0.3,0,0.7,0,1-0.1c0.4,0,0.9,0.1,1.4,0c0.3,0,0.6-0.1,1-0.1c0.5,0,1,0,1.5,0
		c0.2,0,0.5,0,0.7,0c1,0.1,1.9,0,2.9,0.1c0.4,0,0.8,0.1,1.3,0c0.9,0,1.8-0.1,2.7-0.1c0.4,0,0.9,0,1.3,0.1c0.2,0,0.3,0.2,0.4,0.3
		c0.4,0.3,0.8,0.5,1.2,0.7c0,0.2-0.6,0.2-0.8,0.3c-0.2,0-0.5,0-0.7,0c-0.2,0-0.5,0-0.7,0c-0.3,0-0.5,0-0.8,0c-0.1,0-0.3,0-0.4-0.1
		c-0.6,0-1.3,0-1.8,0c-0.2,0-0.4,0-0.6,0c-0.2,0-0.5,0-0.7,0c-0.1,0-0.2,0-0.3,0c-1.5,0-2.9-0.1-4.4-0.1c-0.4,0-0.9-0.2-1.3,0
		c-0.3,0-0.5,0-0.8,0c-0.3,0-1-0.1-1.3,0c-0.2,0-0.5,0-0.6,0c-0.3,0-0.9-0.1-1.1,0c-0.3,0-0.6,0-0.9,0c-0.3,0-0.6-0.1-0.9,0
		c-0.1,0-0.2,0-0.3,0c-0.6,0-1.3,0-1.9,0c-0.3,0-0.6-0.1-0.8,0c-0.4,0-1.1-0.1-1.4,0c-0.2,0-0.3,0-0.5,0c-0.3,0-0.7-0.1-1,0
		c-0.2,0-0.5,0-0.6,0c-1,0-2,0-2.9,0c-0.5,0-1.4-0.2-1.8,0c-0.1,0-0.2,0-0.3,0c-0.4,0-0.7-0.1-1.1-0.1c-0.9,0-1.9,0-2.8,0
		c-0.3,0-0.6-0.1-0.9-0.1c-0.6,0-1.2,0-1.9,0c-0.1,0-0.3,0-0.4,0.1c-0.9,0-1.8,0-2.8,0c-0.5,0-1,0-1.5,0c-0.4,0-1-0.2-1.3,0
		c-0.1,0-0.4,0-0.5,0c-0.2,0-0.4,0-0.6,0c-0.5,0-0.9,0-1.3,0c-0.2,0-0.4,0-0.6,0c-0.2,0-0.3,0.1-0.5,0.1c-0.5,0-1-0.1-1.6-0.1
		C44.5,28.8,44.1,28.9,43.7,28.7L43.7,28.7C43.7,28.8,43.7,28.8,43.7,28.7 M40.9,30.6c0.1,0,0.3-0.2,0.3-0.3
		c0.4-0.3,0.9-0.6,1.3-0.8c0.3-0.1,0.7-0.1,1-0.1c0.4,0,0.8,0.1,1.2,0.1c0.8,0,1.5,0,2.3,0.1c0.4,0,0.8,0,1.2-0.1c0.4,0,0.8,0,1.2,0
		c0.3,0,0.6,0,0.9,0c0.5,0,1,0.1,1.6,0.1c0.8,0,1.6-0.1,2.3-0.1c0.2,0,0.4,0,0.6,0c0.6,0,1.2,0,1.8,0c1.1,0,2.3,0,3.4,0
		c0.8,0,1.7,0,2.6,0.1c0.6,0,1.2,0,1.8,0c0.2,0,0.5,0,0.7,0c0.5,0,1,0.1,1.4,0.1c0.7,0,1.3-0.1,2-0.1c0.5,0,1,0.1,1.6,0.1
		c0.5,0,1.1,0,1.6,0c0.2,0,0.5,0,0.7,0.1c0.2,0,0.4,0,0.6-0.1c0.5,0,1,0,1.5,0c0.8,0,1.7,0.1,2.5,0c0.5,0,1-0.1,1.4-0.1
		c1.2,0,2.3,0,3.5,0c0.2,0,0.5,0,0.7,0c1.2,0,2.5,0,3.7,0c0.5,0,1.1-0.1,1.6-0.1c0.6,0,1.2,0.1,1.8,0.1c0.5,0,1.1-0.1,1.6-0.1
		c0.3,0,0.7,0,1-0.1c0.4,0,0.9,0,1.3,0.1c0.2,0.1,0.3,0.2,0.5,0.4c0.1,0.1,0.2,0.1,0.3,0.2c0.3,0.2,0.6,0.4,0.9,0.6
		c0,0.1-0.1,0.1-0.1,0.1c-0.3,0-0.6,0-0.9,0c-0.3,0-0.7-0.1-1,0c-0.1,0-0.2,0-0.3,0c-0.7,0-1.4,0-2.2,0c-0.7,0-1.3,0-2,0
		c-0.2,0-0.5,0-0.7,0c-0.2,0-0.4,0-0.6,0c-0.3,0-0.8-0.1-1,0c-0.3,0-0.9,0-1.1,0c-0.3,0-0.7-0.1-1,0c-0.2,0-0.5-0.1-0.8,0
		c-0.8,0-1.6-0.1-2.4-0.1c-0.3,0-0.6-0.1-0.9,0c-0.2,0-0.4,0-0.6,0c-0.6,0-1.2,0-1.8,0c-0.2,0-0.5-0.1-0.7,0c-0.6,0-1.6-0.1-2.1,0.1
		c-0.4,0-0.8,0-1.1,0c-0.9,0-1.9,0-2.9,0c-0.4,0-1-0.1-1.3,0c-0.1,0-0.3,0-0.4,0c-0.5,0-1,0-1.4-0.1c-1.4,0-2.7,0-4.1,0
		c-0.7,0-1.4,0-2.1-0.1c-0.2,0-0.5-0.1-0.7,0c-0.2,0-0.5,0-0.7,0c-0.4,0-0.8,0-1.3,0c-0.1,0-0.3,0-0.4,0c-0.4,0-0.9,0-1.3,0
		c-0.2,0-0.4,0-0.6,0c-0.7,0-1.3,0-2,0c-0.2,0-0.5-0.1-0.7,0c-0.9,0-1.8-0.1-2.7-0.1c-0.2,0-0.5-0.1-0.7,0c-0.2,0-0.4,0-0.5,0
		c-1.1,0-2.3,0-3.4-0.1c-0.5,0-1.6-0.2-2,0c-0.1,0-0.2,0-0.3,0c-0.6,0-1.1-0.1-1.7-0.1C42.3,30.8,41.5,30.9,40.9,30.6L40.9,30.6
		L40.9,30.6z M38.2,32.6c0.1-0.1,0.2-0.1,0.3-0.2c0.3-0.2,1.2-1,1.5-1c0.7,0,1.3,0.1,2,0.1c0.4,0,0.8,0,1.2-0.1c0.4,0,0.8,0,1.2,0
		c0.6,0,1.3,0,1.9,0c1.2,0,2.4,0.1,3.6,0.1c0.3,0,0.5-0.1,0.8-0.1c0.6,0,1.3,0,1.9,0c0.3,0,0.7,0,1,0.1c0.4,0,0.7,0,1.1-0.1
		c0.4,0,0.8,0,1.2,0.1c0.9,0,1.9-0.1,2.8-0.1c0.4,0,0.9,0,1.3,0c0.2,0,0.4,0.1,0.7,0.1c0.5,0,0.9-0.1,1.4-0.1c0.7,0,1.4,0.1,2.2,0.1
		c0.4,0,0.7,0,1.1,0c0.5,0,0.9,0,1.4,0c0.2,0,0.5,0,0.7,0c0.2,0,0.4,0,0.6,0.1c0.2,0,0.4,0,0.6-0.1h1.7c0.2,0,0.4,0,0.6-0.1
		c0.3,0,0.6,0.1,0.9,0.1c0.4,0,0.9,0,1.3,0c0.3,0,0.5,0,0.8,0h1.4c0.3,0,0.7,0,1-0.1c0.6,0,1.2,0,1.8,0c0.3,0,0.5,0,0.8-0.1
		c0.2,0,0.5,0,0.7,0.1c0.4,0,0.8,0,1.1,0c0.8,0,1.6,0.1,2.4,0.1c1.4,0,2.8-0.2,4.2-0.2c0.5,0,0.9,0.1,1.4,0c0.3,0,0.5-0.1,0.8-0.1
		c0.7,0,1.4,0,2.2,0c0.5,0,0.9,0.1,1.4,0.1c0.3,0,0.6-0.1,0.9-0.1c0.3,0,0.6,0,0.8,0c0.5,0,1.1,0.1,1.6,0.1c0.2,0.1,1.2,0.9,1.4,1.1
		c-0.1,0-0.1,0-0.2,0c-0.3,0-0.7-0.1-0.9,0c-0.6,0-1.4-0.2-1.9,0.1c-0.1,0-0.2,0-0.3,0c-0.2,0-0.5,0-0.7,0c-0.4,0-1.3-0.1-1.6,0.1
		c-0.3,0-0.6-0.1-0.9-0.1c-0.6,0-1.3,0-1.9,0c-0.4,0-1.1-0.1-1.4,0c-1.3,0-2.6,0-3.9,0c-0.6,0-1.2,0-1.8,0c-0.2,0-0.5,0-0.7,0
		c-0.5,0-1,0-1.5,0c-0.3,0-0.6-0.1-0.8,0c-0.5,0-0.9,0-1.4,0c-0.2,0-0.4,0-0.6,0c-0.1,0-0.2,0-0.3,0c-0.6,0-1.1,0-1.7,0
		c-0.2,0-0.5,0-0.7,0c-0.4,0-1.4-0.1-1.7,0c-0.4,0-1.1-0.1-1.4,0c-0.1,0-0.2,0-0.3,0c-0.6,0-1-0.1-1.6-0.1c-0.1,0-0.3,0-0.4,0
		c-0.4,0-1.2-0.2-1.6,0c-0.1,0-0.2,0-0.3,0c-0.4,0-1-0.3-1.3-0.1c-0.5,0-1,0-1.6,0c-0.2,0-0.4,0-0.6,0c-0.3,0-1-0.2-1.2,0
		c-0.1,0-0.2,0-0.3,0c-0.6,0-1.3,0-1.9,0c-0.2,0-0.5-0.1-0.7-0.1c-0.4,0-0.8,0-1.2,0c-0.2,0-0.5,0-0.7,0c-0.2,0-0.4,0-0.6,0
		c-0.2,0-0.4,0-0.6,0.1c-0.2,0-0.5,0-0.7,0c-0.4-0.1-0.9-0.3-1.3-0.1c-0.5,0-1.1-0.1-1.7-0.1c-0.2,0-0.4,0-0.6,0c-0.1,0-0.3,0-0.4,0
		c-0.1,0-0.3,0-0.4,0c-0.8,0-1.5-0.1-2.2-0.2c-0.2,0-0.3,0-0.5-0.1c-0.7,0-1.4,0-2.1,0c-0.4,0-1-0.1-1.3,0c-0.2,0-0.4-0.1-0.6,0
		c-0.2,0-0.7-0.1-0.9,0c-0.1,0-0.2,0-0.3,0c-0.7,0-1.3,0-1.9,0c-0.2,0-0.5,0-0.6,0C40,32.7,39.1,32.7,38.2,32.6L38.2,32.6z M36,34.5
		c0-0.2,0.2-0.4,0.4-0.5c0.3-0.2,0.6-0.6,0.9-0.7c0.5-0.2,1.2-0.1,1.8-0.1c0.7,0,1.5,0,2.3,0c0.7,0,1.4-0.1,2.1-0.1
		c0.4,0,0.9,0,1.3,0c1.6,0,3.2,0,4.8,0c0.2,0,0.4,0,0.6,0.1c0.3,0,0.6,0,1,0c1,0,1.9-0.1,2.9-0.1c1.1,0,2.3,0.1,3.5,0.1
		c0.7,0,1.3-0.1,2-0.1c0.4,0,0.8,0.1,1.3,0.1c1.1,0,2.3-0.1,3.4-0.1c0.8,0,1.5,0,2.3,0c0.2,0,0.4,0,0.6,0c0.4,0,0.7,0,1.1,0
		c0.2,0,0.4,0,0.6,0.1c0.1,0,0.3,0,0.4-0.1c0.3,0,0.5,0,0.8,0c0.4,0,0.7,0.1,1,0.1c0.3,0,0.6-0.1,0.9-0.1c1.2,0,2.5,0,3.7,0
		c0.4,0,0.8,0,1.3,0c0.8,0,1.5-0.1,2.3-0.1c0.8,0,1.5,0.1,2.3,0.1c0.4,0,0.8,0,1.2-0.1c0.2,0,0.5,0,0.7,0c1.1,0,2.4,0,3.5,0
		c1,0,2.1-0.1,3.1,0c0.2,0,0.4,0.1,0.7,0.1c0.8,0,1.7,0.1,2.6,0.1c0.4-0.1,0.7-0.1,1.1-0.2c0.3,0,0.6-0.1,1-0.1
		c0.7,0,1.4,0.1,2.1,0.1c0.3,0,0.7-0.1,1.1,0c0.2,0,0.3,0.2,0.4,0.3c0.1,0.1,0.6,0.5,0.5,0.6c-0.2,0.2-0.8,0-1,0.1
		c-0.5,0-1.7-0.1-2,0.1c-1.1,0-2.3,0-3.4,0c-0.3,0-0.6,0-1,0c-0.1,0-0.3,0-0.4,0c-0.2,0-0.4,0-0.5,0c-0.3,0-1-0.1-1.2,0
		c-0.6,0-1.3,0-1.9-0.1c-0.2,0-0.5,0-0.7,0c-0.2,0-0.4,0-0.5,0c-0.1,0-0.3,0-0.4,0c-0.2,0-0.3,0-0.5,0c-0.3,0-0.8-0.2-1-0.1
		c-0.3,0-0.7-0.1-0.9,0c-0.1,0-0.3,0-0.4,0c-0.2,0-0.5-0.1-0.6,0c-0.8,0-1.6,0-2.4,0c-0.3,0-0.6-0.1-0.8,0c-0.1,0-0.2,0-0.3,0
		c-0.4,0-0.8-0.1-1.3-0.1c-0.7,0-1.4,0-2.2,0c-0.3,0-1-0.1-1.3,0c-0.2,0-0.4,0-0.5,0c-0.4,0-0.8,0-1.3,0c-0.3,0-0.7-0.1-1,0
		c-1.2,0-2.3-0.1-3.4-0.1c-0.3,0-0.7-0.1-1,0c-1.1,0-2.3,0-3.4,0c-0.3,0-0.7-0.1-1,0c-0.4,0-0.7,0-1.1,0c-0.2,0-0.5-0.1-0.7,0
		c-0.3,0-0.6-0.1-0.9,0c-0.2,0-0.8,0-1,0c-0.2,0-0.3,0-0.5,0.1c-0.1,0-0.3,0-0.4,0c-0.6,0-1.1,0-1.7,0c-0.2,0-0.5,0-0.7,0
		c-0.4,0-0.8-0.2-1.1,0c-1,0-2-0.1-3-0.1c-0.3,0-0.7-0.1-0.9,0c-0.4,0-0.9,0-1.3,0c-0.2,0-0.6-0.1-0.8,0c-0.3,0-0.7,0-1,0
		c-0.8,0-1.6,0-2.3,0c-0.3,0-0.7,0-1,0c-0.3,0-0.8-0.1-1,0c-0.4,0-1.4-0.1-1.7,0c-1,0-1.9-0.1-2.9-0.1c-0.2,0-0.7,0-0.9,0
		c-0.3,0-0.7-0.1-1,0c-0.2,0-0.5,0-0.7,0C36.4,34.5,36.2,34.6,36,34.5C35.9,34.5,35.9,34.5,36,34.5 M41.9,108.5
		c-0.7,0-1.1-0.2-1.5-0.6c-0.2-0.1-0.4-0.2-0.4-0.4c0.8,0.2,1.5,0.4,2.3,0.5c0.6,0.1,1.2,0.4,1.9,0.4v0c-0.3,0-0.6,0-1,0
		c-0.3,0-0.6,0-0.9-0.1C42.1,108.5,42,108.5,41.9,108.5 M42.8,109.5c-0.2-0.1-0.5-0.2-0.5-0.4c1,0,2.1,0.1,3.1,0.1
		c0.7,0,1.4,0,2.1,0c0.9,0,1.8,0.2,2.7,0.3c0.7,0,1.3,0,1.9,0.1c1.1,0.2,2.2,0.3,3.2,0.5c0.8,0.1,1.6,0.2,2.3,0.3c0,0.1-0.1,0-0.1,0
		c0,0.1-0.2,0-0.2,0c-0.6,0-1.2-0.1-1.9-0.1c-0.2,0-0.5,0-0.6,0c-0.1,0-0.3,0-0.4,0c-0.6,0-1.2-0.1-1.7-0.1c-0.4,0-0.8,0-1.2,0
		c-0.3,0-0.7-0.1-0.9,0c-0.7,0-1.5-0.1-2.2-0.1c-0.2,0-0.6-0.1-0.8,0c-0.4,0-0.8,0-1.2,0c-0.3,0-0.5-0.1-0.8-0.1
		c-0.6,0-1.1,0-1.6-0.1C43.6,110,43.2,109.8,42.8,109.5 M47.3,112.2c-0.7-0.2-1.3-0.8-2-1.1V111c0.7,0,1.4,0,2.1,0
		c0.4,0,0.7,0.1,1.1,0.1c0.5,0,1-0.1,1.5-0.1c0.4,0,0.8,0,1.2,0c0.2,0,0.5,0,0.6,0c0.4,0,0.7,0,1.1,0c1.1,0,2.3,0.1,3.4,0.1
		c0.9,0,1.8,0,2.6,0.1c0.1,0,0.3,0,0.4,0c0.3,0,0.5,0.1,0.8,0.1c0.8,0.2,1.5,0.6,2.2,1c0,0,0.2,0.1,0.2,0.2c-0.1,0-0.2,0.1-0.2,0.1
		c-0.1,0-0.3,0-0.4,0c-0.5,0-1-0.1-1.5-0.1c-0.1,0-0.3-0.1-0.5,0c-0.2,0-0.6-0.1-0.8,0c-0.6,0-1.1,0-1.7-0.1c-0.2,0-0.5,0-0.7,0
		c-0.5,0-1.1,0-1.6,0c-0.3,0-0.8-0.2-1.1-0.1c-0.3,0-0.6,0-0.8,0.1c-0.3,0-0.9-0.1-1.1,0c-1.2,0-2.4,0-3.5-0.1
		C48.2,112.3,47.7,112.3,47.3,112.2 M54,114.3c-0.2,0-0.5,0-0.7,0c-0.3,0-0.6-0.1-0.9-0.2c-0.2-0.1-0.4-0.2-0.6-0.2
		c-0.3-0.1-0.6-0.1-0.9-0.2c-0.4-0.1-0.7-0.2-1-0.3c-0.2-0.1-0.4-0.1-0.5-0.2h0v0c0.2,0,0.3,0,0.5,0c0.6,0,1.3,0.1,2,0.1
		c0.5,0,1,0,1.4-0.1c0.7,0,1.4,0,2,0.1c0.3,0,0.6,0.1,0.9,0.1c0.5,0,1-0.1,1.5-0.1c0.7,0,1.4,0.1,2.2,0.1c0.8,0,1.7,0,2.5,0
		c0.4,0,0.8-0.1,1.2,0c0.5,0.1,1,0.7,1.3,1.1c0,0,0.1,0.1,0,0.2c-0.2,0.1-0.8,0-1,0.1c-0.3,0-0.7-0.1-1,0c-0.7,0-1.4,0-2.2,0
		c-0.3,0-0.6-0.1-0.8,0c-0.7,0-1.4-0.1-2.1-0.1c-1,0-1.9,0-2.9,0C54.7,114.4,54.3,114.3,54,114.3 M66,116.7c0,0.1-0.2,0-0.3,0
		c-0.6-0.1-1.1-0.2-1.7-0.3c-0.3,0-0.5,0-0.8,0c-0.4,0-0.7-0.1-1.1-0.2c-0.3,0-0.6,0-1,0c-1.8-0.3-3.7-0.5-5.5-0.9
		c-0.3-0.1-1-0.2-1.1-0.4c0.8,0.2,1.7,0.1,2.6,0.1c0.7,0,1.5,0.1,2.2,0.1c0.2,0,0.5,0,0.7,0.1c0.2,0,0.5,0,0.7,0
		c0.3,0,0.6,0.1,0.9,0.1c0.2,0,0.4,0,0.7,0c0.3,0.1,0.5,0.1,0.8,0.2c0.6,0,1.7-0.2,2.2,0C65.7,115.6,66,116.4,66,116.7L66,116.7z
		 M67.1,114.7L67.1,114.7L67.1,114.7c-0.1,0-0.1-0.1-0.2-0.2c-0.2-0.3-0.3-0.5-0.5-0.8c-0.3-0.4-0.7-0.8-1-1.2
		c-1.1-1-2.3-1.9-3.6-2.4c-0.3-0.1-0.5-0.2-0.8-0.3c-0.3-0.1-0.6-0.3-0.9-0.4c-0.3-0.1-0.6-0.1-0.9-0.2c-0.3-0.1-0.6-0.2-1-0.2
		c-0.7-0.1-1.3-0.3-2-0.5c-0.7-0.1-1.3-0.2-1.9-0.2c-0.5,0-1,0-1.5-0.1c-2.3-0.2-4.7-0.5-6.9-0.8c-0.8-0.1-1.5-0.1-2.3-0.3
		c-0.7-0.1-1.5-0.4-2.2-0.6c-0.4-0.1-0.8-0.2-1.2-0.4c-0.4-0.2-0.8-0.3-1.1-0.5c-0.3-0.1-0.5-0.2-0.8-0.3c-0.2-0.1-0.4-0.2-0.5-0.4
		c-0.1,0-0.2-0.1-0.3-0.1c-0.6-0.5-1.1-1.2-1.6-1.8c-0.4-0.5-0.6-1-0.7-1.6c-0.1-0.3-0.2-0.6-0.3-0.8c-0.3-1.3-0.3-2.6-0.3-4.1
		c0-0.3,0-0.5-0.1-0.8c0-1.1,0.1-2.1,0.1-3.2c0-0.2,0-0.5,0-0.7c0-1,0-2.1,0-3.2c0-0.7,0.1-1.4,0.1-2c0-2.8,0-5.7,0.1-8.6
		c0-0.4,0-0.8-0.1-1.2c0-0.4,0-0.9,0-1.3c0-0.2,0-0.4,0-0.6c0.1-0.7,0.1-1.3,0.2-1.9c0-0.5,0-1,0-1.5c0-0.4,0.1-0.7,0-1.1
		c0-0.3-0.1-0.6-0.1-0.9c0-0.3,0-0.5,0-0.8c0-0.6,0-1.1,0-1.7c0-0.3,0.1-0.7,0-1c0-0.4-0.1-0.8-0.1-1.2c0-0.5,0.1-1,0.1-1.4
		c0-0.5,0-0.9,0-1.3c0-1,0-2,0.1-3c0-0.2,0-0.4,0-0.6c0-0.4,0-0.9-0.1-1.3c0-0.4,0.1-0.7,0.1-1.1c0-1.8,0-3.7,0.1-5.4
		c0-0.6,0-1.2,0-1.8c0-0.4-0.1-0.8-0.1-1.3c0-0.3,0-0.6,0-0.9c0-1.5,0-3,0-4.6c0-0.6,0.1-1.1,0-1.6c0-0.6,0-1.3,0-1.9
		c0-0.4,0-0.8,0-1.3c0-0.3-0.1-0.8,0.1-1.1c0-0.1,0.1-0.1,0.2-0.1c0.6-0.1,1.4-0.2,2.1-0.1c0.8,0.1,1.7,0,2.5,0c0.8,0,1.5,0,2.3,0
		c0.5,0,0.9,0,1.4-0.1c0.9,0,1.7,0.1,2.5,0.1c1,0,2.1,0,3.2,0c0.3,0,0.6,0,0.9,0c0.4,0,0.9,0,1.3-0.1c0.4,0,0.7,0.1,1.1,0.1
		c0.5,0,0.9,0,1.4,0c0.7,0,1.5,0,2.2,0.1c0.3,0,0.7,0.1,1,0.1c1,0,2.1-0.1,3.1-0.1c0.7,0,1.4,0,2,0.1c0.6,0,1.1-0.1,1.7-0.1
		c0.4,0,0.9,0,1.3,0c0.4,0,0.8,0,1.2,0c0.4,0,0.9,0.1,1.3,0.1c0.3,0,0.7,0,1-0.1c0.7,0,1.4,0.1,2,0.1c0.3,0,0.6,0,1-0.1
		c1.8,0,3.6,0,5.5,0c0.4,0,0.8,0,1.2-0.1c0.8,0,1.7,0,2.5,0c0.2,0,0.3,0,0.5,0c0.7,0.1,1.5,0,2.3,0c0.3,0,0.6,0.1,0.9,0.1
		c0.3,0,0.7,0,1,0c0.5,0,1.2,0.1,1.7,0.1c0.4,0,0.7-0.1,1.1-0.1c0.3,0,0.5,0,0.8,0.1c0.4,0,0.8,0,1.2,0c0.3,0,0.6,0.1,0.8,0.1
		c0.2,0,0.5,0,0.7,0c0.2,0,0.5,0,0.7,0c0.2,0,0.5,0,0.7,0c0.5,0,0.9,0,1.3,0c0.7-0.1,1.4,0,2.1,0c0.3,0,0.7,0,1-0.1
		c0.2,0,0.5,0,0.7,0c0.2,0,0.5,0,0.7,0c0,0,0,0,0,0c0.2,0.2,0.1,0.7,0.1,1c0,1-0.1,1.9,0,2.9c0,0.6,0,1.3,0,1.9c0,0.2,0,0.4,0,0.6
		c0,0.4,0,0.9,0,1.3c0,0.4,0,0.9-0.1,1.3c0,0.6,0.1,1.1,0.1,1.7c0,0.2-0.1,0.4-0.1,0.6c0,0.4,0.1,0.7,0.1,1.1c0,0.4,0,0.7-0.1,1.1
		c0,0.5,0,0.9,0,1.4c0,0.3-0.1,0.7-0.1,1c0,0.6,0.1,1.1,0.1,1.7c0,0.2,0,0.4-0.1,0.6c0,0.5-0.1,0.9,0,1.4c0,0.8,0.1,1.7,0.1,2.5
		c0,0.2,0,0.3-0.1,0.5c0,0.4,0,0.7,0,1.1c0,0.4-0.1,0.9-0.1,1.3c0,0.3,0.1,0.6,0.1,1c0,0.2,0,0.3-0.1,0.5c0,0.2,0,0.5,0,0.7
		c0,0.9-0.1,1.7-0.1,2.6c0,0.4,0,0.9,0,1.3c0,0.2,0,0.3,0.1,0.5c0,0.3,0,0.6,0,0.9c0,0.2,0,0.4,0,0.6c0,0.3,0,0.6-0.1,1
		c0,0.4,0.1,0.9,0.1,1.3c0,1.3-0.1,2.5-0.1,3.7c0,0.5,0.1,1,0.1,1.5c0,0.3-0.1,0.5-0.1,0.8c0,0.6,0,1.2,0,1.8c0,0.3-0.1,0.6-0.1,1
		c0,1.2,0,2.4,0,3.6c0,0.8-0.1,1.7-0.1,2.6c0,0.4,0,0.9,0.1,1.3c0,0.2,0,0.3,0,0.5c0,0.3,0,0.6,0,1c0,0.8,0,1.6,0,2.3
		c0,0.9,0,1.9,0,2.8c0,0.3,0,0.5,0,0.8c0,0.2,0,0.3,0.1,0.5c0,0.5-0.1,1.1-0.1,1.6c0,0.5,0.1,1,0,1.4c-0.1,0.3-0.1,0.6-0.2,0.9
		c0,0.3-0.1,0.6-0.1,0.9c-0.1,0.5-0.5,1.3-0.8,1.8c-0.2,0.4-0.7,0.6-1,0.9c-0.2,0.2-0.4,0.3-0.6,0.5c-0.4,0.3-0.7,0.7-1.2,0.9
		c-0.3,0.1-0.5,0.2-0.8,0.3c-0.5,0.2-1.1,0.5-1.6,0.7c-0.5,0.2-1,0.3-1.6,0.5c-0.1,0-0.3,0.1-0.4,0.1c-0.3,0-0.7,0.1-0.9,0.3
		c-0.2,0-0.5,0-0.7,0.1c-0.4,0-0.6,0.1-0.9,0.2c-0.1,0-0.2,0.1-0.3,0.1c-0.2,0-0.3,0-0.4,0.1c-0.3,0-1,0.1-1.2,0.3
		c-0.3,0-0.6-0.1-0.8,0c-0.2,0-0.3,0-0.4,0.1c-0.2,0-0.5,0-0.7,0.1c-0.1,0-0.2,0-0.3,0c-0.2,0-0.4,0-0.5,0.1c-0.2,0-0.3,0-0.5,0.1
		c-0.3,0-0.8-0.1-1,0.1c-0.1,0-0.2,0-0.3,0c-0.3,0-0.7-0.1-0.9,0c-0.2,0-0.4,0-0.5,0c-0.1,0-0.2,0-0.3,0c-0.3,0-0.6-0.1-0.9,0
		c-0.1,0-0.2,0-0.4,0c-0.1,0-0.2,0-0.3,0c-0.1,0-0.2,0-0.3,0c-0.1,0-0.3,0-0.4,0c-0.2,0-0.4,0-0.5,0.1c-0.1,0-0.2,0-0.3,0
		c-0.2,0-0.4,0-0.6,0.1c-0.2,0-0.4,0-0.5,0.1c-0.1,0-0.3,0-0.4,0.1c-0.1,0-0.3,0-0.4,0.1c-0.1,0-0.2,0-0.3,0c-0.2,0-0.5,0.1-0.7,0.2
		c-0.1,0-0.3,0-0.4,0.1c-0.5,0-0.8,0.2-1.2,0.4c-0.3,0.1-0.6,0.2-0.9,0.3c-0.6,0-1.2,0.5-1.6,0.9c-0.4,0.3-0.9,0.5-1.2,0.8
		C68.2,112.2,67.6,113.5,67.1,114.7 M79.4,115.2c-0.5,0-1.1,0.3-1.5,0.4c-0.3,0.1-0.7,0-1,0.2c-0.5,0-1,0.2-1.4,0.4
		c-0.1,0-0.2,0-0.3,0.1c-0.3,0-0.5,0-0.8,0.1c-0.2,0-0.8,0.1-1,0.2c-0.3,0-0.6,0-0.8,0.1c-0.3,0-0.9-0.1-1.2,0c-0.1,0-0.2,0-0.3,0
		c-0.7,0-1.4,0-2,0v0c0,0,0,0,0,0c0-0.4,0.2-1.1,0.6-1.2c0.9-0.1,1.9-0.1,2.8,0c0.8,0,1.6,0,2.4-0.1c0.3,0,0.6,0,0.9-0.1
		c0.6,0,1.2,0,1.8,0C78.2,115.2,78.8,115.2,79.4,115.2L79.4,115.2z M85,113.3L85,113.3c0,0.1-0.1,0.1-0.2,0.1
		c-0.4,0.2-0.8,0.3-1.2,0.5c-0.2,0.1-0.4,0.2-0.7,0.3c-0.3,0.1-0.6,0.2-0.9,0.3c-0.3,0-1-0.1-1.3,0c-0.3,0-0.5,0-0.8,0
		c-0.2,0-0.4-0.1-0.6,0c-0.2,0-0.5,0-0.6,0c-0.1,0-0.2,0-0.3,0c-0.4,0-0.8,0-1.2,0c-0.2,0-0.6-0.2-0.8,0c-0.2,0-0.5,0-0.7,0
		c-0.3,0-0.7-0.1-0.9,0c-0.1,0-0.3,0-0.4,0c-0.2,0-0.5,0-0.7,0c-0.1,0-0.2,0-0.3,0c-0.3,0-1.3-0.1-1.6,0c-0.2,0-0.5,0-0.7,0
		c-0.4,0-0.8-0.1-1.2-0.1c0-0.4,0.6-1.2,1-1.3c0.3-0.1,0.8,0,1.1,0c1.2-0.2,2.5,0,3.7,0c0.6,0,1.2-0.1,1.9-0.1c0.4,0,0.8,0,1.2,0
		c0.2,0,0.5,0,0.7,0c0.4,0.1,1.1,0,1.5,0.1c0.6,0,1.2,0.1,1.9,0.1c0.3,0,0.6,0,0.9-0.1C84.1,113.2,84.6,113.2,85,113.3L85,113.3z
		 M89.6,111.1c-0.2,0-0.5,0.3-0.7,0.4c-0.5,0.2-1,0.5-1.5,0.7c-0.3,0.1-0.6,0.3-0.9,0.4c-0.6,0.1-1.3,0-1.9,0
		c-0.3,0-0.5,0.1-0.7,0.1c-0.2,0-0.6-0.1-0.9,0c-0.3,0-0.6,0-0.9,0c-0.4,0-0.8-0.2-1.1,0c-0.7,0-1.3,0-1.9,0c-0.3,0-0.7-0.1-1,0
		c-0.2,0-0.5,0-0.6,0c-0.4,0-0.7,0-1.1,0c-0.4,0-1.4-0.2-1.7,0c-1,0-1.9-0.2-2.9-0.2v-0.1c0.1,0,0.6-0.4,0.7-0.4
		c0.4-0.3,0.9-0.4,1.4-0.6c0.3-0.1,0.6-0.2,0.9-0.2c0.8,0,1.5,0,2.3,0c0.6,0,1.3-0.1,1.9-0.1c1.6,0,3.2,0.1,4.8,0c0.5,0,1.1,0,1.6,0
		c0.3,0,0.6,0,0.8-0.1C87.1,110.9,88.3,111,89.6,111.1L89.6,111.1L89.6,111.1L89.6,111.1z M90.3,110.4c-1.1,0-2.1,0-3.2,0
		c-0.4,0-1.1-0.2-1.5,0c-0.4,0-1-0.1-1.3,0.1c-0.3,0-0.8-0.1-1,0c-0.6,0-1.2-0.1-1.8-0.1c-0.1,0-0.3,0-0.4,0c-0.8,0-1.5,0-2.3,0v0h0
		c0-0.1,0,0,0-0.1c0.4-0.1,0.8-0.1,1.3-0.1c0.7,0,1.3-0.1,2-0.1c0.9-0.1,1.9-0.2,2.8-0.3c0.5,0,1-0.1,1.4-0.2
		c0.5-0.1,0.9-0.2,1.4-0.3c0.5,0,0.9-0.1,1.4-0.1c0.4,0,0.7-0.1,1.1-0.1c0.3,0,0.6,0,0.9,0c0.2,0,0.4,0,0.6-0.1c0.2,0,0.4,0,0.7,0
		H93c0,0,0,0.1,0,0.1c0,0,0,0-0.1,0c-0.3,0.3-0.7,0.5-1,0.6c-0.2,0.1-0.4,0.3-0.6,0.4c-0.2,0.1-0.4,0.1-0.6,0.2
		C90.5,110.3,90.4,110.3,90.3,110.4"/>
	<path style="fill:#231F20;" d="M69.5,62.5c0.4-0.3,0.9-0.5,1.3-0.8c0.6-0.3,1.3-0.6,2-0.8c0.5-0.1,1-0.3,1.5-0.4
		c0.2-0.1,0.4-0.1,0.6-0.2c0.2-0.2,0.4-0.6,0-0.7c-0.2-0.1-0.4,0-0.5,0c-0.2,0.1-0.5,0.2-0.7,0.2c-0.2,0.1-0.4,0.2-0.5,0.2
		c-0.5,0.2-1,0.3-1.5,0.5c-0.5,0.2-0.9,0.5-1.4,0.8c-0.2,0.1-0.3,0.2-0.5,0.4c-0.4,0.2-0.9,0.5-0.9,1h0
		C68.8,62.9,69.4,62.6,69.5,62.5"/>
	<path style="fill:#231F20;" d="M60.4,60.7c1.5,0.4,3,0.8,4.3,1.5c0.3,0.1,0.5,0.3,0.8,0.4c0.2,0.1,0.4,0.4,0.7,0.4
		c0.1,0,0.2,0,0.3-0.1c0.2-0.3-1.3-1.2-1.6-1.4c-0.4-0.2-0.8-0.4-1.3-0.6c-0.1-0.1-0.3-0.2-0.4-0.2c-0.3-0.1-0.6-0.2-0.9-0.3
		c-0.3-0.1-0.7-0.3-1.1-0.4C61,60,60.9,60,60.7,60c-0.6-0.2-1.1-0.4-1.7-0.4c-0.3,0.2-0.3,0.6,0,0.8C59.4,60.6,60,60.6,60.4,60.7"/>
	<path style="fill:#231F20;" d="M98.5,59.9c0-0.6,0-1.2,0-1.9c0-0.2,0-0.4-0.1-0.6c0-0.5,0.1-0.9,0.1-1.4c0-0.4,0-0.7-0.1-1.1
		c0-2.8-0.1-5.5,0-8.2c0-1.5,0-3,0-4.5c0-0.8,0-1.7,0-2.5c0-0.8,0-1.5,0-2.4h0c0-0.1-0.4,0-0.5,0c-0.8,0-1.6,0-2.4,0
		c-0.5,0-1-0.1-1.6-0.1c-0.2,0-0.3,0-0.5,0c-0.2,0-0.4,0-0.6,0.1c-0.3,0-0.6-0.1-0.9-0.1c-1,0-2,0-3,0c-0.3,0-1-0.1-1.2,0
		c-0.5,0-1,0-1.6,0c-0.4,0-1-0.2-1.3,0c-0.1,0-0.2,0-0.3,0c-0.4,0-0.7,0-1.1,0c-0.6,0-1.1-0.1-1.7-0.1c-0.4,0.1-1.1-0.1-1.5,0.1
		c-0.1,0-0.2,0-0.3,0c-0.4,0-0.9,0-1.3,0c-0.2,0-0.5,0-0.7,0c-0.1,0-0.3,0-0.4,0c-0.4,0-0.7-0.1-1-0.1c-0.9,0-1.8,0-2.7,0
		c-0.3,0-0.8-0.1-1.1,0c-0.1,0-0.2,0-0.3,0c-0.1,0-0.3,0-0.4,0c-0.5,0-1.3-0.3-1.8-0.1c-0.1,0-0.2,0-0.3,0c-0.2,0-0.4,0-0.6,0.1
		c-1.3,0-2.6,0-3.8,0c-0.3,0-0.7,0-1,0c-0.2,0-0.4-0.1-0.5,0c-0.3,0-0.6,0-1,0c-0.4,0-1.4-0.2-1.8,0c-0.3,0-0.6,0-0.9,0
		c-0.2,0-0.4-0.1-0.6,0c-0.3,0-0.6,0-0.8,0c-0.5,0-1-0.1-1.5-0.1c-0.2,0-0.4,0-0.5,0c-0.3,0-0.8-0.1-1,0c-0.5,0-1,0-1.5,0
		c-0.2,0-0.5,0-0.7,0c-0.6,0-1.2,0-1.9,0c-0.4,0-1.2-0.2-1.5,0c-0.4,0-1.1-0.1-1.4,0c-0.8,0-1.6-0.1-2.4-0.1c-0.3,0-0.7-0.1-1,0
		c-0.2,0-0.3,0-0.5,0c-0.3,0-0.7-0.1-1,0c-0.3,0-0.7-0.1-0.9,0c-1,0-2.1-0.1-3.2-0.1c-0.3,0-0.8-0.1-1,0c-0.4,0-1.3-0.1-1.6,0
		c-0.2,0-0.6-0.1-0.8,0.1c-0.2,0.2-0.1,1.4-0.1,1.7c0,0.3,0,0.6,0,0.9c0,0.3,0,0.5,0,0.8c0,0.4,0,0.8,0,1.2c0,1.1-0.1,2.2-0.1,3.3
		c0,0.3-0.1,0.5-0.1,0.8c0,0.3,0.1,0.6,0.1,0.9c0,0.3-0.1,0.6-0.1,0.8c0,0.6,0,1.2,0,1.7c0,1-0.1,2-0.1,3.1c0,0.4,0,0.8,0,1.2
		c0,0.1,0,0.3,0,0.4c0,0.2-0.1,0.5-0.1,0.7c0,1.8,0,3.5,0,5.2c0,0.8,0,1.5,0,2.3c0,0.4-0.1,0.7-0.1,1.1c0,0.6,0,1.1,0,1.7
		c0,1.1-0.1,2.3,0,3.4c0,0.4,0,0.8,0.1,1.2c0,0.5-0.1,1-0.1,1.6c0,2,0,4.2,0,6.2c0,0.5-0.1,0.9-0.1,1.5c0,0.5,0,1.1,0,1.6
		c0,0.2,0,0.5,0,0.7c0,1.9-0.1,3.6-0.1,5.5c0,0.9-0.1,1.6-0.1,2.4c0,0.4,0,0.7,0,1.1c0,0.1,0,0.3,0.1,0.4c0,0.1,0,0.3-0.1,0.4
		c0,0.4,0,0.9-0.1,1.3c0,0.5,0,1.1,0,1.6c0,0.2,0.1,0.4,0.1,0.7c0,0.3-0.1,0.4-0.1,0.7c0,0.3,0.1,0.5,0.1,0.8c0,2.2,0,4.4,1,6.1
		c0.7,1.2,2,1.9,3.2,2.4c0.8,0.4,1.6,0.8,2.5,1c0.7,0.2,1.3,0.2,2,0.4c0.5,0.1,1.1,0.2,1.6,0.3c0.5,0,1,0.1,1.6,0.1
		c1.1,0.1,2.2,0.3,3.3,0.5c0.5,0,1.1,0.1,1.6,0.1c0.2,0,0.5,0.1,0.7,0.1c0.4,0,0.8,0,1.3,0c0.4,0,0.9,0.1,1.3,0.1c0.2,0,0.5,0,0.7,0
		c0.2,0,0.4,0.1,0.6,0.1c0.6,0.1,1.1,0.2,1.7,0.3c0.2,0.1,0.4,0.1,0.5,0.2c0.4,0.1,0.7,0.2,1.1,0.4c0.5,0.2,1.1,0.4,1.6,0.6
		c0.4,0.2,0.8,0.4,1.2,0.6c0.2,0.1,0.4,0.3,0.6,0.4c0.4,0.2,0.9,0.5,1.3,0.8c0.5,0.4,0.8,0.9,1.3,1.3c0.1,0.2,0.2,0.4,0.4,0.5
		c0,0.1,0,0,0.1,0c0-0.1,0.2-0.2,0.3-0.3c0.1-0.1,0.2-0.3,0.3-0.4c0.9-1.4,2.4-2.4,3.8-3.1c0.2-0.1,0.4-0.2,0.7-0.2
		c0.3-0.1,0.5-0.2,0.8-0.3c0.5-0.2,1.1-0.3,1.6-0.4c1-0.2,2-0.5,3.1-0.7c0.3,0,0.5,0,0.8-0.1c0.4-0.1,0.8-0.2,1.2-0.2
		c0.6,0,1.1,0,1.6-0.1c0.7-0.1,1.3-0.2,2-0.2c0.6,0,1.2-0.1,1.8-0.1c0.5-0.1,1-0.2,1.6-0.3c0.2,0,0.3,0,0.5,0
		c0.8-0.1,1.6-0.3,2.4-0.5c0.3-0.1,0.5-0.1,0.8-0.2c0.7-0.2,1.5-0.5,2.2-0.7c0.6-0.2,1.2-0.4,1.8-0.6c0.5-0.2,0.9-0.5,1.4-0.8
		c0.8-0.5,1.7-1.1,2.2-1.9c0.2-0.4,0.4-1,0.5-1.4c0-0.2,0-0.4,0-0.6c0.2-0.9,0.1-2,0.1-2.9c0-0.3,0-0.7,0-1c0-0.2,0-0.4,0-0.6
		c0-0.4,0-0.7,0-1.1c0-0.1,0-0.3-0.1-0.4c0-0.1,0-0.3,0-0.4c0-0.1,0-0.3,0-0.4c0-0.3,0.1-0.5,0.1-0.7c0-0.3-0.1-0.5-0.1-0.8
		c0-0.3,0.1-0.6,0.1-0.9c0-1.1,0-2.3,0.1-3.4c0-0.3,0-0.6,0-0.8c0-1,0-2,0-3c0.1-2.7,0-5.6,0.1-8.3c0-0.3,0-0.6,0-0.9
		c0-0.1,0-0.2,0-0.3c0-0.2,0.1-0.5,0.1-0.7c0-0.2,0-0.3-0.1-0.5c0-0.2,0.1-0.5,0.1-0.7c0-0.5-0.1-0.9-0.1-1.4c0-0.3,0.1-0.6,0.1-0.9
		c0-0.2,0-0.3,0-0.5c0-0.2,0-0.3,0.1-0.5c0-0.2,0-0.4-0.1-0.6c0-0.2,0-0.4,0.1-0.6c0-0.2-0.1-0.4-0.1-0.6c0-1.2,0-2.4,0-3.6
		c0-0.3,0.1-0.5,0.1-0.7c0-0.3-0.1-0.4-0.1-0.7c0-0.1,0-0.3,0.1-0.4C98.5,60.6,98.5,60.2,98.5,59.9 M76.4,39.7
		c0.1-0.1,0.3-0.1,0.4-0.3c0.1-0.1,0.2-0.3,0.3-0.4c0.2-0.3,0.5-0.6,0.8-0.9c0.1-0.1,0.2-0.2,0.3-0.3c0.2-0.1,0.5-0.1,0.7,0
		c0.5,0,1,0,1.4-0.1c0.2,0,0.4,0,0.6-0.1c0.3,0,0.7,0,1,0c0.4,0,0.8,0.1,1.2,0.1c0.4,0,0.7-0.1,1-0.1c0.1,0,0.2,0,0.3,0.1
		c0.4,0,0.9,0,1.3-0.1v0h0c0,0.1,0,0,0,0c0,0,0,0,0,0.1c-0.4,0.6-1,1-1.5,1.5c-0.9,0.9-1.9,1.8-2.8,2.7c-0.2,0.2-0.5,0.4-0.7,0.6
		c-0.8,0.8-1.6,1.8-2.4,2.6c-0.3,0.3-0.6,0.6-0.9,0.9c-0.2,0.1-0.3,0.3-0.5,0.4c-0.2,0.2-0.4,0.5-0.6,0.7c-0.5,0.5-1.1,1.1-1.6,1.6
		c-0.3,0.3-0.5,0.6-0.8,0.9c-0.6,0.6-1.1,1.1-1.7,1.7c-1,1-1.9,1.9-2.9,2.9c-0.3,0.3-0.6,0.7-1,0.9v0h0v0h0c0-0.1,0-0.3,0-0.4
		c0-0.3,0-0.6,0-0.9c0-0.2,0.1-0.3,0.1-0.5c0-0.3-0.1-0.5,0.1-0.8c0.1-0.2,0.3-0.2,0.4-0.4c0.3-0.2,0.4-0.6,0.7-0.8
		c0.3-0.2,0.7-0.3,1.1-0.4c0.2-0.1,0.4-0.3,0.6-0.4c0.5-0.3,1-0.6,1.3-1c0.1-0.2,0.2-0.4,0.3-0.6c0.1-0.2,0.2-0.3,0.3-0.5
		c0.1-0.2,0.1-0.5,0.1-0.7c0.1-0.3,0.3-0.6,0.3-1c0-0.3-0.1-0.7-0.1-1c0-0.4-0.3-0.8-0.5-1.1c-0.1-0.1-0.2-0.3-0.3-0.4
		c-0.1,0,0-0.1,0-0.2c0.1-0.1,0.1-0.2,0.2-0.3c0.3-0.4,0.6-0.9,1-1.3c0.2-0.2,0.3-0.4,0.4-0.6c0.2-0.2,0.5-0.4,0.7-0.6
		c0.1-0.1,0.2-0.3,0.3-0.4c0.1-0.2,0.1-0.3,0.3-0.5c0.1-0.1,0.3-0.2,0.4-0.3C76.2,39.9,76.3,39.8,76.4,39.7 M79.4,66.7
		c0,0.3-0.1,0.5-0.1,0.8c0,0.2,0,0.3,0.1,0.5c0,0.4,0,0.9,0,1.3c0,0.6-0.1,1.1-0.1,1.7c0,0.5,0.1,1,0.1,1.6c0,0.4-0.1,0.7-0.1,1
		c0,0.3,0.1,0.7,0.1,1c0.1,0.5,0,1.1,0,1.6c0,0.5,0,0.9-0.1,1.3H79c0-0.1,0-0.2,0-0.3C79,76.5,79,75.8,79,75.2c0-0.9,0-1.7,0-2.6
		c0-0.2,0-0.4,0-0.6c0-0.5-0.1-1-0.1-1.5c0-0.2,0.1-0.4,0.1-0.6c0-0.5,0.1-1.2,0-1.7c0-0.2-0.1-0.3-0.3-0.5h0c0,0.1-0.1,0.1-0.2,0.2
		c-0.1,0.2-0.1,0.5-0.1,0.8c0,0.5,0,1,0.1,1.5c0,0.3,0.1,0.6,0.1,0.9c0,0.2-0.1,0.5-0.1,0.7c0,0.3-0.1,0.7-0.1,1c0,0.3,0,0.7,0,1
		c0,0.7,0,1.5-0.1,2.2c-0.2,0-0.2-0.3-0.3-0.4c-0.1-0.2,0-0.5,0-0.7c0-0.4,0-1,0-1.4c0-0.4,0-0.9,0-1.3c0-0.6,0.1-1.1,0-1.6
		c0-0.1-0.1-0.4-0.2-0.4c-0.1,0-0.1,0-0.2,0.1c-0.2,0.4-0.1,1-0.1,1.4c0,0.7-0.1,1.4-0.1,2.1c0,0.4,0,0.8-0.1,1.2h0v0h0v0
		c-0.1,0-0.1-0.2-0.1-0.3c0-0.6,0-1.3,0-1.9c0-0.7,0-1.3,0-1.9c0-0.5,0.1-0.9,0.1-1.3c0-0.5,0-1,0-1.5c0-2.5-0.1-5,0.1-7.4
		c0-0.4,0-0.8-0.1-1.2c0-0.4,0-0.8,0-1.1c0-0.3,0-0.5,0.1-0.8c0.1,0.3,0.1,0.7,0.1,1c0,0.7-0.1,1.4,0.2,2H78c0-0.1,0.1-0.3,0.1-0.4
		c0-0.7,0.1-1.4,0.1-2.1h0v0c0,0,0.1,0,0.1,0c0,0.1,0,0.2,0.1,0.3c0,0.2,0,0.3,0.1,0.5c0,1-0.1,2.1-0.1,3.1c0,0.2,0,0.4,0.1,0.6
		c0,0.3-0.1,0.5-0.1,0.8c0,0.2,0.2,0.3,0.4,0.2c0-0.2,0-0.3,0-0.5c0-0.2,0-0.3,0-0.5c0-0.3,0.2-0.6,0.2-0.9c0-0.9,0-1.8,0.1-2.7h0.1
		v0c0.1,0,0,0.4,0.1,0.5c0,0.2,0,0.4,0,0.7c0,0.4,0.1,0.8,0.1,1.2c0,0.7,0,1.4-0.1,2.1c0,0.7,0,1.4,0,2.1
		C79.4,65.8,79.4,66.2,79.4,66.7 M76.3,96.1L76.3,96.1L76.3,96.1c0,0-0.3,0-0.4,0c-0.7,0-1.3,0-2,0c-0.3,0-0.7-0.1-1,0
		c-0.3,0-0.6,0-0.8,0c-0.8,0-1.5,0-2.3-0.1c-0.4,0-0.8-0.2-1.2,0c-0.6,0-1.1,0-1.7,0c-0.1,0-0.3,0-0.4,0c-0.3,0-1.1-0.1-1.3,0
		c-0.2,0-0.4,0-0.6,0c-0.5,0-1.1,0-1.6,0c-0.3,0-0.7,0-1,0c-0.1,0-0.2,0-0.3,0c-0.1,0-0.3,0-0.4,0c-0.6,0-1.1,0.1-1.5-0.4
		c0-0.1-0.1-0.2,0-0.2c0.2-0.3,3.5,0,4.1,0c0.9,0,1.6-0.1,2.5-0.1c1.1,0,2.3,0.1,3.5,0.1c0.6,0,1.2,0,1.8,0c1.4,0,2.8,0,4.1,0
		c0,0,0,0,0,0c0.1,0,0.1-0.4,0.1-0.5c0-0.9,0-1.8,0-2.7c0-0.6,0-1.3,0.1-1.8c0.7,0.4,0.6,1.3,0.6,2c0,0.5,0,1,0,1.6
		c0,0.3-0.1,0.5-0.1,0.8C76.4,95.3,76.5,95.7,76.3,96.1 M71.9,90.6c0.2,0.3,1.4,1.7,1.4,1.9c0,0.1-0.1,0.1-0.2,0.1
		c-0.4,0-0.7,0-1.1,0c-0.7,0-1.3,0-2,0c0,0,0,0,0,0h0c0-0.1,0.1-0.3,0.2-0.4c0.2-0.4,1-1.5,1-1.9c0-0.1-0.1-0.2-0.2-0.3
		c-0.5-0.2-1.1,0-1.7,0c-0.3,0-1-0.2-1.3,0c-0.6,0-2.5-0.3-2.8,0.2c-0.1,0.1,0,0.3,0.1,0.4c0.2,0.5,0.6,0.9,0.9,1.3
		c0.2,0.3,0.3,0.5,0.5,0.8v0c0,0-0.1,0-0.1,0c-1.2,0-2.4-0.1-3.6-0.1v-0.1c0,0,1.8-2.1,2-2.3c0-0.1,0-0.1,0-0.1
		c-0.2,0-0.4-0.1-0.6-0.1c-0.4,0-0.7,0-1.1-0.1c-1,0-2.1,0-3.1-0.1c0-0.1,1.5-1.5,1.7-1.7c1.3-1.3,2.6-2.6,3.9-3.9
		c0.5-0.5,0.9-0.9,1.4-1.4c0.1-0.1,0.3-0.3,0.5-0.4c0,0,0-0.1,0-0.1c0.3,0.2,0.5,0.5,0.8,0.7c0.4,0.4,0.8,0.8,1.2,1.2
		c0.2,0.2,0.5,0.5,0.7,0.7c1.1,1.2,2.3,2.3,3.4,3.4c0.5,0.5,1.1,1,1.4,1.5c-0.1,0-0.2,0-0.3,0c-0.4,0-0.7,0-1.1,0
		c-0.1,0-0.3,0-0.4,0c-0.5,0-1.1-0.1-1.5,0.1C71.6,90.2,71.8,90.5,71.9,90.6 M68.2,92.6c0-0.1,0.9-1.5,1.1-1.7
		c0.1-0.1,0.2-0.2,0.3-0.2v0c0.2,0,0.4,0,0.7,0c0,0.3-1,1.8-1.3,1.9C68.7,92.6,68.4,92.6,68.2,92.6L68.2,92.6L68.2,92.6z M61.6,92.4
		c-0.2,0.1-0.6,0-0.9,0c0-0.4,1.6-1.5,1.9-1.9c0.2,0,0.4,0,0.7,0C63.3,90.9,61.9,92.3,61.6,92.4 M75,78.4c-0.3,0-0.8-0.1-1,0.1
		c-0.3,0-0.7-0.2-1,0c-0.1,0-0.2,0-0.3,0c-0.3,0-0.8-0.1-1,0.1c-0.1,0-0.3,0-0.4,0.1c-0.3,0-0.9-0.1-1.1,0c-0.1,0-0.3,0-0.4,0
		c-0.1,0-0.3,0-0.4,0c-0.2,0-0.5,0-0.6,0.2c-0.1,0,0,0.2,0,0.3c0,0.8-0.5,1.5-1.3,1.5c-0.6,0-1.1-0.5-1.3-1c0-0.2,0-0.5-0.1-0.6
		c-0.1-0.1-0.2-0.1-0.3-0.1c-0.3,0-0.6,0-0.9,0c-0.1,0-0.1,0-0.2,0c-0.7,0-1.3-0.1-2.1-0.1c-0.2,0-0.5,0-0.6,0c-0.5,0-1,0-1.6,0
		c-0.3,0-0.6,0-0.8,0.1c-0.8,0-1.5-0.1-2.3-0.1c-0.3,0-0.6-0.1-0.9,0c-0.2,0-0.5,0-0.6-0.1c0-0.2,0.1-0.3,0.2-0.5
		c0.2-0.5,0.4-0.7,0.8-1c0.2-0.2,0.4-0.4,0.7-0.6c1.1-0.7,2.8-0.7,4.2-0.4c0.3,0.1,0.5,0.1,0.8,0.2c0.9,0.2,1.7,0.3,2.4,0.7
		c0.5,0.3,0.9,0.7,1.3,1c0.1,0.1,0.2,0.2,0.4,0.2c0.2,0.2,0.4,0.5,0.7,0.5c0.4,0,0.7-0.5,1-0.7c0.3-0.2,0.7-0.5,1-0.7
		c1-0.5,2-1,3.2-1.3c0.4-0.1,0.8-0.2,1.2-0.3c0.2,0,0.5,0,0.7-0.1c0.3,0,0.7,0,1,0c0.6,0.1,1.2,0.4,1.6,0.7c0.2,0.2,0.4,0.4,0.6,0.7
		c0.3,0.3,0.7,0.7,0.7,1.2c0,0,0,0,0,0c0,0.1-0.3,0-0.4,0C76.8,78.4,75.9,78.4,75,78.4 M55.1,73c0-0.4,0.1-0.8,0.1-1.2
		c0-0.4-0.1-0.9-0.1-1.3c0-0.7,0.1-1.5,0.1-2.2c0-0.4,0-0.9-0.1-1.3c0-0.3,0-0.7,0-1c0-0.3-0.1-0.7-0.1-1c0-0.5,0.2-1,0.2-1.6
		c0-0.3,0-0.6-0.1-0.9c0-0.2,0-0.3,0-0.5c0-0.6,0.1-1.3,0.1-1.9c0-0.4-0.1-1.1,0-1.5c0.1-0.4,1.3-1.7,1.7-1.9v0c0.1,0.3,0,0.8,0,1.1
		c0,0.4-0.1,0.9-0.1,1.3c0,0.3,0,0.6,0.1,0.9c0,0.5,0,1.1,0,1.6c0,0.2,0,0.5-0.1,0.7c0,0.3,0,0.6,0,0.9c0,0.8-0.1,1.6,0,2.4
		c0,0.9-0.1,1.8-0.1,2.6c0,0.3,0.1,0.6,0.1,1c0,0.7,0,1.3,0,1.9c0,0.3,0,0.6-0.1,0.9c0,0.5,0,1,0,1.5c0,0.6,0.1,1.7-0.1,2.2
		c-0.1,0.2-0.3,0.3-0.3,0.4c-0.1,0.2-0.3,0.4-0.4,0.6c-0.1,0.1-0.3,0.3-0.4,0.4c-0.1,0.3-0.3,0.5-0.4,0.8h0v0h0
		c0-0.8-0.1-1.7-0.1-2.5c0-0.5,0.1-1,0.1-1.5C55.2,73.6,55.1,73.3,55.1,73 M57.7,70c0-0.4,0.1-0.8,0.1-1.1c0-0.9,0-1.9,0-2.7
		c0-0.4-0.2-0.8-0.1-1.3c0-0.6,0.1-1.2,0.1-1.8c0-0.7,0-1.4,0-2.1c0-1.2,0.1-2.4,0.1-3.6c0-0.3-0.1-1.1,0.1-1.3
		c0.1-0.2,0.5-0.2,0.7-0.3c0.7,0,1.4,0,2.1,0c0.5,0,1,0.1,1.5,0.2c0.3,0.1,0.6,0.1,0.9,0.2c0.3,0.1,0.5,0.2,0.8,0.3
		c1,0.4,1.9,0.7,2.6,1.6c0.4,0.5,0.3,1.2,0.3,1.8c0.2,1.9,0,3.9,0,5.8c0,1.2,0,2.4-0.1,3.7c0,0.4,0,0.9,0,1.3c0,1-0.1,2-0.1,3
		c0,0.7,0,1.4-0.1,2c-0.1,0.6-0.1,1-0.3,1.5v0c-0.1,0-1.2-0.8-1.3-0.9c-0.5-0.3-1.5-0.7-2.1-0.8c-0.5-0.1-1-0.1-1.5-0.2
		c-0.4-0.1-1.5-0.3-2-0.1c-0.1,0-0.2,0-0.3,0c-0.1,0-0.3,0-0.4,0.1c-0.1,0-0.3,0-0.4,0.1h-0.5c0-0.4,0.1-0.8,0.1-1.2
		c0-0.3-0.1-0.6-0.1-1c0-0.4,0.1-0.7,0.1-1.1C57.7,71.5,57.7,70.8,57.7,70 M66.7,49.1c0-0.2,0-0.4,0-0.5c0.1-0.1,0.2-0.2,0.3-0.3
		c0.1,0,0.3,0,0.4,0.1c0.1,0.1,1,0.9,1,1c0.1,0.3-0.7,0.8-1,0.9c-0.1,0-0.2-0.1-0.3-0.1c-0.1-0.1-0.2-0.1-0.3-0.2
		C66.6,49.7,66.7,49.4,66.7,49.1 M66.2,48.3c-0.2,0.1-0.4,0.4-0.6,0.4c-0.2,0-0.3-0.1-0.4-0.2c-0.3-0.3-0.5-0.8-0.4-1.2
		c0.1-0.1,0.1-0.2,0.2-0.4c0.1-0.4,0.1-0.4,0.3-0.7c0.4,0.2,1.4,1,1.3,1.5C66.6,48,66.3,48.2,66.2,48.3 M66.4,50.7L66.4,50.7
		c0,0.1-0.2,0-0.3,0c-0.7-0.1-1.4-0.3-0.8-1.1c0.1,0,0.2,0,0.3,0.1c0.2,0.1,0.2,0.3,0.3,0.4C66.1,50.4,66.3,50.5,66.4,50.7
		 M63.4,45.2c0,0,0.3-0.4,0.4-0.4v0c0.5,0.4,1,1,0.4,1.6c-0.1,0.1-0.3,0.3-0.4,0.3c-0.5,0.1-0.3-0.5-0.3-0.8
		C63.5,45.6,63.4,45.4,63.4,45.2 M64.4,44.4v-0.1c0.1,0,0.2-0.1,0.3-0.1c0.5-0.1,0.9-0.2,1.3-0.4c0.1,0,0.4,0,0.4,0.2
		c0.2,0.4-0.9,1.2-1.2,1.1C64.8,45,64.6,44.6,64.4,44.4 M63.7,48c0.1,0,0.2,0.1,0.2,0.1c0.2,0.1,1,0.8,1,1.1c0,0.2-0.6,0.7-0.8,0.7
		c-0.2,0-0.2-0.1-0.3-0.3C63.7,49.1,63.5,48.5,63.7,48 M69.3,46.9c0.1,0,0.2,0,0.4,0c0.4,0.1,0.7,0.7,0.6,1.1
		c-0.1,0.2-0.3,0.4-0.5,0.5c-0.1,0.1-0.3,0.2-0.5,0.2c-0.2,0-0.1-0.6-0.1-0.7c0.1-0.2,0.3-0.3,0.3-0.5
		C69.5,47.3,69.3,47.2,69.3,46.9 M69.9,45.1c-0.1,0.1-0.3,0.3-0.5,0.3c-0.3,0-0.4-0.4-0.6-0.5c-0.2-0.2-0.6-0.3-0.5-0.6
		c0-0.1,0.1-0.2,0.3-0.3v0c0.3,0.1,0.5,0.2,0.8,0.3c0.3,0.1,0.6,0.2,0.9,0.3c0.1,0,0.1,0.1,0.1,0.2C70.2,45,70,45.1,69.9,45.1
		 M69.3,50.5c-0.1,0.3-0.8,0.4-1,0.3c-0.4-0.2,0.3-0.7,0.5-0.8C69,50.1,69.4,50.3,69.3,50.5 M76.5,57.6c0,0.2,0.1,0.5,0.1,0.7
		c0,0.8,0,1.6,0,2.4c0,0.3,0,0.7,0,1c0,1-0.1,2.2-0.1,3.2c0,0.3,0,0.5,0.1,0.8c0,0.6,0,1.2,0,1.8c0,0.3-0.1,0.6-0.1,0.9
		c0,0.5,0,1.1,0,1.6c0,0.2,0,0.5-0.1,0.7c0,0.4,0,0.9,0,1.4c0,0.4-0.1,0.7-0.1,1.1c0,0.7,0.1,1.4,0,2.1c-0.2-0.1-0.5-0.1-0.7-0.2
		c-0.5-0.1-1.5-0.3-2-0.1c-0.1,0-0.2,0-0.3,0c-0.1,0-0.2,0-0.3,0c-0.2,0-0.8,0.1-1,0.2c-0.6,0-0.9,0.2-1.4,0.4
		c-0.4,0.2-0.8,0.3-1.2,0.6c-0.4,0.2-0.9,0.6-1.4,0.8c0,0.1-0.1-0.1-0.2-0.1c-0.4-0.8-0.4-2.2-0.4-3.3c0-0.4-0.1-0.8-0.1-1.1
		c0-0.1,0-0.3,0-0.4c0-0.2,0-0.4-0.1-0.6c0-0.8,0-1.6,0-2.4c0-0.8-0.1-1.6,0-2.5c0-0.5,0-1.1,0.1-1.7c0-0.2,0-0.5,0.1-0.7
		c0-0.6,0-1.2,0-1.8c0-0.4,0.1-0.8,0.1-1.2c0-0.8,0-1.6,0.1-2.3c0-0.3,0-0.6,0.2-0.8c0.3-0.3,0.6-0.5,1-0.7c1.4-0.7,2.9-1,4.5-1.3
		c0.3-0.1,0.8,0,1.1-0.1c0.3,0,0.6,0.1,0.9,0.1c0.2,0,0.5,0,0.7,0.1c0.1,0,0.1,0.3,0.1,0.4C76.6,57,76.5,57.3,76.5,57.6 M72.2,42.6
		L72.2,42.6l-0.1,0c0-0.1,0-0.3,0-0.4c0.1-0.4,0.4-0.6,0.7-1C73.2,41.7,72.5,42.3,72.2,42.6 M72.5,47.5c0,0.3-0.2,0.7-0.4,0.8
		c0,0.1-0.2,0-0.2,0C71.9,47.9,72.3,47.7,72.5,47.5L72.5,47.5z M71.7,46.9c-0.1,0.1-0.2,0.2-0.4,0.2c-0.2,0-0.2-0.1-0.3-0.2
		c0-0.1,0-1.5,0-1.6c0-0.2,0.3-0.3,0.4-0.4c0.3,0.1,0.3,0.3,0.4,0.6C72.1,46,72.3,46.5,71.7,46.9 M71.2,49.4
		C71.2,49.4,71.2,49.4,71.2,49.4c0,0.2-0.6,0.6-0.7,0.4c-0.2-0.2,0.1-0.5,0.2-0.6C70.9,49.2,71,49.2,71.2,49.4 M74.4,39
		c0.2-0.2,0.3-0.4,0.4-0.6c0.1-0.1,0.3-0.3,0.4-0.4c0.3,0,0.6,0.1,0.9,0.1v0.1c-0.5,0-1.7,1.5-2,1.9c-0.1,0.2-0.3,0.5-0.5,0.6
		c-0.1,0.1-0.3,0-0.4-0.1c-0.3-0.2-0.1-0.5,0-0.7c0-0.1,0.1-0.3,0.2-0.4c0.1-0.1,0.2-0.1,0.4-0.2C74.1,39.3,74.3,39.1,74.4,39
		 M71.5,40c0.1-0.2,0.1-0.5,0.2-0.7c0.1-0.3,0.5-0.3,0.7-0.5c0.2-0.2,0.2-0.4,0.4-0.6c0.2-0.2,0.4-0.2,0.6-0.3c0.2,0,0.3,0,0.5,0
		c0,0.2-0.3,0.4-0.4,0.6c-0.1,0.2-0.3,0.5-0.4,0.7c-0.2,0.2-0.3,0.5-0.5,0.7c-0.1,0.2-0.2,0.4-0.3,0.5c-0.1,0.1-0.2,0.2-0.3,0.2
		c-0.1,0.1-0.2,0.2-0.3,0.3c-0.1,0.1-0.2,0.2-0.3,0.3c-0.2,0.2-0.2,0.5-0.4,0.7c-0.2,0.2-0.6,0.3-0.9,0.2h-0.1c0-0.1,0.6-1,0.7-1.1
		c0.1-0.1,0.3-0.1,0.4-0.2c0.1-0.1,0.1-0.3,0.1-0.4C71.3,40.3,71.4,40.2,71.5,40 M68.2,41c0-0.2,0.1-0.4,0.1-0.6
		c0-0.3-0.2-0.6-0.1-0.9c0.1-0.2,0.3-0.4,0.3-0.6c0.1-0.3,0-0.5,0.2-0.7c0.2-0.2,1.3,0,1.7-0.2c0.2,0,0.5,0,0.7,0v0.1
		c-0.1,0-0.1,0-0.1,0.1c-0.3,0.5-0.5,1-0.7,1.6c-0.1,0.2-0.2,0.4-0.3,0.6c-0.1,0.2-0.2,0.4-0.3,0.6c-0.2,0.4-0.8,1.1-1.3,1.2v0
		c-0.1,0,0-0.4-0.1-0.5C68.2,41.4,68.2,41.2,68.2,41 M68.7,46c-0.1,0.3-0.4,0.5-0.6,0.7c-0.2,0.2-0.5,0.5-0.8,0.5
		c-0.3,0-0.8-1.4-0.7-1.7c0-0.1,0.5-0.6,0.6-0.7c0,0,0,0,0,0c0.2,0,0.3,0,0.5,0C67.9,45,68.8,45.7,68.7,46 M64.8,38
		c0.2-0.2,0.8-0.1,1-0.1c0.3,0.1,1,0.1,1.3,0.1c0,0.2,0,0.4,0,0.6c0,0.1,0.1,0.3,0.1,0.4c0,0.2-0.1,0.3-0.1,0.5c0,0.7-0.1,1.4-0.1,2
		c0,0.4,0,0.8,0.1,1.3h0v0c-0.6,0-1.2-1.7-1.4-2.1c-0.1-0.2-0.3-0.4-0.5-0.6C64.9,39.6,64.3,38.5,64.8,38 M61.3,38.3
		C61.3,38.3,61.3,38.3,61.3,38.3C61.3,38.3,61.3,38.3,61.3,38.3c0.1-0.3,0.8-0.3,1-0.5c0.3,0,0.6,0,0.8,0.1c0.6,0.3,0.8,1.2,1.1,1.8
		c0.2,0.4,0.4,0.7,0.6,1.1c0.1,0.2,0.2,0.4,0.3,0.6c0.1,0.2,0.1,0.4,0.1,0.6c0,0.2,0,0.5-0.1,0.5c-0.1,0.1-0.3,0-0.4,0
		C64.4,42.5,61.3,38.6,61.3,38.3L61.3,38.3z M59.6,37.9c0.3,0.1,0.5,0.1,0.7,0.4c0.3,0.3,0.6,0.7,0.9,1.1c0.1,0.2,0.2,0.4,0.4,0.6
		c0.2,0.2,0.4,0.5,0.6,0.7c0.2,0.2,0.4,0.5,0.6,0.7c0.1,0.1,0.1,0.2,0.2,0.3c0.1,0.1,0.3,0.2,0.4,0.4c0.3,0.3,0.6,0.6,0.7,1
		c-0.1,0-0.1,0.1-0.1,0.1c-0.2,0-0.5-0.1-0.7-0.2c-0.3-0.3-0.6-0.6-0.8-0.9c-0.2-0.2-0.4-0.2-0.5-0.5c-0.3-0.4-0.5-0.9-0.9-1.2
		c-0.2-0.2-0.5-0.2-0.7-0.4c0,0,0,0,0,0c-0.2-0.2-0.3-0.5-0.5-0.8c-0.2-0.3-0.5-0.5-0.7-0.8c0,0,0,0,0-0.1c0,0,0,0,0,0
		C59.1,38.1,59.4,38,59.6,37.9 M51.3,37.8c0.4,0,1,0.1,1.3,0c0.3,0.1,0.7,0,1,0.1c0.3,0,0.5,0,0.8,0h1.1c0.2,0,0.3,0.1,0.5,0.1
		c0.3,0,0.7-0.2,1-0.1c0.4,0.1,0.7,0.6,1,0.9c0.5,0.5,0.9,0.9,1.4,1.4c0.3,0.3,0.6,0.7,0.9,1c0.4,0.4,0.8,0.7,1.2,1.1
		c0.2,0.2,0.4,0.5,0.6,0.7c0.1,0.1,0.3,0.2,0.4,0.3c0.2,0.2,0.5,0.5,0.6,0.8c-0.1,0-0.3,0.3-0.4,0.4c-0.4,0.4-0.6,0.8-0.8,1.3
		c0,0.2-0.1,0.4-0.1,0.6c-0.1,0.3-0.1,0.6-0.1,1c0.1,0.2,0.1,0.5,0.2,0.7c0.1,0.2,0.2,0.5,0.3,0.7c0.1,0.3,0.2,0.5,0.4,0.8
		c0.1,0.2,0.4,0.2,0.5,0.4c0.2,0.1,0.2,0.3,0.4,0.5c0.2,0.1,0.3,0.2,0.5,0.2c0.2,0.2,0.4,0.3,0.7,0.4c0.3,0.2,0.7,0.3,0.9,0.6
		c0.2,0.2,0.3,0.5,0.5,0.7c0.2,0.2,0.4,0.3,0.5,0.5c0.1,0.2,0.1,0.4,0.1,0.5c0,0.2,0,0.4,0,0.5c0.1,0.4,0.2,0.9,0.2,1.3
		c-0.3,0-1.1-0.9-1.3-1.1c-0.5-0.5-1.1-1-1.6-1.5c-0.4-0.4-0.8-0.8-1.2-1.2c-0.8-0.8-1.6-1.6-2.4-2.3c-0.4-0.4-0.8-0.8-1.2-1.3
		c-0.2-0.2-0.3-0.4-0.5-0.6c-1.4-1.4-2.8-2.8-4.2-4.1c-0.4-0.4-0.7-0.8-1.1-1.2c-0.8-0.8-1.6-1.6-2.4-2.4c-0.4-0.4-1.3-0.9-1.4-1.5
		C50.1,37.8,50.7,37.8,51.3,37.8 M62.8,47.5c-0.4,0.1-0.3-0.7-0.3-1C62.8,46.6,63.4,47.4,62.8,47.5 M42.2,80.4
		c-0.6,0.6-1.1,1.3-1.8,1.9c-0.9,0.9-1.8,1.8-2.7,2.7c-0.3,0.3-0.7,0.6-1,1h0c0,0.1-0.1-0.2-0.1-0.2c0-0.3,0-0.6,0-0.9
		c0-1,0-1.9,0.1-2.9c0-0.8,0-1.5,0-2.3c0-0.3,0-0.5,0-0.8c0-0.7,0.1-1.5,0.1-2.3c0-0.3,0-0.6,0-0.9c0-0.5,0-0.9,0-1.4
		c0-0.3,0-0.6,0-0.9c0-0.8,0-1.6,0-2.5c0-0.2,0-0.5,0-0.7c0-0.3,0.1-0.6,0.1-0.9c0-0.7,0-1.3,0-2c0-0.5,0.1-1,0.1-1.5
		c0-1.1-0.1-2.2,0-3.2c0-0.5,0.1-1,0.1-1.6c0-0.3,0-0.5-0.1-0.8c0-1.1,0-2.2,0-3.3c0-0.2,0-0.5,0-0.7c0-0.3,0-0.5,0.1-0.8
		c0-0.3-0.1-0.6,0-1c0-0.2,0-0.4,0.1-0.6c0-0.5,0-1,0-1.6c0.4,0.2,0.8,0.6,1.1,1c0.7,0.7,1.5,1.5,2.2,2.2c0.3,0.3,0.5,0.5,0.8,0.8
		c0.6,0.5,1.1,1.1,1.6,1.7c0.2,0.2,0.3,0.4,0.5,0.6c0.4,0.4,0.8,0.7,1.1,1c0.2,0.2,0.2,0.3,0.4,0.5c0.9,0.8,1.8,1.6,2.7,2.4
		c0.8,0.9,1.7,1.7,2.5,2.6c0.5,0.5,3.9,3.6,3.7,4.1c-0.1,0.1-0.1,0.2-0.2,0.3c-0.4,0.7-1.3,1.4-1.9,2c-0.2,0.2-0.3,0.4-0.5,0.6
		c-0.5,0.5-1,1-1.5,1.5c-0.7,0.7-1.4,1.3-2.1,2c-0.4,0.5-0.9,0.9-1.3,1.4c-0.1,0.1-0.2,0.3-0.3,0.4C44.4,78.3,43.3,79.4,42.2,80.4
		 M60.6,101.1c-0.4,0-1.6-0.1-1.8,0.1c-0.1,0.1-0.1,0.2-0.1,0.3c0,1.2,0,2.3,0,3.5c0,0.5,0.1,1.2,0,1.7c0,0.1-0.1,0.2-0.2,0.3v0
		c-0.4,0-0.7-0.2-1-0.2c-0.3,0-0.6,0-0.9,0c-0.2,0-0.5-0.1-0.7-0.1c-0.4,0-0.9-0.1-1.3-0.1c-0.2,0-0.5,0-0.6,0c-1,0-2-0.2-3-0.3
		c-0.5-0.1-0.9-0.1-1.3-0.1c-0.4-0.1-0.7-0.1-1.1-0.2c-0.2,0-0.3-0.1-0.5-0.1c-0.2,0-0.5,0-0.7,0c-0.5-0.1-1-0.2-1.6-0.3
		c-0.4-0.1-0.9-0.1-1.3-0.2h0v-0.1c0.1,0,0,0,0.1,0c0.2-0.4,0.7-0.8,1-1.1c0.3-0.3,0.6-0.6,0.9-0.9c0.5-0.5,1-0.9,1.4-1.3
		c0.2-0.2,0.5-0.4,0.7-0.7c0.2-0.2,0.4-0.4,0.6-0.6c1.2-1.1,2.4-2.3,3.6-3.4c0.7-0.7,1.4-1.5,2.1-2.2c1-1,2-1.9,3-3
		c0.3-0.3,0.6-0.6,0.9-0.9c0.2,0.3,0.1,1.3,0,1.6c0,0.5-0.1,1.1-0.1,1.7c0,0.4,0,0.8,0.1,1.1c0.1,0.3,0.3,0.6,0.5,0.8
		c0.1,0.2,0.2,0.4,0.3,0.5c0.3,0.1,1.1,0.2,1.4,0.2c0.6,0,1.2-0.1,1.9-0.1c0,0.4-0.3,0.9-0.4,1.3c-0.3,0.7-0.5,1.3-0.8,2
		c-0.1,0.2-0.2,0.6-0.4,0.8c-0.1,0.1-0.3,0.1-0.5,0.1C60.7,101.1,60.6,101.1,60.6,101.1 M63.5,108.8c-0.5-0.1-0.9-0.4-1.3-0.5
		c-0.3-0.1-0.7-0.2-1-0.4h0v0h0c0-0.1,0,0,0,0c0.6,0,3.6,0.1,3.9-0.1c0.1-0.1,0.1-0.7,0.1-0.9c0-1.4-0.2-3.3,1.1-4
		c0.2-0.1,0.4-0.1,0.6-0.2c0.4,0,1.2,0.1,1.2,0.6c0,0.1-0.1,0.1-0.2,0.1c-0.8,0.1-1,0.6-1.4,1.2c-0.3,0.5-0.2,1.5-0.3,2.2
		c0,0.7-0.1,1.3-0.1,2h0c0,0.1-0.4,0-0.5,0c-0.2,0-0.4,0.1-0.6,0.1C64.6,108.8,64,108.8,63.5,108.8 M69.3,108.8
		c-0.2,0.4-0.6,0.6-0.9,0.9c-0.1,0.2-0.3,0.4-0.5,0.5c-0.4,0.4-0.8,0.7-1,1.2h0c-0.3-0.3-0.5-0.6-0.8-0.9c-0.3-0.2-0.8-0.5-1.1-0.7
		v0h0v0h0c0-0.1,0.1,0,0.1-0.1c0.2,0,0.3-0.1,0.5-0.1c0.5,0,1,0,1.5,0c0-0.1,0-0.2,0.1-0.3c0-0.2,0-0.4,0.1-0.6c0-0.2,0-0.4-0.1-0.6
		c0-0.2,0-0.4,0-0.6c0-0.4-0.1-0.9,0-1.3c0.1-0.2,0.1-0.5,0.2-0.7c0.1-0.3,0.1-0.7,0.3-0.9c0.2-0.2,0.5-0.2,0.8-0.3
		c0.1,0,0.2,0.1,0.2,0.2c0.1,0.3,0,0.7,0,1c0,0.8,0,1.5,0,2.2c0,0.2,0.1,0.3,0.2,0.5C69,108.3,69.1,108.6,69.3,108.8
		C69.3,108.8,69.3,108.8,69.3,108.8 M71.8,107.8c-0.2,0-0.4,0.1-0.5,0.2c-0.4,0.2-0.8,0.4-1.2,0.5c0,0.1,0,0-0.1,0
		c-0.2-0.2-0.3-0.6-0.4-0.8c0.2,0,0.5,0,0.7,0C70.9,107.6,71.3,107.7,71.8,107.8L71.8,107.8z M73.4,101c-0.3,0.1-0.7-0.1-0.8-0.3
		c-0.2-0.2-0.2-0.5-0.3-0.7c-0.1-0.4-0.3-0.8-0.4-1.2c-0.1-0.3-0.3-0.6-0.3-1c0-0.2,0.2-0.3,0.4-0.4c0.1,0,0.2,0.1,0.3,0.2
		c0.1,0.1,0.1,0.3,0.2,0.4c0.1,0.4,0.3,0.8,0.4,1.2c0.1,0.5,0.3,1,0.5,1.4C73.3,100.6,73.5,100.9,73.4,101 M76.2,106.3
		c-0.1,0.2-0.5,0.2-0.7,0.3c0-1.1-0.1-2.2,0-3.3c0-0.3,0-0.7,0-1c0-0.1,0.1-0.1,0.1-0.2c0.2,0,0.4,0,0.6,0.1c0.1,0,0.1,0.5,0.1,0.6
		c0,0.2,0,0.5,0,0.7c0,0.4-0.1,0.7,0,1.1C76.3,104.9,76.4,106,76.2,106.3 M89.2,104.9c-0.1,0-0.3,0-0.4,0.1c-0.2,0-0.7,0.1-0.8,0.2
		c-0.4,0-0.7,0.2-1.1,0.2c-0.2,0-0.5,0.1-0.7,0.1c-0.2,0-0.4,0-0.5,0.1c-0.1,0-0.2,0-0.3,0c-0.1,0-0.2,0-0.3,0c-0.3,0-0.6,0-0.8,0.1
		c-0.1,0-0.2,0-0.3,0c-0.4,0-0.9-0.1-1.3,0.1c-0.2,0-0.3,0-0.5,0c-0.2,0-0.3,0-0.5-0.1c0,0.1-0.5,0.2-0.6,0.2c-0.3,0-0.7-0.1-0.9,0
		c-0.1,0-0.2,0-0.3,0c-0.3,0-0.6,0-0.9,0.1c-0.2,0-0.4,0-0.6,0.1c-0.3,0-1,0.1-1.2-0.1c-0.3-0.2-0.1-3-0.1-3.5c0-0.3,0-0.5,0-0.8
		c0-0.3,0.1-1.2-0.4-1c-0.3,0-0.8-0.1-1,0c-0.3,0-1,0.1-1.2-0.1c-0.3-0.3-0.5-1.3-0.6-1.7c-0.2-0.6-0.6-1.2-0.7-1.9
		c0-0.1,0-0.2,0-0.2c0.1-0.2,0.7-0.1,0.9-0.1c0.5,0,2.8,0,3-0.3c0.1-0.2,0.1-0.9,0.1-1.2c0-0.4,0-0.8,0.1-1.3c0-0.6-0.1-1.4,0.1-2
		c1.5,1.6,3.1,3.1,4.7,4.6c0.1,0.2,0.3,0.4,0.4,0.5c0.4,0.4,0.8,0.7,1.2,1.1c1.1,1,2,2.1,3,3.2c0.8,0.8,1.6,1.6,2.4,2.4
		c0.1,0.2,0.4,0.3,0.5,0.5C89.5,104.8,89.3,104.9,89.2,104.9 M97.7,64.7c0,0.4,0.1,0.8,0.1,1.3c0,0.2,0,0.5-0.1,0.7c0,0.5,0,1,0,1.6
		c0,0.2,0,0.3,0,0.5c0,0.3,0.1,0.7,0.1,1c0,0.5-0.1,0.9-0.1,1.4c0,0.6,0.1,1.2,0.1,1.8c0,0.4-0.1,0.7-0.1,1.1c0,0.1,0,0.3,0,0.4
		c0,0.4,0,0.8,0,1.2c0,0.3,0,0.6,0.1,0.8c0,0.2-0.1,0.4-0.1,0.6c0,0.4,0,0.8,0,1.2c0.1,0.6,0.1,1.4,0,2c0,0.1,0,0.3-0.1,0.4
		c0,0.4,0.1,0.7,0.1,1c0,0.2-0.1,0.4-0.1,0.6c0,0.2,0,0.4,0,0.7c0,0.3,0,0.6,0,0.9c0,0.3,0.2,1.8-0.1,1.8c-0.2,0-1.5-1.5-1.8-1.7
		c-1.7-1.7-3.5-3.5-5.2-5.3c-0.3-0.3-0.5-0.6-0.8-0.9c-0.2-0.2-0.5-0.5-0.7-0.7c-0.1-0.1-0.3-0.3-0.4-0.4c-1.7-1.6-3.3-3.3-5-4.9
		c-0.3-0.3-2.5-2.5-2.5-2.6c0,0,0-0.1,0-0.1c0.2-0.4,0.8-0.9,1.2-1.2c0.4-0.4,0.6-0.7,1-1.1c0.3-0.3,0.6-0.6,1-0.9
		c0.1-0.1,0.2-0.2,0.4-0.3c0.3-0.3,0.5-0.6,0.8-0.8c0.3-0.3,0.5-0.5,0.8-0.8c0.2-0.3,0.5-0.6,0.7-0.8c0.3-0.3,0.6-0.5,0.9-0.8
		c0.4-0.4,0.8-0.8,1.1-1.2c0.4-0.4,0.9-0.8,1.3-1.2c0.8-0.9,1.7-1.7,2.5-2.6c1.3-1.2,2.6-2.4,3.8-3.8c0.3-0.3,0.8-0.6,1-1
		c0.2,0.3,0.1,1.1,0.1,1.5c0.1,1,0,2,0,3c0,0.5,0,1,0.1,1.5c0,0.5-0.1,1-0.1,1.6c0,0.3,0,0.6,0.1,0.9c0,0.1,0,0.3,0,0.4
		c0,0.2,0,0.3,0,0.5c0,0.1,0,0.3-0.1,0.4C97.7,63,97.7,63.8,97.7,64.7"/>
	<path style="fill:#231F20;" d="M77.8,60.9c-0.2,0.3-0.1,0.5,0.2,0.6v0C78.2,61.5,78,61,77.8,60.9"/>
	<path style="fill:#231F20;" d="M78,63.7c0-0.1-0.1-0.2-0.3-0.3c-0.2,0.3-0.1,0.8-0.1,1.3c0,0.5,0,1.1,0,1.6c0,0.4,0,0.9,0,1.3
		c0,0.1,0,0.3,0,0.5c0,0.2,0.3-0.1,0.3-0.2c0.3-0.6,0.1-1.9,0.1-2.6C78,64.7,78.1,64.1,78,63.7"/>
	<path style="fill:#231F20;" d="M78.7,64.3c-0.3,0.4-0.1,1-0.1,1.5c0,0.4-0.1,0.7,0.1,1.1h0.1c0.4,0,0.4-2.1,0.3-2.4
		C78.9,64.3,78.8,64.3,78.7,64.3"/>
	<path style="fill:#231F20;" d="M68.5,68c0.2,0,0.4-0.2,0.6-0.3c0.5-0.3,1.1-0.6,1.7-0.9c0.3-0.1,0.7-0.2,1-0.3
		c0.5-0.1,1-0.3,1.5-0.5c0.4-0.1,0.9-0.2,1.3-0.4c0.2-0.1,0.3-0.3,0.3-0.6c0-0.3-0.2-0.4-0.4-0.4v0c-0.2,0-0.6,0.2-0.7,0.3
		c-0.5,0-0.9,0.3-1.3,0.5c-1.3,0.5-2.6,1-3.7,2c-0.1,0.1-0.6,0.4-0.4,0.6C68.4,68,68.5,68,68.5,68"/>
	<path style="fill:#231F20;" d="M64.5,66.8c-1.6-0.9-3.2-1.7-5.1-1.9v0c-0.4,0-0.6,0.7-0.3,0.9c0.3,0.2,0.8,0.1,1.2,0.1
		c0.3,0,0.5,0.1,0.8,0.1c0.7,0.1,1.3,0.4,1.9,0.6c0.5,0.2,0.9,0.3,1.3,0.5c0.4,0.2,1.6,1.2,1.9,1.1c0,0,0,0,0,0c0,0,0.1,0,0.1,0
		c0.1,0,0-0.2,0-0.2C66,67.7,65,67,64.5,66.8"/>
	<path style="fill:#231F20;" d="M74.2,69.9c-0.7,0.2-1.5,0.4-2.2,0.7c-0.2,0.1-0.4,0.2-0.5,0.3c-0.6,0.2-1.1,0.5-1.6,0.8
		c-0.5,0.3-0.9,0.5-1.3,0.9c-0.1,0.1-0.4,0.3-0.3,0.5c0.1,0.2,0.5-0.1,0.6-0.2c1.1-0.7,2.2-1.2,3.5-1.5c0.4-0.1,0.8-0.2,1.1-0.3
		c0.4-0.1,0.9-0.1,1.2-0.3c0.3-0.2,0.4-0.7,0-0.9C74.7,70,74.4,70,74.2,69.9"/>
	<path style="fill:#231F20;" d="M66,73.1c-0.3-0.4-0.9-0.8-1.3-1c-0.2-0.1-0.3-0.1-0.5-0.2c-0.7-0.3-1.4-0.6-2.2-0.8
		c-0.3-0.1-0.5-0.2-0.8-0.3c-0.3-0.1-0.6-0.1-0.9-0.2c-0.3-0.1-0.6-0.2-0.9-0.2v0c-0.6,0-0.6,0.8-0.2,1c0.1,0,0.1,0,0.2,0.1
		c0.5,0.1,1,0.1,1.5,0.2c0.4,0.1,0.9,0.2,1.3,0.3c0.3,0.1,0.6,0.1,0.9,0.2c0.8,0.3,1.6,0.5,2.3,0.9c0.3,0.1,0.6,0.5,1,0.4
		C66.3,73.3,66.1,73.3,66,73.1"/>
	<path style="fill:#231F20;" d="M13.8,56.6c1.1,0.2,1.5,0.1,1.6-0.7l0.3,0.1L15,59.2l-0.3-0.1c0.1-0.7,0-1.1-1.2-1.4l-7-1.6
		l-0.3,1.3c-0.3,1.2-0.1,1.9,0.9,2.2L7.1,60L5,59.5L5,59.3c0.1-0.1,0.3-0.2,0.4-0.4c0.1-0.2,0.2-0.5,0.3-0.9l1.1-4.8
		c0.2-0.8,0.2-1.2,0-1.5l0.1-0.3l2.1,0.5l0,0.2c-0.8,0-1.4,0.2-1.7,1.6L6.8,55L13.8,56.6z"/>
	<path style="fill:#231F20;" d="M14.3,46.2l2.4,1.2c1,0.5,1.5,0.4,1.8-0.3l0.2,0.1l-1.5,3l-0.3-0.1c0.3-0.6,0.2-1.1-0.9-1.6L11,45.9
		c-1-0.5-1.4-0.4-1.8,0.3l-0.2-0.1l1.5-3l0.3,0.1c-0.3,0.7-0.2,1.1,0.9,1.6l2.4,1.2l2.2-4.6l-2.4-1.2c-1-0.5-1.4-0.4-1.8,0.3
		l-0.3-0.1l1.5-3l0.3,0.1c-0.4,0.7-0.1,1.1,0.9,1.6l5.2,2.6c1,0.5,1.5,0.4,1.8-0.3l0.3,0.1l-1.5,3l-0.3-0.1c0.3-0.7,0.2-1-0.9-1.6
		l-2.4-1.2L14.3,46.2z"/>
	<path style="fill:#231F20;" d="M25.4,30.8L25.2,31c-0.7-0.4-0.9-0.3-1.5,0.4l-1.5,1.8l2.6,2.1c0.4,0.3,0.6,0.3,0.9-0.1l1-1.3
		c0.9-1.1,1.1-1.4,0.5-2.6l0.2-0.2l1.1,1.4l-4.3,5.2l-0.2-0.2c0.5-0.6,0.5-1-0.5-1.8L19,32.1c-0.9-0.7-1.3-0.7-1.8-0.1l-0.2-0.2
		l4.3-5.2l1.2,1l-0.1,0.1c-0.9-0.5-1.2-0.3-1.9,0.5l-1.7,2.1l3.1,2.6l1.7-2c0.4-0.5,0.5-0.7-0.1-1.4l0.2-0.2L25.4,30.8z"/>
	<path style="fill:#231F20;" d="M43,20.2c-0.3,1.4-0.9,2.3-2,2.9c-2,1.1-3.6,0.2-4.4-1.2l-2.3-4c-0.6-1.1-1-1.1-1.7-0.8l-0.1-0.2
		l3-1.7l0.1,0.2c-0.7,0.4-0.8,0.8-0.2,1.8l2.3,4.1c0.7,1.3,1.9,1.8,3.3,1c0.9-0.5,1.5-1.5,1.6-2.7l-2.8-4.9
		c-0.5-0.9-0.9-1.1-1.6-0.8l-0.1-0.2l2.9-1.6l0.1,0.2c-0.7,0.4-0.7,0.8-0.2,1.8l2.9,5.1c0.6,1.1,1,1.1,1.7,0.8l0.1,0.2l-2,1.1
		L43,20.2z"/>
	<path style="fill:#231F20;" d="M57.8,16.5l-0.3,0.1l-8.4-6.3l0,0l1.6,6.4c0.2,0.9,0.7,1.2,1.5,0.9l0.1,0.3l-2.8,0.7l-0.1-0.3
		c0.8-0.2,1.1-0.5,0.7-1.8l-1.4-5.3c-0.3-1-0.7-1.5-1.8-1.3L47,9.6L49.3,9l7.5,5.6l0,0l-1.4-5.3c-0.3-1.2-0.7-1.4-1.5-1.2l-0.1-0.3
		l2.7-0.7l0.1,0.3c-0.9,0.2-1.1,0.7-0.8,1.7L57.8,16.5z"/>
	<path style="fill:#231F20;" d="M65.5,14c0.1,1.1,0.4,1.5,1.1,1.4l0,0.3l-3.4,0.2l0-0.3c0.8,0,1-0.3,1-1.5l-0.3-5.8
		c-0.1-1.2-0.3-1.5-1.1-1.4l0-0.3l3.4-0.2l0,0.3c-0.8,0-1,0.4-1,1.5L65.5,14z"/>
	<path style="fill:#231F20;" d="M74.9,16.4l-0.3,0l-1.9-7.9c-0.3-1.2-0.5-1.7-1.3-1.8l0-0.3l3.4,0.4l0,0.3c-0.7-0.1-1,0.2-0.9,1
		l1.5,6.3l2.9-5.5c0.4-0.8,0.3-1.3-0.5-1.4l0-0.3l2.7,0.4l0,0.3c-0.7-0.1-1.3,0.4-1.9,1.6L74.9,16.4z"/>
	<path style="fill:#231F20;" d="M89.7,16.5l-0.3-0.1c0.1-0.8,0-1-0.9-1.3l-2.2-0.8l-1.2,3.1c-0.2,0.4-0.1,0.7,0.4,0.8l1.5,0.6
		c1.3,0.5,1.6,0.5,2.6-0.4l0.3,0.1l-1,1.5l-6.3-2.3l0.1-0.3c0.7,0.3,1.1,0.1,1.5-1l2-5.5c0.4-1.1,0.3-1.5-0.5-1.8l0.1-0.3l6.3,2.3
		l-0.5,1.5l-0.2-0.1c0.2-1-0.1-1.2-1.1-1.6l-2.5-0.9l-1.4,3.8l2.5,0.9c0.6,0.2,0.9,0.2,1.3-0.5l0.3,0.1L89.7,16.5z"/>
	<path style="fill:#231F20;" d="M100.4,15.9l0.8,0.5c1.2,0.8,1.5,2,0.8,3.1c-0.6,0.9-1.7,1.5-3,0.6l-1-0.6L100.4,15.9z M97.8,19.8
		l0.6,0.4c1.4,0.9,0.6,3.1,0.9,5.8l1.6,1.1l0.2-0.2c-1.2-1,0-3.9-0.9-5.8c1.4,0.4,2.3,0,2.9-0.9c0.7-1,0.5-2.6-1.3-3.8l-3.2-2.1
		l-0.2,0.2c0.6,0.4,0.8,0.8,0.1,1.8l-3.2,4.9c-0.7,1.1-1.1,1.1-1.7,0.7l-0.2,0.2l2.8,1.9l0.2-0.2c-0.6-0.4-0.7-0.9-0.1-1.8
		L97.8,19.8z"/>
	<path style="fill:#231F20;" d="M112.7,28.3l-0.2-0.2c0.9-1.1,0.6-2.2-0.1-2.8c-0.7-0.7-1.6-0.8-2.2-0.2c-1.2,1.2,0.1,3.2,0.1,5.1
		c0,0.9-0.3,1.5-0.8,1.9c-1.1,1-2.7,1-3.8,0c-0.7-0.7-0.9-1.6-1.2-1.9c-0.1-0.1-0.3-0.1-0.5,0L104,30l1.8-1.8l0.2,0.2
		c-1.2,1.2-0.6,2.6-0.1,3.2c0.8,0.8,1.8,0.9,2.5,0.2c1.2-1.1-0.1-3.5-0.1-4.9c0-0.8,0.3-1.4,0.8-1.9c1-1,2.4-1,3.5,0.1
		c0.7,0.7,0.8,1.3,1,1.6c0.1,0.1,0.1,0.1,0.4,0l0.2,0.2L112.7,28.3z"/>
	<path style="fill:#231F20;" d="M113.5,38.3c-0.9,0.7-1.1,1.1-0.6,1.7l-0.2,0.2l-1.9-2.8l0.2-0.2c0.4,0.6,0.8,0.7,1.8,0l4.8-3.3
		c1-0.7,1.1-1.1,0.6-1.7l0.2-0.2l1.9,2.8l-0.2,0.2c-0.4-0.6-0.9-0.7-1.8,0L113.5,38.3z"/>
	<path style="fill:#231F20;" d="M118.2,46.8c-1,0.5-1.2,0.8-0.9,1.5l-0.3,0.1l-1.4-3l0.3-0.1c0.3,0.6,0.6,0.9,1.8,0.3l6.5-3
		l-0.6-1.2c-0.5-1.1-1.1-1.5-2-1.2l-0.1-0.3l1.9-0.9l0.1,0.3c-0.1,0.2-0.1,0.3,0,0.6c0,0.2,0.1,0.5,0.3,0.9l2,4.5
		c0.3,0.7,0.6,1,0.9,1.2l0.1,0.3l-2,0.9l-0.1-0.2c0.6-0.5,1-1,0.4-2.4l-0.6-1.3L118.2,46.8z"/>
	<path style="fill:#231F20;" d="M121.9,58.2c-1.1,0.2-1.4,0.5-1.2,1.3l-0.3,0.1l-0.7-3.3l0.3-0.1c0.1,0.7,0.4,1.1,1.7,0.8l2.9-0.6
		l2.6-2.6c0.9-0.9,1-1.2,0.9-1.9l0.3-0.1l0.8,3.6l-0.3,0.1c-0.2-1-0.6-1-1.1-0.6l-2.4,2.4l2.6,1c0.8,0.3,1.5,0.2,1.3-0.6l0.3-0.1
		l0.5,2.5l-0.3,0.1c-0.2-0.7-0.4-0.9-1.4-1.2l-3.7-1.4L121.9,58.2z"/>
	<path style="fill:#231F20;" d="M10.7,82c2.6-0.8,4.7,0.1,5.4,2.2c0.5,1.9-0.6,3.8-3.5,4.6c-2.2,0.6-4.7,0.1-5.3-2.2
		C6.7,84.7,8.1,82.8,10.7,82 M10.3,80.6c-2.7,0.8-4.2,3.5-3.4,6.2c0.8,2.7,3.5,4.2,6.1,3.4c2.6-0.8,4.1-3.5,3.3-6.1
		C15.6,81.4,13,79.9,10.3,80.6"/>
	<path style="fill:#231F20;" d="M14,98.8c-1,0.6-1.1,1-0.8,1.7l-0.2,0.1l-1.7-2.9l0.2-0.1c0.4,0.7,0.8,0.8,1.8,0.2l5.1-2.9
		c1-0.6,1.2-1,0.8-1.7l0.2-0.1l3.2,5.6l-1.5,0.8l-0.1-0.2c0.9-0.8,0.8-1,0.3-1.9l-1.2-2.1l-3.4,1.9l1.2,2.1c0.3,0.6,0.8,0.7,1.5,0.4
		l0.1,0.2l-2.3,1.3l-0.1-0.2c0.6-0.4,0.7-0.8,0.4-1.4l-1.2-2.1L14,98.8z"/>
	<path style="fill:#231F20;" d="M32,116.9l-0.2-0.2c0.4-0.7,0.3-0.9-0.4-1.5l-1.8-1.5l-2.1,2.6c-0.3,0.4-0.3,0.6,0.1,0.9l1.3,1
		c1.1,0.9,1.4,1,2.6,0.4l0.2,0.2l-1.4,1.1l-5.2-4.3l0.2-0.2c0.6,0.5,1,0.5,1.8-0.5l3.7-4.5c0.7-0.9,0.7-1.3,0.1-1.8l0.2-0.2l5.2,4.3
		l-1,1.2l-0.1-0.1c0.5-0.9,0.3-1.2-0.5-1.9l-2.1-1.7l-2.5,3.1l2,1.7c0.5,0.4,0.8,0.5,1.4-0.1l0.2,0.2L32,116.9z"/>
	<path style="fill:#231F20;" d="M42.7,117.2l1.6,0.7c2.7,1.2,2.8,3.8,1.8,5.8c-1.1,2.3-3,3.2-5.1,2.2l-0.9-0.4
		c-0.8-0.4-1-0.8-0.4-2.1L42.7,117.2z M38.5,123.3c-0.5,1.1-0.9,1.2-1.6,0.9l-0.1,0.3l4,1.9c3.3,1.5,5.6,0.2,6.6-2
		c1-2.2,0.5-5.1-2.8-6.6l-3.9-1.8l-0.1,0.3c0.7,0.3,0.8,0.8,0.3,1.8L38.5,123.3z"/>
	<path style="fill:#231F20;" d="M55,129.2c-0.2,1.1,0,1.5,0.7,1.7l-0.1,0.3l-3.3-0.7l0.1-0.3c0.7,0.2,1.1-0.1,1.4-1.2l1.3-5.7
		c0.3-1.2,0.1-1.5-0.7-1.7l0.1-0.3l3.3,0.7l-0.1,0.3c-0.8-0.2-1.1,0.1-1.4,1.2L55,129.2z"/>
	<path style="fill:#231F20;" d="M72,132.2l-0.3,0l-6.7-8.1h0l0.1,6.6c0,1,0.4,1.3,1.2,1.3l0,0.3l-2.8,0l0-0.3c0.8,0,1.2-0.3,1.1-1.6
		l-0.1-5.5c0-1-0.3-1.6-1.4-1.7l0-0.3l2.4,0l5.9,7.2h0l-0.1-5.5c0-1.2-0.3-1.5-1.2-1.5v-0.3l2.8,0l0,0.3c-0.9,0-1.2,0.4-1.2,1.5
		L72,132.2z"/>
	<path style="fill:#231F20;" d="M81.8,125.5l-1.1-3.8l0.9-0.2c1.5-0.4,2.4,0.2,2.7,1.3c0.3,1.1-0.3,2.1-1.6,2.5L81.8,125.5z
		 M81.5,129c0.3,1.1,0.1,1.5-0.6,1.7l0.1,0.3l4.2-1.1c1.7-0.5,2.7-1.6,2.3-3c-0.3-1.2-1.6-2-3-1.9l0,0c1.1-0.8,1.5-1.6,1.3-2.5
		c-0.3-1.2-1.6-1.9-3.7-1.3l-3.4,0.9l0.1,0.3c0.8-0.2,1.1,0,1.4,1.1L81.5,129z M81.9,125.8l0.9-0.2c1.6-0.4,2.9,0.2,3.2,1.5
		c0.4,1.3-0.3,2.2-1.2,2.4l-0.7,0.2c-0.7,0.2-1,0-1.3-1.3L81.9,125.8z"/>
	<path style="fill:#231F20;" d="M100.8,121.3c-0.3,1.4-0.9,2.3-1.9,2.9c-2,1.1-3.6,0.2-4.4-1.2l-2.3-4c-0.6-1.1-1-1.1-1.7-0.7
		l-0.1-0.2l2.9-1.7l0.1,0.2c-0.7,0.4-0.8,0.8-0.2,1.8l2.4,4.1c0.7,1.2,1.9,1.7,3.3,0.9c0.9-0.5,1.5-1.5,1.5-2.7l-2.8-4.9
		c-0.5-0.9-0.9-1.1-1.6-0.8l-0.1-0.2l2.9-1.7l0.1,0.2c-0.7,0.4-0.7,0.8-0.2,1.8l2.9,5c0.6,1.1,1,1.1,1.7,0.7l0.1,0.2l-2,1.2
		L100.8,121.3z"/>
	<path style="fill:#231F20;" d="M104.6,108.6l0.7-0.7c1-1,2.3-1.1,3.2-0.2c0.8,0.8,1.1,2,0,3.1l-0.8,0.8L104.6,108.6z M108,111.9
		l0.5-0.5c1.2-1.2,3.1,0,5.9,0.2l1.3-1.4l-0.2-0.2c-1.2,1-3.8-0.7-5.8-0.3c0.7-1.3,0.4-2.3-0.3-3c-0.9-0.9-2.5-1-3.9,0.5l-2.7,2.7
		l0.2,0.2c0.5-0.5,0.9-0.6,1.8,0.3l4.2,4.1c0.9,0.9,0.8,1.3,0.3,1.8l0.2,0.2l2.4-2.4l-0.2-0.2c-0.5,0.6-1,0.5-1.8-0.3L108,111.9z"/>
	<path style="fill:#231F20;" d="M123.4,98.8c-0.1,0.5-0.9,2-1.2,2.4c-2.1,3.5-5,3.4-6.8,2.3c-2.8-1.7-3.1-4.9-1.9-6.8
		c0.7-1.1,1.3-1.3,1.7-1.9c0.2-0.3,0.2-0.4,0-0.6l0.2-0.2l2.4,1.4l-0.1,0.2c-1.7-0.7-3.1,0.2-3.8,1.3c-1,1.6-0.3,3.8,1.9,5.1
		c2.3,1.4,4.9,1.1,6.1-0.8c0.3-0.6,0.7-1.4,0-1.9l-0.9-0.5c-1-0.6-1.5-0.6-1.9,0.1l-0.2,0.3l-0.2-0.1l2-3.2l0.2,0.1
		c-0.5,0.8-0.2,1.2,0.5,1.6L123.4,98.8z"/>
	<path style="fill:#231F20;" d="M123.1,88l2.6,0.8c1.1,0.3,1.5,0.1,1.7-0.6l0.3,0.1l-0.9,3.3l-0.3-0.1c0.2-0.7,0.1-1.1-1.1-1.4
		l-5.6-1.6c-1.1-0.3-1.5-0.2-1.7,0.6l-0.3-0.1l0.9-3.3l0.3,0.1c-0.2,0.7,0,1.1,1.1,1.4l2.6,0.7l1.4-4.9l-2.6-0.7
		c-1.1-0.3-1.5-0.2-1.7,0.6l-0.3-0.1l0.9-3.2l0.3,0.1c-0.2,0.8,0.1,1.1,1.1,1.4l5.6,1.6c1.1,0.3,1.5,0.2,1.7-0.6l0.3,0.1l-0.9,3.2
		l-0.3-0.1c0.2-0.7,0.1-1.1-1.1-1.4l-2.6-0.8L123.1,88z"/>
	<path style="fill:#231F20;" d="M9.9,70.2C9.9,70.6,9.5,71,9,71c-0.5,0-0.8-0.4-0.8-0.8c0-0.5,0.4-0.8,0.8-0.8
		C9.5,69.3,9.9,69.7,9.9,70.2"/>
	<path style="fill:#231F20;" d="M127,70.2c0,0.5-0.4,0.8-0.8,0.8c-0.5,0-0.8-0.4-0.8-0.8c0-0.5,0.4-0.8,0.8-0.8
		C126.7,69.3,127,69.7,127,70.2"/>
	<polygon style="fill:#6D6E70;" points="188.6,70.7 188.3,73.4 179,73.4 178,80.7 186.2,80.7 185.8,83.4 177.6,83.4 176.5,91.1 
		188.6,91.1 188.2,93.8 173,93.8 176.4,70.7 	"/>
	<path style="fill:#6D6E70;" d="M205.3,70.7L202,93.8c-1.1,0.3-2.4,0.5-3.9,0.5c-2.6,0-4.6-0.6-5.9-1.8c-1.4-1.2-2.1-3-2.1-5.2
		c0-2.2,0.9-4.3,2.7-6.2c1.8-1.9,4.3-2.9,7.3-2.9h1.2l1-7.4H205.3z M199.4,91.9l1.6-11.3h-0.7c-2.2,0-3.9,0.7-5.2,2
		c-1.3,1.3-2,2.9-2,4.7c0,1.5,0.4,2.7,1.3,3.5c0.9,0.8,2.1,1.2,3.7,1.2C198.7,91.9,199.1,91.9,199.4,91.9"/>
	<path style="fill:#6D6E70;" d="M210.8,78.6l-2.1,15.3h-2.9l2.1-15.3H210.8z M208.2,73.8c0-0.5,0.2-0.9,0.5-1.2
		c0.3-0.3,0.7-0.5,1.2-0.5c0.5,0,0.8,0.2,1.2,0.5c0.3,0.3,0.5,0.7,0.5,1.2c0,0.5-0.2,0.8-0.5,1.2c-0.3,0.3-0.7,0.5-1.2,0.5
		c-0.5,0-0.8-0.2-1.2-0.5C208.4,74.6,208.2,74.3,208.2,73.8"/>
	<path style="fill:#6D6E70;" d="M217.4,78.6l-0.4,2.7l0.1,0c1.6-2,3.3-3,5.1-3c1.2,0,2.1,0.4,2.8,1.3c0.7,0.9,1,2,1,3.4
		c0,0.4,0,0.8-0.1,1.2l-1.5,9.6h-2.8l1.4-9.7c0.1-0.3,0.1-0.7,0.1-0.9c0-0.8-0.2-1.4-0.5-1.8c-0.3-0.4-0.7-0.6-1.2-0.6
		c-0.3,0-0.6,0.1-1,0.2c-0.4,0.1-0.7,0.4-1.2,0.7c-0.4,0.3-0.9,0.7-1.5,1.4c-0.6,0.6-0.9,1-0.9,1.2l-1.4,9.7h-2.8l2.1-15.3H217.4z"
		/>
	<path style="fill:#6D6E70;" d="M234.4,70.7l-1.2,9.1c1.1-1.1,2.3-1.7,3.7-1.7c1.6,0,2.9,0.6,3.9,1.9c1,1.3,1.5,3,1.5,5
		c0,2.7-0.9,4.9-2.6,6.6c-1.7,1.7-4.2,2.6-7.4,2.6c-1.6,0-2.9-0.1-4-0.2l3.2-23.4H234.4z M231.4,91.9h1.6c1.9,0,3.5-0.6,4.6-1.9
		c1.1-1.2,1.7-2.9,1.7-5c0-1.4-0.3-2.5-0.9-3.2c-0.6-0.8-1.4-1.2-2.4-1.2c-0.7,0-1.3,0.2-2.1,0.6c-0.7,0.4-1.1,0.8-1.2,1.4
		L231.4,91.9z"/>
	<path style="fill:#6D6E70;" d="M258.1,78.6L256,93.8h-2.8l0.3-2.6c-1.8,1.9-3.4,2.8-5,2.8c-1,0-1.9-0.4-2.6-1.1
		c-0.7-0.7-1.1-1.8-1.1-3.1c0-0.4,0-0.8,0.1-1.2l1.4-10.1h2.9l-1.4,10.1c0,0.3-0.1,0.6-0.1,0.9c0,1.5,0.6,2.3,1.7,2.3
		c1.2,0,2.7-1.1,4.6-3.4l1.4-9.9H258.1z"/>
	<path style="fill:#6D6E70;" d="M265.5,78.6l-0.4,2.9l0.1,0.1c0.9-1.3,1.6-2.2,2.2-2.6c0.5-0.4,1.2-0.6,1.9-0.6
		c0.5,0,0.9,0.1,1.3,0.2v3.3c-0.6-0.3-1.2-0.5-1.8-0.5c-0.6,0-1.1,0.1-1.5,0.4c-0.4,0.3-1,0.9-1.6,1.8c-0.6,0.9-1,1.5-1,1.7
		l-1.2,8.6h-2.9l2.1-15.3H265.5z"/>
	<path style="fill:#6D6E70;" d="M284.9,78.6l-0.3,2.3h-3c0.7,1,1,2,1,3c0,1.2-0.3,2.3-0.8,3.2c-0.5,0.9-1.2,1.6-2,2
		c-0.8,0.4-1.8,0.7-3.1,0.9c-1.2,0.2-2,0.5-2.4,0.7c-0.3,0.2-0.5,0.5-0.5,0.8c0,0.2,0.1,0.4,0.4,0.6c0.3,0.2,1.3,0.5,3.1,0.9
		c1.8,0.4,3,1,3.7,1.7c0.7,0.7,1.1,1.6,1.1,2.6c0,1.2-0.6,2.3-1.8,3.1c-1.2,0.8-2.7,1.2-4.5,1.2c-1.9,0-3.5-0.4-4.8-1.1
		c-1.2-0.8-1.9-1.7-1.9-2.8c0-1.5,1.5-2.5,4.4-3.1c-1.8-0.7-2.7-1.5-2.7-2.7c0-0.6,0.3-1.1,0.8-1.7c0.5-0.5,1.3-0.9,2.2-1.2
		c-1.8-0.9-2.8-2.3-2.8-4.4c0-1.7,0.6-3.2,1.7-4.3s2.4-1.8,4-1.8H284.9z M276.3,99.5c1,0,1.8-0.2,2.4-0.5c0.6-0.4,0.9-0.8,0.9-1.4
		c0-0.6-0.5-1.1-1.4-1.5c-1-0.4-1.6-0.7-2-0.7c-0.4,0-1.2,0.2-2.3,0.7c-1.1,0.5-1.6,1-1.6,1.6c0,0.6,0.4,1,1.1,1.3
		C274,99.3,275,99.5,276.3,99.5 M276.9,87.5c0.9,0,1.6-0.4,2.1-1.1c0.6-0.7,0.8-1.5,0.8-2.5c0-0.9-0.3-1.6-0.8-2.2
		c-0.5-0.6-1.2-0.9-1.9-0.9c-0.8,0-1.5,0.4-2.1,1.1c-0.6,0.7-0.9,1.5-0.9,2.5c0,0.9,0.3,1.6,0.8,2.2
		C275.5,87.3,276.1,87.5,276.9,87.5"/>
	<path style="fill:#6D6E70;" d="M291.2,70.7L289.7,81l0.1,0.1c1.7-2,3.5-3,5.3-3c1.1,0,2,0.4,2.6,1.1c0.6,0.8,0.9,1.8,0.9,3.1
		c0,0.4,0,0.7-0.1,1.1l-1.5,10.4h-2.9l1.5-10.6c0-0.3,0-0.5,0-0.7c0-1.5-0.6-2.2-1.8-2.2c-0.9,0-1.8,0.6-2.9,1.7
		c-1.1,1.1-1.7,1.8-1.7,2l-1.4,9.9H285l3.3-23.2H291.2z"/>
	<path style="fill:#6D6E70;" d="M325.4,70.4l-0.6,2.9h-1.7c-4,0-7.1,1.1-9.2,3.2c-2.1,2.1-3.2,4.7-3.2,7.8c0,2.1,0.6,3.8,1.7,5
		c1.1,1.3,2.6,1.9,4.4,1.9c1,0,2.1-0.3,3.4-0.8c1.3-0.5,2.5-1.2,3.6-2.1l-0.5,3.7c-2.4,1.3-4.7,2-6.9,2c-2.6,0-4.8-0.9-6.4-2.7
		c-1.7-1.8-2.5-4.1-2.5-6.9c0-4.2,1.4-7.6,4.3-10.2c2.9-2.6,6.7-3.9,11.5-3.9H325.4z"/>
	<path style="fill:#6D6E70;" d="M333,78.1c1.7,0,3.1,0.6,4.1,1.8c1,1.2,1.5,2.8,1.5,4.8c0,2.8-0.7,5.1-2.1,6.9
		c-1.4,1.8-3.1,2.7-5.1,2.7c-1.8,0-3.2-0.6-4.2-1.8c-1-1.2-1.5-2.9-1.5-5c0-2.7,0.7-4.9,2.1-6.7C329.2,79,330.9,78.1,333,78.1
		 M333,80.4c-1.2,0-2.2,0.7-3.1,2.2c-0.9,1.5-1.3,3.2-1.3,5.2c0,1.2,0.3,2.2,0.8,2.9c0.5,0.8,1.2,1.1,1.9,1.1c1.2,0,2.2-0.7,3.1-2.1
		c0.9-1.4,1.3-3.1,1.3-5.2c0-1.3-0.2-2.3-0.7-3.1C334.4,80.8,333.8,80.4,333,80.4"/>
	<polygon style="fill:#6D6E70;" points="346.6,70.7 343.3,93.8 340.4,93.8 343.7,70.7 	"/>
	<polygon style="fill:#6D6E70;" points="353,70.7 349.7,93.8 346.8,93.8 350.1,70.7 	"/>
	<path style="fill:#6D6E70;" d="M365.6,89.9l-0.4,2.8c-1.5,1.1-3.2,1.7-5.1,1.7c-1.9,0-3.5-0.7-4.6-2c-1.2-1.3-1.7-3.1-1.7-5.4
		c0-2.5,0.7-4.6,2.1-6.3c1.4-1.7,3.1-2.5,5.1-2.5c1.5,0,2.8,0.6,3.9,1.8c1,1.2,1.5,2.7,1.5,4.6c0,0.5,0,0.9-0.1,1.4h-9.5
		c-0.1,0.5-0.1,1-0.1,1.5c0,1.4,0.4,2.5,1.2,3.3c0.8,0.8,1.7,1.2,2.9,1.2C362.1,91.9,363.7,91.2,365.6,89.9 M357.2,83.9h6.4
		c0-1.1-0.2-1.9-0.7-2.5c-0.5-0.6-1.2-0.9-2-0.9C359.2,80.5,357.9,81.6,357.2,83.9"/>
	<path style="fill:#6D6E70;" d="M382.4,78.6l-0.3,2.3h-3c0.7,1,1,2,1,3c0,1.2-0.3,2.3-0.8,3.2c-0.5,0.9-1.2,1.6-2,2
		c-0.8,0.4-1.8,0.7-3.1,0.9c-1.2,0.2-2,0.5-2.4,0.7c-0.3,0.2-0.5,0.5-0.5,0.8c0,0.2,0.1,0.4,0.4,0.6c0.3,0.2,1.3,0.5,3.1,0.9
		c1.8,0.4,3,1,3.7,1.7c0.7,0.7,1.1,1.6,1.1,2.6c0,1.2-0.6,2.3-1.8,3.1c-1.2,0.8-2.7,1.2-4.5,1.2c-1.9,0-3.5-0.4-4.8-1.1
		c-1.2-0.8-1.9-1.7-1.9-2.8c0-1.5,1.5-2.5,4.4-3.1c-1.8-0.7-2.7-1.5-2.7-2.7c0-0.6,0.3-1.1,0.8-1.7c0.5-0.5,1.3-0.9,2.2-1.2
		c-1.8-0.9-2.8-2.3-2.8-4.4c0-1.7,0.6-3.2,1.7-4.3c1.1-1.2,2.4-1.8,4-1.8H382.4z M373.8,99.5c1,0,1.8-0.2,2.4-0.5
		c0.6-0.4,0.9-0.8,0.9-1.4c0-0.6-0.5-1.1-1.4-1.5c-1-0.4-1.6-0.7-2-0.7c-0.4,0-1.2,0.2-2.3,0.7c-1.1,0.5-1.6,1-1.6,1.6
		c0,0.6,0.4,1,1.1,1.3C371.5,99.3,372.5,99.5,373.8,99.5 M374.4,87.5c0.9,0,1.6-0.4,2.1-1.1c0.6-0.7,0.8-1.5,0.8-2.5
		c0-0.9-0.3-1.6-0.8-2.2c-0.5-0.6-1.2-0.9-1.9-0.9c-0.8,0-1.5,0.4-2.1,1.1c-0.6,0.7-0.9,1.5-0.9,2.5c0,0.9,0.3,1.6,0.8,2.2
		C373,87.3,373.6,87.5,374.4,87.5"/>
	<path style="fill:#6D6E70;" d="M394.5,89.9l-0.4,2.8c-1.5,1.1-3.2,1.7-5.1,1.7c-1.9,0-3.5-0.7-4.6-2c-1.2-1.3-1.8-3.1-1.8-5.4
		c0-2.5,0.7-4.6,2.1-6.3c1.4-1.7,3.1-2.5,5.1-2.5c1.5,0,2.8,0.6,3.9,1.8c1,1.2,1.5,2.7,1.5,4.6c0,0.5,0,0.9-0.1,1.4h-9.5
		c-0.1,0.5-0.1,1-0.1,1.5c0,1.4,0.4,2.5,1.2,3.3c0.8,0.8,1.7,1.2,2.9,1.2C390.9,91.9,392.6,91.2,394.5,89.9 M386,83.9h6.4
		c0-1.1-0.2-1.9-0.7-2.5c-0.5-0.6-1.2-0.9-2-0.9C388,80.5,386.8,81.6,386,83.9"/>
	<path style="fill:#6D6E70;" d="M408.8,78.1c1.7,0,3.1,0.6,4.1,1.8c1,1.2,1.6,2.8,1.6,4.8c0,2.8-0.7,5.1-2.1,6.9
		c-1.4,1.8-3.1,2.7-5.1,2.7c-1.8,0-3.2-0.6-4.2-1.8c-1-1.2-1.5-2.9-1.5-5c0-2.7,0.7-4.9,2.1-6.7C405,79,406.7,78.1,408.8,78.1
		 M408.8,80.4c-1.2,0-2.2,0.7-3.1,2.2c-0.9,1.5-1.3,3.2-1.3,5.2c0,1.2,0.3,2.2,0.8,2.9c0.5,0.8,1.2,1.1,1.9,1.1
		c1.2,0,2.2-0.7,3.1-2.1c0.9-1.4,1.3-3.1,1.3-5.2c0-1.3-0.3-2.3-0.7-3.1C410.3,80.8,409.6,80.4,408.8,80.4"/>
	<path style="fill:#6D6E70;" d="M425.2,78.6l-0.4,2.6h-3.1l-2.5,19.1h-2.8l2.5-19.1h-2.5l0.4-2.6h2.4c0.2-2.6,0.9-4.6,2.2-6.1
		c1.3-1.4,3-2.1,5.2-2.1c1.1,0,2.4,0.2,3.7,0.7l-0.4,2.9c-1-0.6-2-0.8-3-0.8c-2.9,0-4.4,1.8-4.8,5.5H425.2z"/>
	<path style="fill:#6D6E70;" d="M444.2,70.5l4.5,23.3h-2.9l-1.4-7.3h-7.3l-3.1,7.3H431l10.3-23.3H444.2z M438.2,84.1h5.8l-1.8-9.5
		L438.2,84.1z"/>
	<path style="fill:#6D6E70;" d="M456.2,78.6l-0.4,2.9l0.1,0.1c0.9-1.3,1.6-2.2,2.2-2.6c0.5-0.4,1.2-0.6,1.9-0.6
		c0.5,0,0.9,0.1,1.3,0.2v3.3c-0.6-0.3-1.2-0.5-1.8-0.5c-0.6,0-1.1,0.1-1.5,0.4c-0.4,0.3-1,0.9-1.6,1.8c-0.6,0.9-1,1.5-1,1.7
		l-1.2,8.6h-2.9l2.1-15.3H456.2z"/>
	<path style="fill:#6D6E70;" d="M471.5,78.6l-0.3,2.3h-3l-1.5,8.3c-0.1,0.4-0.1,0.8-0.1,1.1c0,1,0.5,1.5,1.6,1.5
		c0.8,0,1.7-0.3,2.8-0.9l-0.2,2.8c-1.1,0.5-2.1,0.7-3.2,0.7c-1.2,0-2.2-0.3-3-1c-0.7-0.6-1.1-1.5-1.1-2.5c0-0.3,0-0.5,0.1-0.8
		l1.6-9.2h-2.7l0.4-2.3h2.8l0.6-3.1h2.8l-0.6,3.1H471.5z"/>
	<rect x="151.5" y="37.2" style="fill:#231F20;" width="1.5" height="64.7"/>
	<path style="fill:#231F20;" d="M184.8,38.7h-2.6V52c0,1,0.1,1.7,0.4,2.1c0.3,0.4,0.8,0.5,1.5,0.5v0.5H178v-0.5
		c0.8,0,1.3-0.2,1.6-0.6c0.3-0.4,0.4-1.1,0.4-2.1V38.7h-2.5c-1.2,0-2.1,0.2-2.6,0.6c-0.5,0.4-0.9,1-0.9,1.9h-0.5v-4h0.5
		c0.5,0.4,1.3,0.6,2.6,0.6h9.1c1.3,0,2.2-0.2,2.7-0.6h0.5v4h-0.3c-0.2-1-0.6-1.6-1.2-2C186.8,38.9,185.9,38.7,184.8,38.7"/>
	<path style="fill:#231F20;" d="M204.6,51.9v-5h-9.4v5c0,1,0.1,1.7,0.4,2.1c0.3,0.4,0.8,0.6,1.6,0.6v0.5h-6.3v-0.5
		c0.8,0,1.3-0.2,1.5-0.6c0.3-0.4,0.4-1.1,0.4-2.1V41.1c0-1.1-0.1-1.8-0.4-2.2c-0.3-0.4-0.8-0.6-1.5-0.6v-0.5h6.3v0.5
		c-0.8,0-1.3,0.2-1.6,0.6c-0.3,0.4-0.4,1.1-0.4,2.1V46h9.4v-4.9c0-1.1-0.1-1.8-0.4-2.2c-0.3-0.4-0.8-0.6-1.5-0.6v-0.5h6.2v0.5
		c-0.7,0-1.2,0.2-1.5,0.6c-0.3,0.4-0.4,1.1-0.4,2.2v10.8c0,1,0.1,1.8,0.4,2.1c0.3,0.4,0.8,0.6,1.5,0.6v0.5h-6.2v-0.5
		c0.8,0,1.3-0.2,1.5-0.6C204.5,53.6,204.6,52.9,204.6,51.9"/>
	<path style="fill:#231F20;" d="M222.4,44.4h0.5v4.2h-0.5c-0.2-0.7-0.4-1.2-0.7-1.4c-0.3-0.2-0.8-0.3-1.7-0.3h-4.3v6.2
		c0,0.4,0.1,0.7,0.3,0.9c0.2,0.2,0.5,0.3,1,0.3h3c1.1,0,1.8-0.1,2.2-0.2c0.4-0.1,0.8-0.3,1-0.7c0.3-0.3,0.6-0.8,0.9-1.6h0.5
		l-0.8,3.2h-12.5v-0.5c0.8,0,1.3-0.2,1.6-0.6c0.3-0.4,0.4-1.1,0.4-2.1V41.1c0-1.1-0.1-1.8-0.4-2.2c-0.3-0.4-0.8-0.6-1.5-0.6v-0.5
		h12.5v2.9h-0.3c-0.2-0.8-0.4-1.4-0.8-1.6c-0.3-0.3-1-0.4-2.1-0.4h-5v7.4h4.8c0.7,0,1.1-0.1,1.3-0.4
		C222.1,45.5,222.3,45.1,222.4,44.4"/>
	<path style="fill:#231F20;" d="M247,51.5V41.1c0-1-0.1-1.7-0.4-2.1c-0.3-0.4-0.8-0.6-1.4-0.6v-0.5h6.1v0.5c-0.7,0-1.2,0.2-1.5,0.6
		c-0.3,0.4-0.4,1.1-0.4,2.2v10.8c0,1,0.1,1.7,0.4,2.1c0.3,0.4,0.8,0.6,1.5,0.6v0.5H247v-2.4c-1.6,1.9-3.5,2.8-5.8,2.8
		c-1.8,0-3.3-0.5-4.3-1.6c-1-1.1-1.6-2.5-1.6-4.3v-8.5c0-1-0.1-1.7-0.4-2.2c-0.3-0.4-0.8-0.6-1.6-0.6v-0.5h6.3v0.5
		c-0.8,0-1.3,0.2-1.6,0.6c-0.3,0.4-0.4,1.1-0.4,2.1v8.8c0,1.4,0.4,2.5,1.2,3.3c0.8,0.8,1.9,1.2,3.2,1.2
		C244.1,54.4,245.8,53.4,247,51.5"/>
	<path style="fill:#231F20;" d="M266.8,38.4v-0.5h5.2v0.5c-0.8,0-1.4,0.2-1.7,0.6c-0.3,0.4-0.5,1.1-0.5,2.1v14.1h-0.5l-12.3-15v12.1
		c0,0.9,0.2,1.5,0.5,1.8c0.3,0.4,0.9,0.6,1.7,0.6v0.5H254v-0.5c0.8,0,1.4-0.2,1.7-0.7c0.3-0.4,0.4-1.2,0.4-2.3V41.6
		c0-1.1-0.2-1.9-0.6-2.4c-0.4-0.5-1.1-0.8-2-0.8v-0.5h4.4l10.9,13.5V41.2c0-1.1-0.2-1.8-0.5-2.2C268.2,38.6,267.6,38.4,266.8,38.4"
		/>
	<path style="fill:#231F20;" d="M280.7,37.9v0.5c-0.7,0-1.2,0.2-1.5,0.6s-0.4,1.1-0.4,2.2v10.8c0,1,0.1,1.7,0.4,2.1
		c0.3,0.4,0.8,0.6,1.5,0.6v0.5h-6.2v-0.5c0.8,0,1.3-0.2,1.5-0.6c0.3-0.4,0.4-1.1,0.4-2.2V41.1c0-1.1-0.1-1.8-0.4-2.2
		c-0.3-0.4-0.8-0.6-1.6-0.6v-0.5H280.7z"/>
	<path style="fill:#231F20;" d="M299.8,37.9v0.5c-1.3,0-2.3,1.1-3.1,3.4l-5.1,13.6H291l-5.4-14c-0.5-1.3-0.9-2.1-1.3-2.5
		c-0.4-0.3-0.9-0.5-1.6-0.5v-0.5h6.3v0.5c-1,0-1.5,0.4-1.5,1.2c0,0.3,0.1,0.5,0.2,0.9l4.2,11.2l4-10.8c0.2-0.5,0.3-0.9,0.3-1.2
		c0-0.8-0.5-1.2-1.5-1.2v-0.5H299.8z"/>
	<path style="fill:#231F20;" d="M312.4,44.4h0.5v4.2h-0.5c-0.2-0.7-0.4-1.2-0.7-1.4c-0.3-0.2-0.8-0.3-1.7-0.3h-4.3v6.2
		c0,0.4,0.1,0.7,0.3,0.9c0.2,0.2,0.5,0.3,1,0.3h3c1.1,0,1.8-0.1,2.2-0.2c0.4-0.1,0.8-0.3,1-0.7c0.3-0.3,0.6-0.8,0.9-1.6h0.5
		l-0.8,3.2h-12.5v-0.5c0.8,0,1.3-0.2,1.6-0.6c0.3-0.4,0.4-1.1,0.4-2.1V41.1c0-1.1-0.1-1.8-0.4-2.2c-0.3-0.4-0.8-0.6-1.5-0.6v-0.5
		h12.5v2.9h-0.3c-0.2-0.8-0.4-1.4-0.8-1.6c-0.3-0.3-1-0.4-2.1-0.4h-5v7.4h4.8c0.7,0,1.1-0.1,1.3-0.4
		C312.2,45.5,312.3,45.1,312.4,44.4"/>
	<path style="fill:#231F20;" d="M322.6,47.1h-1.4v4.8c0,1,0.1,1.7,0.4,2.1c0.3,0.4,0.8,0.6,1.5,0.6v0.5H317v-0.5
		c0.8,0,1.3-0.2,1.6-0.6c0.3-0.4,0.4-1.1,0.4-2.1V41.1c0-1-0.1-1.7-0.4-2.1c-0.3-0.4-0.8-0.6-1.6-0.6v-0.5h7.1
		c1.8,0,3.1,0.4,4.2,1.3c1,0.9,1.6,1.9,1.6,3.3c0,2.1-1.2,3.5-3.6,4.2c0.5,0.3,1,0.8,1.5,1.4c0.5,0.6,1.1,1.6,2,2.9
		c0.9,1.5,1.6,2.5,2.1,3s1,0.7,1.6,0.8v0.5h-3.5c-0.7-0.9-1.6-2.2-2.6-3.9c-1.1-1.8-2-2.9-2.6-3.4C324.1,47.4,323.4,47.1,322.6,47.1
		 M323.1,38.5h-1.8v7.9h2.1c1.3,0,2.3-0.4,3-1.1c0.7-0.7,1.1-1.7,1.1-2.9c0-1.2-0.4-2.1-1.2-2.8C325.4,38.9,324.4,38.5,323.1,38.5"
		/>
	<path style="fill:#231F20;" d="M343.7,37.6h0.5v4.1h-0.5c-0.1-1.1-0.5-2-1.2-2.6c-0.7-0.6-1.6-0.9-2.6-0.9c-0.9,0-1.7,0.2-2.3,0.7
		c-0.6,0.5-0.9,1.1-0.9,1.9c0,0.7,0.2,1.4,0.7,2c0.5,0.6,1.5,1.4,3.1,2.3c1.8,1.1,3.1,2,3.7,2.9c0.6,0.8,0.9,1.8,0.9,2.8
		c0,1.4-0.5,2.5-1.4,3.5c-1,1-2.1,1.4-3.5,1.4c-0.8,0-1.8-0.2-3-0.6c-0.5-0.2-0.8-0.3-1-0.3c-0.3,0-0.5,0.2-0.7,0.7h-0.5v-4.7h0.5
		c0,1.3,0.4,2.3,1.3,3.1c0.8,0.8,1.8,1.2,2.9,1.2c1.1,0,1.9-0.3,2.5-0.8c0.6-0.6,0.9-1.3,0.9-2.2c0-0.7-0.3-1.4-0.8-2
		c-0.5-0.6-1.6-1.5-3.3-2.5c-1.3-0.8-2.2-1.5-2.7-2c-0.5-0.5-0.8-1-1-1.6c-0.2-0.6-0.3-1.2-0.3-1.9c0-1.3,0.4-2.4,1.3-3.2
		c0.9-0.8,2-1.2,3.4-1.2c0.8,0,1.6,0.2,2.5,0.5c0.4,0.1,0.7,0.2,0.9,0.2c0.1,0,0.2,0,0.3-0.1C343.6,37.9,343.7,37.8,343.7,37.6"/>
	<path style="fill:#231F20;" d="M354.3,37.9v0.5c-0.7,0-1.2,0.2-1.5,0.6s-0.4,1.1-0.4,2.2v10.8c0,1,0.1,1.7,0.4,2.1
		c0.3,0.4,0.8,0.6,1.5,0.6v0.5H348v-0.5c0.8,0,1.3-0.2,1.5-0.6c0.3-0.4,0.4-1.1,0.4-2.2V41.1c0-1.1-0.1-1.8-0.4-2.2
		c-0.3-0.4-0.8-0.6-1.6-0.6v-0.5H354.3z"/>
	<path style="fill:#231F20;" d="M368,38.7h-2.6V52c0,1,0.1,1.7,0.4,2.1c0.3,0.4,0.8,0.5,1.5,0.5v0.5h-6.1v-0.5
		c0.8,0,1.3-0.2,1.6-0.6c0.3-0.4,0.4-1.1,0.4-2.1V38.7h-2.5c-1.2,0-2.1,0.2-2.6,0.6c-0.5,0.4-0.9,1-0.9,1.9h-0.5v-4h0.5
		c0.5,0.4,1.3,0.6,2.6,0.6h9.1c1.3,0,2.2-0.2,2.7-0.6h0.5v4h-0.3c-0.2-1-0.6-1.6-1.2-2C369.9,38.9,369.1,38.7,368,38.7"/>
	<path style="fill:#231F20;" d="M386.6,40.3l-3.9,6.1v5.4c0,1.1,0.1,1.8,0.4,2.2c0.3,0.4,0.8,0.6,1.5,0.6v0.5h-6.3v-0.5
		c0.9,0,1.4-0.2,1.7-0.6c0.3-0.4,0.4-1.1,0.4-2.1v-5.4l-3.7-5.7c-0.6-1-1.1-1.6-1.5-1.9c-0.4-0.3-0.9-0.5-1.6-0.5v-0.5h6.8v0.5
		c-1.2,0-1.8,0.3-1.8,0.8c0,0.2,0.1,0.5,0.4,0.9l3.4,5.2l2.7-4.3c0.4-0.6,0.6-1.2,0.6-1.7c0-0.6-0.4-1-1.1-1v-0.5h4.7v0.5
		c-0.6,0-1.1,0.2-1.5,0.4C387.5,39,387.1,39.5,386.6,40.3"/>
	<path style="fill:#231F20;" d="M400.1,44.9c0.8,0,1.5,0.3,2.1,1c0.6,0.7,0.9,1.5,0.9,2.4c0,1.6-0.6,3.2-1.8,4.8
		c-1.2,1.6-2.6,2.4-4.3,2.4c-0.9,0-1.7-0.3-2.3-1c-0.6-0.7-0.9-1.5-0.9-2.5c0-1.8,0.6-3.4,1.9-4.9C397.1,45.6,398.5,44.9,400.1,44.9
		 M397.6,54.6c1,0,1.8-0.6,2.6-1.8c0.7-1.2,1.1-2.7,1.1-4.3c0-0.8-0.2-1.4-0.6-1.9c-0.4-0.5-0.9-0.8-1.5-0.8c-0.9,0-1.8,0.6-2.5,1.8
		c-0.7,1.2-1.1,2.6-1.1,4.3c0,0.8,0.2,1.5,0.6,2C396.5,54.4,397,54.6,397.6,54.6"/>
	<path style="fill:#231F20;" d="M410.5,45.2l-0.1,0.8h-2.1l-1.7,8.8c-0.4,2.4-0.9,4.1-1.5,5.2c-0.5,1.1-1.3,1.9-2.3,2.5
		c-1,0.6-2,0.9-3.1,0.9c-1.5,0-2.7-0.3-3.5-0.8l0.5-2.1h0.5c0.3,1.5,1.2,2.3,2.6,2.3c1.1,0,2-0.4,2.8-1.2c0.8-0.8,1.5-2.6,2-5.4
		l1.9-10.2h-2.1l0.1-0.8h2.1l0.7-3.7c0.4-1.9,1-3.3,1.9-4c0.9-0.7,2-1.1,3.2-1.1c0.6,0,1.3,0.1,2.1,0.4l0.1-0.4h0.6l-0.6,2.7h-0.6
		c-0.1-1.4-0.8-2.2-1.9-2.2c-1.5,0-2.4,1.2-3,3.7l-0.9,4.5H410.5z"/>
	<path style="fill:#231F20;" d="M431.4,44.4h0.5v4.2h-0.5c-0.2-0.7-0.4-1.2-0.7-1.4c-0.3-0.2-0.8-0.3-1.7-0.3h-4.3v6.2
		c0,0.4,0.1,0.7,0.3,0.9c0.2,0.2,0.5,0.3,1,0.3h3c1.1,0,1.8-0.1,2.2-0.2c0.4-0.1,0.8-0.3,1-0.7c0.3-0.3,0.6-0.8,0.9-1.6h0.5
		l-0.8,3.2h-12.5v-0.5c0.8,0,1.3-0.2,1.6-0.6c0.3-0.4,0.4-1.1,0.4-2.1V41.1c0-1.1-0.1-1.8-0.4-2.2c-0.3-0.4-0.8-0.6-1.5-0.6v-0.5
		h12.5v2.9h-0.3c-0.2-0.8-0.4-1.4-0.8-1.6c-0.3-0.3-1-0.4-2.1-0.4h-5v7.4h4.8c0.7,0,1.1-0.1,1.3-0.4
		C431.1,45.5,431.3,45.1,431.4,44.4"/>
	<path style="fill:#231F20;" d="M436.1,55.1v-0.5c0.7,0,1.3-0.2,1.5-0.6c0.3-0.4,0.4-1.1,0.4-2.1V41.1c0-1-0.1-1.8-0.4-2.2
		c-0.3-0.4-0.8-0.6-1.5-0.6v-0.5h8c3,0,5.3,0.8,7.1,2.5c1.8,1.7,2.7,3.8,2.7,6.4c0,2.5-0.8,4.6-2.5,6.1c-1.7,1.5-4,2.3-7,2.3H436.1z
		 M443.6,38.5h-3.3v12.8c0,1.2,0.1,2.1,0.4,2.5c0.3,0.5,0.9,0.7,1.8,0.7h1.8c2.1,0,3.8-0.7,5-2.1c1.2-1.4,1.8-3.2,1.8-5.6
		c0-2.5-0.7-4.5-2-6C447.8,39.3,446,38.5,443.6,38.5"/>
	<path style="fill:#231F20;" d="M462.3,37.9v0.5c-0.7,0-1.2,0.2-1.5,0.6s-0.4,1.1-0.4,2.2v10.8c0,1,0.1,1.7,0.4,2.1
		c0.3,0.4,0.8,0.6,1.5,0.6v0.5h-6.2v-0.5c0.8,0,1.3-0.2,1.5-0.6c0.3-0.4,0.4-1.1,0.4-2.2V41.1c0-1.1-0.1-1.8-0.4-2.2
		c-0.3-0.4-0.8-0.6-1.6-0.6v-0.5H462.3z"/>
	<path style="fill:#231F20;" d="M477.7,38.4v-0.5h5.2v0.5c-0.8,0-1.4,0.2-1.7,0.6c-0.3,0.4-0.5,1.1-0.5,2.1v14.1h-0.5l-12.3-15v12.1
		c0,0.9,0.2,1.5,0.5,1.8c0.3,0.4,0.9,0.6,1.7,0.6v0.5h-5.2v-0.5c0.8,0,1.4-0.2,1.7-0.7c0.3-0.4,0.4-1.2,0.4-2.3V41.6
		c0-1.1-0.2-1.9-0.6-2.4c-0.4-0.5-1.1-0.8-2-0.8v-0.5h4.4l10.9,13.5V41.2c0-1.1-0.2-1.8-0.5-2.2C479.1,38.6,478.5,38.4,477.7,38.4"
		/>
	<path style="fill:#231F20;" d="M492.8,55.1h-8v-0.5c0.7,0,1.2-0.2,1.5-0.6c0.3-0.4,0.4-1.1,0.4-2.1V41.1c0-1.1-0.1-1.8-0.4-2.2
		c-0.3-0.4-0.8-0.6-1.6-0.6v-0.5h6.5c1.9,0,3.3,0.4,4.4,1.2c1.1,0.8,1.6,1.8,1.6,3.1c0,1.9-1.2,3.2-3.5,3.9v0.1
		c1.3,0.3,2.4,0.8,3.2,1.7c0.8,0.9,1.2,1.9,1.2,3.1c0,1.3-0.5,2.3-1.5,3.1C495.8,54.8,494.5,55.1,492.8,55.1 M489.1,38.5v7.3h1.8
		c1.2,0,2.2-0.3,3-1c0.7-0.7,1.1-1.5,1.1-2.6c0-1.2-0.4-2.1-1.1-2.7c-0.7-0.6-1.7-1-3.1-1H489.1z M490.7,46.5h-1.6v5.1
		c0,1.1,0.1,1.9,0.4,2.3c0.2,0.4,0.7,0.6,1.4,0.6h1.4c1,0,1.8-0.3,2.5-1c0.6-0.7,1-1.6,1-2.7c0-1.3-0.5-2.3-1.4-3.1
		C493.4,46.9,492.2,46.5,490.7,46.5"/>
	<path style="fill:#231F20;" d="M513.8,51.5V41.1c0-1-0.1-1.7-0.4-2.1c-0.3-0.4-0.8-0.6-1.4-0.6v-0.5h6.1v0.5
		c-0.7,0-1.2,0.2-1.5,0.6c-0.3,0.4-0.4,1.1-0.4,2.2v10.8c0,1,0.1,1.7,0.4,2.1c0.3,0.4,0.8,0.6,1.5,0.6v0.5h-4.3v-2.4
		c-1.6,1.9-3.5,2.8-5.8,2.8c-1.8,0-3.3-0.5-4.3-1.6c-1-1.1-1.6-2.5-1.6-4.3v-8.5c0-1-0.1-1.7-0.4-2.2c-0.3-0.4-0.8-0.6-1.6-0.6v-0.5
		h6.3v0.5c-0.8,0-1.3,0.2-1.6,0.6c-0.3,0.4-0.4,1.1-0.4,2.1v8.8c0,1.4,0.4,2.5,1.2,3.3c0.8,0.8,1.9,1.2,3.2,1.2
		C510.9,54.4,512.5,53.4,513.8,51.5"/>
	<path style="fill:#231F20;" d="M526.3,47.1h-1.4v4.8c0,1,0.1,1.7,0.4,2.1c0.3,0.4,0.8,0.6,1.5,0.6v0.5h-6.2v-0.5
		c0.8,0,1.3-0.2,1.6-0.6c0.3-0.4,0.4-1.1,0.4-2.1V41.1c0-1-0.1-1.7-0.4-2.1c-0.3-0.4-0.8-0.6-1.6-0.6v-0.5h7.1
		c1.8,0,3.1,0.4,4.2,1.3c1,0.9,1.6,1.9,1.6,3.3c0,2.1-1.2,3.5-3.6,4.2c0.5,0.3,1,0.8,1.5,1.4c0.5,0.6,1.1,1.6,2,2.9
		c0.9,1.5,1.6,2.5,2.1,3c0.5,0.5,1,0.7,1.6,0.8v0.5h-3.5c-0.7-0.9-1.6-2.2-2.6-3.9c-1.1-1.8-2-2.9-2.6-3.4
		C527.7,47.4,527,47.1,526.3,47.1 M526.7,38.5h-1.8v7.9h2.1c1.3,0,2.3-0.4,3-1.1c0.7-0.7,1.1-1.7,1.1-2.9c0-1.2-0.4-2.1-1.2-2.8
		C529,38.9,528,38.5,526.7,38.5"/>
	<path style="fill:#231F20;" d="M554.3,47.7v0.5c-0.8,0-1.3,0.2-1.6,0.5c-0.3,0.3-0.5,1-0.5,1.8v4.7c-0.4,0.1-1.2,0.2-2.3,0.3
		c-1.1,0.1-2,0.1-2.6,0.1c-3.2,0-5.7-0.8-7.5-2.4c-1.8-1.6-2.7-3.6-2.7-6.2c0-1.8,0.4-3.4,1.2-4.9c0.8-1.4,1.9-2.6,3.3-3.4
		c1.4-0.8,2.9-1.3,4.5-1.3c0.9,0,2,0.2,3.1,0.5c0.7,0.2,1.2,0.3,1.6,0.3c0.5,0,0.8-0.2,1-0.6h0.5v5.1h-0.5c-0.2-1.4-0.8-2.6-1.9-3.4
		c-1.1-0.8-2.4-1.3-3.8-1.3c-1.8,0-3.3,0.7-4.5,2.2c-1.2,1.5-1.8,3.3-1.8,5.7c0,2.5,0.7,4.6,2,6.3c1.4,1.7,3.1,2.5,5.1,2.5
		c1.9,0,2.9-0.6,2.9-1.8V51c0-1.1-0.1-1.8-0.4-2.2c-0.3-0.4-0.8-0.6-1.5-0.6h-0.7v-0.5H554.3z"/>
	<path style="fill:#231F20;" d="M569.4,51.9v-5h-9.4v5c0,1,0.1,1.7,0.4,2.1c0.3,0.4,0.8,0.6,1.6,0.6v0.5h-6.3v-0.5
		c0.8,0,1.3-0.2,1.5-0.6c0.3-0.4,0.4-1.1,0.4-2.1V41.1c0-1.1-0.1-1.8-0.4-2.2c-0.3-0.4-0.8-0.6-1.5-0.6v-0.5h6.3v0.5
		c-0.8,0-1.3,0.2-1.6,0.6c-0.3,0.4-0.4,1.1-0.4,2.1V46h9.4v-4.9c0-1.1-0.1-1.8-0.4-2.2c-0.3-0.4-0.8-0.6-1.5-0.6v-0.5h6.2v0.5
		c-0.7,0-1.2,0.2-1.5,0.6c-0.3,0.4-0.4,1.1-0.4,2.2v10.8c0,1,0.1,1.8,0.4,2.1c0.3,0.4,0.8,0.6,1.5,0.6v0.5h-6.2v-0.5
		c0.8,0,1.3-0.2,1.5-0.6C569.2,53.6,569.4,52.9,569.4,51.9"/>
</g>
</svg>
