<?xml version="1.0" encoding="UTF-8"?><svg id="Layer_2" xmlns="http://www.w3.org/2000/svg" viewBox="0 0 316.24 229.16"><defs><style>.cls-1{fill:#004380;}.cls-2{fill:#0096dc;}</style></defs><g id="Layer_1-2"><path class="cls-1" d="M260.04,36.09c-11.27-3.31-17.93-4.05-17.93-10.31,0-4.3,4.03-7.49,10.98-7.49,8.27,0,22.79,6.45,22.79,6.45l7.38-17.08s-13.05-7.66-29.33-7.66c-21.83,0-35.88,11.91-35.88,27.62,0,13.63,8.9,19.76,27.95,24.8,10.71,2.82,17.25,5.03,17.25,12.03,0,5.16-4.87,8.96-11.13,8.96-14.06,0-29.18-8.55-29.18-8.55l-7.89,16.74s13.06,10.34,33.88,10.34c23.65,0,38.39-12.4,38.39-29.34,0-13.13-8.9-21.11-27.26-26.52Z"/><path class="cls-1" d="M56.08,1.67c-10.63,0-21.48,0-21.48,0V89.36h22.3l-.11-52.09s17.42,30.11,32.92,52.09c15.05,.03,18.59,0,18.59,0V1.69h-21.87l.02,45.69S74.2,26.04,56.08,1.67Z"/><path class="cls-1" d="M180.1,89.2V51.42h-33.11v37.77h-22.3V1.7h22.3V34.97h33.11V1.7h22.25V89.2h-22.25Z"/><g><path class="cls-2" d="M158.43,142.76c-7.25-13-31.97-34.51-75.88-27.45-16.67,1.45-23.6,2.49-32.44,1.81-34.96-2.68-41.05-21.98-41.38-23.03H0s4.8,37.53,43.04,43.87c9.37,1.55,28.89-.29,41.5-2.36,30.99-5.07,54.7-5.89,73.93,20.69,0,0,.25,.29,.46,.29,.4,0,.49-.29,.49-.29,0,0,2.5-5.09-1-13.54Z"/><path class="cls-2" d="M307.51,94.09c-.33,1.05-6.8,20.26-41.76,22.95-8.84,.68-15.77-.36-32.44-1.81-43.53-7.01-61.96,14.45-67.29,26.12-3.5,7.83-1.58,14.96-1.58,14.96,0,0,.12,.29,.44,.29,.21,0,.46-.29,.46-.29,19.22-26.58,34.99-25.86,65.98-20.78,12.62,2.06,32.14,3.91,41.51,2.36,38.24-6.34,43.42-43.79,43.42-43.79h-8.73Z"/></g><g><path class="cls-1" d="M74.59,213.91h-8.6v-20.56h-17.87v20.56h-8.6v-42.7h8.6v16.41h17.87v-16.29h8.6v42.58Z"/><path class="cls-1" d="M89.48,183.41v30.5h-8.11v-30.5h8.11Zm-8.91-9.15c0-2.32,1.95-4.7,4.7-4.7s5,2.32,5,4.7c0,2.62-1.89,5.12-4.88,5.12s-4.82-2.5-4.82-5.12Z"/><path class="cls-1" d="M109.61,187.56c4.88,0,7.38,4.94,7.38,10.25,0,6.1-2.32,11.96-7.75,11.96-4.7,0-7.02-5.73-7.02-11.65s2.14-10.55,7.38-10.55Zm15.49-4.15h-8.11v3.72h-.12c-1.71-2.75-5.37-4.45-9.09-4.45-8.3,0-14.15,7.69-14.15,15.62,0,9.76,5.31,16.35,13.42,16.35,4.64,0,7.81-2.56,9.82-5.12h.12v4.03c0,7.08-4.15,10.37-9.52,10.37-4.15,0-7.62-.79-10.61-2.62l-1.59,5c3.6,1.83,8.23,2.87,12.81,2.87,9.09,0,17.02-4.45,17.02-18v-27.75Z"/><path class="cls-1" d="M139.62,187.01c2.75-2.93,6.59-4.33,10.43-4.33,7.14,0,10.92,3.9,10.92,11.59v19.64h-8.11v-18.73c0-4.27-1.89-7.08-6.1-7.08-3.96,0-7.08,2.62-7.08,7.62v18.18h-8.11v-44.84h8.05v17.93Z"/><path class="cls-1" d="M166.82,213.91v-44.84h8.11v44.84h-8.11Z"/><path class="cls-1" d="M197.75,196.22c.61,8.97-3.6,12.99-6.83,12.99-1.95,0-3.66-1.83-3.66-4.51,0-3.48,2.01-5.79,5.98-7.02l4.51-1.46Zm-.12,13.24c0,1.65,.18,3.42,.79,4.45h8.6c-.98-2.13-1.28-5-1.28-7.44v-12.44c0-9.52-6.89-11.35-12.5-11.35-4.21,0-7.93,1.04-11.71,4.15l2.62,3.84c2.13-1.83,4.58-3.11,8.05-3.11,2.62,0,5.12,1.77,5.55,4.57l-7.2,2.13c-7.08,2.01-11.28,5.31-11.28,11.1s3.96,9.27,8.72,9.27c2.81,0,5.55-1.89,7.81-3.66l1.83-1.53Z"/><path class="cls-1" d="M219.83,187.01c2.75-2.93,6.59-4.33,10.43-4.33,7.14,0,10.92,3.9,10.92,11.59v19.64h-8.11v-18.73c0-4.27-1.89-7.08-6.1-7.08-3.97,0-7.08,2.62-7.08,7.62v18.18h-8.11v-30.5h8.05v3.6Z"/><path class="cls-1" d="M261.31,187.56c4.88,0,7.38,4.94,7.38,10.25,0,6.1-2.32,11.96-7.75,11.96-4.7,0-7.02-5.73-7.02-11.65s2.13-10.55,7.38-10.55Zm7.38,26.35h8.11v-44.84h-8.11v17.87h-.12c-1.83-2.68-5.37-4.27-9.33-4.27-8.17,0-13.91,7.69-13.91,15.62,0,9.76,5.31,16.35,13.3,16.35,4.76,0,7.93-2.56,9.94-5.12h.12v4.39Z"/></g></g></svg>